M48
; DRILL file {KiCad 9.0.5} date 2025-11-05T09:46:30-0500
; FORMAT={3:3/ absolute / metric / suppress leading zeros}
; #@! TF.CreationDate,2025-11-05T09:46:30-05:00
; #@! TF.GenerationSoftware,Kicad,Pcbnew,9.0.5
; #@! TF.FileFunction,Plated,1,2,PTH
FMAT,2
METRIC,TZ
; #@! TA.AperFunction,Plated,PTH,ComponentDrill
T1C0.200
; #@! TA.AperFunction,Plated,PTH,ViaDrill
T2C0.300
; #@! TA.AperFunction,Plated,PTH,ComponentDrill
T3C0.300
; #@! TA.AperFunction,Plated,PTH,ComponentDrill
T4C0.600
; #@! TA.AperFunction,Plated,PTH,ComponentDrill
T5C0.650
; #@! TA.AperFunction,Plated,PTH,ComponentDrill
T6C0.710
%
G90
G05
T1
X155020Y-105370
X155020Y-106530
X155600Y-105950
X156180Y-105370
X156180Y-106530
T2
X133500Y-91525
X133775Y-96800
X133875Y-100750
X133875Y-102550
X135023Y-94967
X135350Y-88525
X135475Y-93125
X135950Y-109625
X135975Y-107575
X136000Y-95675
X136000Y-111450
X136927Y-108300
X136975Y-96375
X137125Y-109625
X137575Y-105100
X137900Y-85825
X137900Y-108350
X138873Y-94967
X138925Y-111975
X139700Y-88585
X139825Y-93650
X139825Y-95675
X139825Y-97050
X139825Y-106200
X139825Y-107575
X139850Y-113825
X139875Y-90600
X140475Y-86750
X140500Y-87650
X140775Y-109700
X140778Y-108283
X140890Y-83750
X140900Y-97800
X140950Y-96425
X141300Y-115800
X141375Y-111875
X141395Y-89785
X141625Y-105075
X142000Y-106800
X142070Y-88910
X142240Y-97310
X142475Y-92350
X142525Y-90750
X143000Y-96000
X143025Y-99400
X143275Y-103400
X143550Y-110250
X143625Y-105350
X143825Y-86300
X144000Y-89890
X144075Y-111950
X144075Y-116925
X145325Y-85700
X145325Y-105350
X145400Y-81975
X145612Y-92563
X145625Y-96500
X145650Y-89890
X145650Y-91515
X145650Y-100175
X146175Y-102625
X146175Y-107350
X146275Y-84950
X146275Y-86600
X146675Y-96050
X147050Y-114000
X147050Y-116600
X147100Y-99675
X147788Y-90587
X147800Y-111250
X147950Y-98925
X148200Y-97325
X148210Y-91990
X148390Y-93170
X148500Y-84925
X148860Y-90750
X149090Y-83380
X149550Y-101475
X149775Y-117775
X149800Y-99600
X149810Y-90750
X150670Y-91180
X150675Y-96300
X150710Y-97330
X150875Y-86800
X151175Y-85110
X151375Y-102375
X151425Y-94275
X151475Y-87425
X151650Y-95225
X151725Y-93325
X152050Y-111260
X152375Y-84850
X152450Y-83560
X152550Y-114000
X152575Y-116575
X152700Y-100725
X153030Y-106760
X153310Y-111320
X153650Y-85375
X153825Y-98975
X153950Y-102300
X154275Y-96325
X154300Y-86425
X155425Y-83560
X155450Y-97125
X155800Y-100475
X155840Y-116570
X156525Y-98175
X156775Y-101125
X156950Y-107300
X156975Y-103625
X157725Y-98350
X158225Y-100300
X158450Y-87475
X158700Y-105675
X158720Y-95225
X158820Y-115290
X159030Y-113430
X159425Y-106525
X159610Y-91370
X159690Y-111860
X159825Y-108650
X160150Y-89000
X160225Y-104700
X160310Y-86190
X160370Y-107260
X160425Y-84925
X160875Y-88050
X160900Y-101350
X160975Y-90175
X161725Y-105625
X161875Y-93125
X161925Y-109750
X161950Y-112750
X162275Y-102475
X162775Y-87075
X163775Y-91200
X164250Y-103625
X164810Y-109410
X165150Y-93225
X165420Y-90380
X166330Y-104750
X166350Y-106470
X167925Y-101325
T3
X153575Y-88975
X153575Y-90375
X153575Y-91775
X154975Y-88975
X154975Y-90375
X154975Y-91775
X156375Y-88975
X156375Y-90375
X156375Y-91775
T5
X157050Y-111250
X160775Y-102675
X161950Y-111250
X166300Y-102675
T6
X141910Y-84355
X141910Y-85625
X143180Y-84355
X143180Y-85625
X144450Y-84355
X144450Y-85625
T4
G00X145475Y-112450
M15
G01X145475Y-113050
M16
G05
G00X145475Y-116250
M15
G01X145475Y-116850
M16
G05
G00X154115Y-112450
M15
G01X154115Y-113050
M16
G05
G00X154115Y-116250
M15
G01X154115Y-116850
M16
G05
M30
