%TF.GenerationSoftware,KiCad,Pcbnew,9.0.5*%
%TF.CreationDate,2025-11-05T09:46:05-05:00*%
%TF.ProjectId,frisbee_tracker,66726973-6265-4655-9f74-7261636b6572,rev?*%
%TF.SameCoordinates,Original*%
%TF.FileFunction,Copper,L2,Bot*%
%TF.FilePolarity,Positive*%
%FSLAX46Y46*%
G04 Gerber Fmt 4.6, Leading zero omitted, Abs format (unit mm)*
G04 Created by KiCad (PCBNEW 9.0.5) date 2025-11-05 09:46:05*
%MOMM*%
%LPD*%
G01*
G04 APERTURE LIST*
%TA.AperFunction,ComponentPad*%
%ADD10R,1.000000X1.000000*%
%TD*%
%TA.AperFunction,ComponentPad*%
%ADD11C,0.400000*%
%TD*%
%TA.AperFunction,ComponentPad*%
%ADD12R,1.060000X1.060000*%
%TD*%
%TA.AperFunction,ComponentPad*%
%ADD13C,1.060000*%
%TD*%
%TA.AperFunction,ComponentPad*%
%ADD14C,0.600000*%
%TD*%
%TA.AperFunction,ComponentPad*%
%ADD15O,1.100000X1.700000*%
%TD*%
%TA.AperFunction,ViaPad*%
%ADD16C,0.600000*%
%TD*%
%TA.AperFunction,Conductor*%
%ADD17C,0.400000*%
%TD*%
%TA.AperFunction,Conductor*%
%ADD18C,0.200000*%
%TD*%
G04 APERTURE END LIST*
D10*
%TO.P,SW,1,1*%
%TO.N,Net-(D5-K)*%
X166300000Y-102675000D03*
%TD*%
D11*
%TO.P,U2,18*%
%TO.N,GND*%
X155600000Y-105950000D03*
%TO.P,U2,19*%
X155020000Y-106530000D03*
%TO.P,U2,20*%
X155020000Y-105370000D03*
%TO.P,U2,21*%
X156180000Y-106530000D03*
%TO.P,U2,22*%
X156180000Y-105370000D03*
%TD*%
D10*
%TO.P,SW,1,1*%
%TO.N,Net-(U2-OUT)*%
X160775000Y-102675000D03*
%TD*%
D12*
%TO.P,J2,01,01*%
%TO.N,Net-(IC1-VDD_1)*%
X141910000Y-85625000D03*
D13*
%TO.P,J2,02,02*%
%TO.N,Net-(IC1-SWDIO)*%
X141910000Y-84355000D03*
%TO.P,J2,03,03*%
%TO.N,GND*%
X143180000Y-85625000D03*
%TO.P,J2,04,04*%
%TO.N,Net-(IC1-SWDCLK)*%
X143180000Y-84355000D03*
%TO.P,J2,05,05*%
%TO.N,GND*%
X144450000Y-85625000D03*
%TO.P,J2,06,06*%
%TO.N,Net-(J2-Pad06)*%
X144450000Y-84355000D03*
%TD*%
D14*
%TO.P,IC1,50*%
%TO.N,GND*%
X156375000Y-88975000D03*
X154975000Y-88975000D03*
X153575000Y-88975000D03*
X156375000Y-90375000D03*
X154975000Y-90375000D03*
X153575000Y-90375000D03*
X156375000Y-91775000D03*
X154975000Y-91775000D03*
X153575000Y-91775000D03*
%TD*%
D15*
%TO.P,J1,SH1,SHIELD*%
%TO.N,Net-(J1-SHIELD)*%
X145475000Y-112750000D03*
%TO.P,J1,SH2,SHIELD__1*%
X145475000Y-116550000D03*
%TO.P,J1,SH3,SHIELD__2*%
%TO.N,unconnected-(J1-SHIELD__2-PadSH3)*%
X154115000Y-112750000D03*
%TO.P,J1,SH4,SHIELD__3*%
%TO.N,unconnected-(J1-SHIELD__3-PadSH4)*%
X154115000Y-116550000D03*
%TD*%
D10*
%TO.P,B-,1,1*%
%TO.N,GND*%
X161950000Y-111250000D03*
%TD*%
%TO.P,B+,1,1*%
%TO.N,Net-(U2-BAT)*%
X157050000Y-111250000D03*
%TD*%
D16*
%TO.N,GND*%
X145325000Y-105350000D03*
X152575000Y-116575000D03*
X147050000Y-116600000D03*
X138925000Y-111975000D03*
X140900000Y-97800000D03*
X135350000Y-88525000D03*
X145325000Y-85700000D03*
X144075000Y-116925000D03*
X139850000Y-113825000D03*
%TO.N,Net-(D5-K)*%
X156775000Y-101125000D03*
X160900000Y-101350000D03*
%TO.N,GND*%
X146175000Y-107350000D03*
X162275000Y-102475000D03*
X167925000Y-101325000D03*
X147800000Y-111250000D03*
X143625000Y-105350000D03*
X147050000Y-114000000D03*
X161875000Y-93125000D03*
X139825000Y-95675000D03*
X157725000Y-98350000D03*
X152050000Y-111260000D03*
X166350000Y-106470000D03*
X133500000Y-91525000D03*
X141625000Y-105075000D03*
X143000000Y-96000000D03*
X163775000Y-91200000D03*
X143825000Y-86300000D03*
X135950000Y-109625000D03*
X158820000Y-115290000D03*
X137900000Y-108350000D03*
X143025000Y-99400000D03*
X147950000Y-98925000D03*
X139825000Y-93650000D03*
X136927500Y-108300000D03*
X159030000Y-113430000D03*
X160225000Y-104700000D03*
X136975000Y-96375000D03*
X161950000Y-112750000D03*
X151175000Y-85110000D03*
X161725000Y-105625000D03*
X156950000Y-107300000D03*
X143550000Y-110250000D03*
X153950000Y-102300000D03*
X161925000Y-109750000D03*
X162775000Y-87075000D03*
X146175000Y-102625000D03*
X155800000Y-100475000D03*
X153030000Y-106760000D03*
X140890000Y-83750000D03*
X160150000Y-89000000D03*
X142475000Y-92350000D03*
X165150000Y-93225000D03*
X137125000Y-109625000D03*
X141375000Y-111875000D03*
X136000000Y-111450000D03*
X155450000Y-97125000D03*
X165420000Y-90380000D03*
X137575000Y-105100000D03*
X158225000Y-100300000D03*
X145400000Y-81975000D03*
X136000000Y-95675000D03*
X139825000Y-107575000D03*
X135475000Y-93125000D03*
X137900000Y-85825000D03*
X159610000Y-91370000D03*
X143275000Y-103400000D03*
X164250000Y-103625000D03*
X159690000Y-111860000D03*
X164810000Y-109410000D03*
X133775000Y-96800000D03*
X145625000Y-96500000D03*
X140775000Y-109700000D03*
X148500000Y-84925000D03*
X149775000Y-117775000D03*
X153825000Y-98975000D03*
X156525000Y-98175000D03*
X135975000Y-107575000D03*
X155840000Y-116570000D03*
X160425000Y-84925000D03*
X159825000Y-108650000D03*
X166330000Y-104750000D03*
X153310000Y-111320000D03*
X135022500Y-94967200D03*
X142240000Y-97310000D03*
X142525000Y-90750000D03*
X140950000Y-96425000D03*
X160370000Y-107260000D03*
X144075000Y-111950000D03*
X141300000Y-115800000D03*
X151375000Y-102375000D03*
X149090000Y-83380000D03*
X152550000Y-114000000D03*
X139875000Y-90600000D03*
X149550000Y-101475000D03*
X152375000Y-84850000D03*
X145650000Y-100175000D03*
X140777500Y-108282800D03*
X149800000Y-99600000D03*
X142000000Y-106800000D03*
X138872500Y-94967200D03*
X140475000Y-86750000D03*
X146675000Y-96050000D03*
%TO.N,Net-(IC1-VDD_1)*%
X144000000Y-89890000D03*
X158450000Y-87475000D03*
X152700000Y-100725000D03*
X150670000Y-91180000D03*
X148390000Y-93170000D03*
X153650000Y-85375000D03*
X160875000Y-88050000D03*
X148200000Y-97325000D03*
X150710000Y-97330000D03*
%TO.N,Net-(IC1-DECA)*%
X154275000Y-96325000D03*
X160975000Y-90175000D03*
X158720000Y-95225000D03*
X152450000Y-83560000D03*
%TO.N,Net-(IC1-DECD)*%
X160310000Y-86190000D03*
X155425000Y-83560000D03*
%TO.N,Net-(IC1-NRESET)*%
X151650000Y-95225000D03*
X146275000Y-86600000D03*
%TO.N,Net-(IC1-P1.08{slash}CLK16M{slash}TAMPC)*%
X145612500Y-92562500D03*
X159425000Y-106525000D03*
X154300000Y-86425000D03*
X147787500Y-90587500D03*
%TO.N,Net-(D2-K)*%
X139825000Y-97050000D03*
X133875000Y-100750000D03*
%TO.N,Net-(D3-K)*%
X133875000Y-102550000D03*
X139825000Y-106200000D03*
%TO.N,Net-(IC1-P2.05{slash}SPI.CS)*%
X141395000Y-89785000D03*
X139700000Y-88585000D03*
%TO.N,Net-(IC1-P2.06{slash}TRACECLK{slash}SPI.SCK)*%
X158700000Y-105675000D03*
X145650000Y-89890000D03*
%TO.N,Net-(IC1-P2.04{slash}SPI.SDI{slash}SDO)*%
X142070000Y-88910000D03*
X140500000Y-87650000D03*
%TO.N,Net-(IC1-P2.00{slash}SPI.DCX)*%
X148860000Y-90750000D03*
X150875000Y-86800000D03*
%TO.N,Net-(IC1-P2.07{slash}TRACEDATA[0]{slash}SWO{slash}SPI.DCX)*%
X156975000Y-103625000D03*
X145650000Y-91515000D03*
%TO.N,Net-(IC1-SWDIO)*%
X151725000Y-93325000D03*
%TO.N,Net-(IC1-P2.01{slash}SPI.SCK)*%
X151475000Y-87425000D03*
X149810000Y-90750000D03*
X148210000Y-91990000D03*
%TO.N,Net-(IC1-P0.00)*%
X150675000Y-96300000D03*
X147100000Y-99675000D03*
%TO.N,Net-(IC1-SWDCLK)*%
X151425000Y-94275000D03*
%TO.N,Net-(J2-Pad06)*%
X146275000Y-84950000D03*
%TD*%
D17*
%TO.N,Net-(D5-K)*%
X157000000Y-101350000D02*
X156775000Y-101125000D01*
X160900000Y-101350000D02*
X157000000Y-101350000D01*
D18*
%TO.N,GND*%
X147901000Y-95699000D02*
X147650000Y-95950000D01*
X151675057Y-96100000D02*
X151274057Y-95699000D01*
X151900000Y-96100000D02*
X151675057Y-96100000D01*
D17*
X144850000Y-90325000D02*
X144850000Y-89450000D01*
D18*
X151274057Y-95699000D02*
X147901000Y-95699000D01*
%TO.N,Net-(IC1-VDD_1)*%
X149070000Y-93170000D02*
X148390000Y-93170000D01*
X150670000Y-91180000D02*
X150670000Y-89405000D01*
X148205000Y-97330000D02*
X148200000Y-97325000D01*
X150710000Y-97330000D02*
X148205000Y-97330000D01*
X157252000Y-85452000D02*
X158450000Y-86650000D01*
X152700000Y-100725000D02*
X151550000Y-100725000D01*
X154601000Y-87026000D02*
X156175000Y-85452000D01*
X151550000Y-100725000D02*
X150710000Y-99885000D01*
X156175000Y-85452000D02*
X157252000Y-85452000D01*
X158450000Y-86650000D02*
X158450000Y-87475000D01*
X153727000Y-85452000D02*
X156175000Y-85452000D01*
X150670000Y-91570000D02*
X149070000Y-93170000D01*
X141910000Y-85625000D02*
X141910000Y-86885000D01*
X150710000Y-99885000D02*
X150710000Y-97330000D01*
X160875000Y-88050000D02*
X160300000Y-87475000D01*
X160300000Y-87475000D02*
X158450000Y-87475000D01*
X144000000Y-88975000D02*
X144000000Y-89890000D01*
X150670000Y-91180000D02*
X150670000Y-91570000D01*
X150670000Y-89405000D02*
X153049000Y-87026000D01*
X153650000Y-85375000D02*
X153727000Y-85452000D01*
X153049000Y-87026000D02*
X154601000Y-87026000D01*
X141910000Y-86885000D02*
X144000000Y-88975000D01*
%TO.N,Net-(IC1-DECA)*%
X160975000Y-90175000D02*
X162050000Y-89100000D01*
X152450000Y-83560000D02*
X152810000Y-83560000D01*
X152810000Y-83560000D02*
X154301000Y-85051000D01*
X158565000Y-85566000D02*
X158050000Y-85051000D01*
X155275000Y-95225000D02*
X154275000Y-96225000D01*
X154275000Y-96225000D02*
X154275000Y-96325000D01*
X158720000Y-95225000D02*
X158860000Y-95225000D01*
X162100000Y-87700000D02*
X161445000Y-87045000D01*
X162100000Y-89100000D02*
X162100000Y-87700000D01*
X160975000Y-92970000D02*
X160975000Y-90175000D01*
X154301000Y-85051000D02*
X158050000Y-85051000D01*
X158720000Y-95225000D02*
X160975000Y-92970000D01*
X162050000Y-89100000D02*
X162100000Y-89100000D01*
X158576000Y-85566000D02*
X158565000Y-85566000D01*
X158576000Y-85566000D02*
X160055000Y-87045000D01*
X161445000Y-87045000D02*
X160055000Y-87045000D01*
X158720000Y-95225000D02*
X155275000Y-95225000D01*
%TO.N,Net-(IC1-DECD)*%
X155425000Y-83575000D02*
X156500000Y-84650000D01*
X155425000Y-83560000D02*
X155425000Y-83575000D01*
X158770000Y-84650000D02*
X160310000Y-86190000D01*
X156500000Y-84650000D02*
X158770000Y-84650000D01*
%TO.N,Net-(IC1-NRESET)*%
X146275000Y-93900000D02*
X146275000Y-86600000D01*
X147600000Y-95225000D02*
X146275000Y-93900000D01*
X151650000Y-95225000D02*
X147600000Y-95225000D01*
%TO.N,Net-(IC1-P1.08{slash}CLK16M{slash}TAMPC)*%
X153975000Y-86100000D02*
X154300000Y-86425000D01*
X156650000Y-102900000D02*
X155626000Y-103924000D01*
X146216100Y-103924000D02*
X144726000Y-102433900D01*
X148200000Y-90175000D02*
X148200000Y-88575000D01*
X150675000Y-86100000D02*
X153975000Y-86100000D01*
X157300000Y-102900000D02*
X156650000Y-102900000D01*
X144726000Y-93449000D02*
X145612500Y-92562500D01*
X147787500Y-90587500D02*
X148200000Y-90175000D01*
X159425000Y-106525000D02*
X159425000Y-105025000D01*
X159425000Y-105025000D02*
X157300000Y-102900000D01*
X144726000Y-102433900D02*
X144726000Y-93449000D01*
X148200000Y-88575000D02*
X150675000Y-86100000D01*
X155626000Y-103924000D02*
X146216100Y-103924000D01*
D17*
%TO.N,Net-(D2-K)*%
X137575000Y-97050000D02*
X139825000Y-97050000D01*
X133875000Y-100750000D02*
X137575000Y-97050000D01*
%TO.N,Net-(D3-K)*%
X137525000Y-106200000D02*
X139825000Y-106200000D01*
X133875000Y-102550000D02*
X137525000Y-106200000D01*
D18*
%TO.N,Net-(IC1-P2.05{slash}SPI.CS)*%
X140195000Y-88585000D02*
X141395000Y-89785000D01*
X139700000Y-88585000D02*
X140195000Y-88585000D01*
%TO.N,Net-(IC1-P2.06{slash}TRACECLK{slash}SPI.SCK)*%
X145883900Y-104726000D02*
X143924000Y-102766100D01*
X156901000Y-104726000D02*
X145883900Y-104726000D01*
X145650000Y-90599000D02*
X143924000Y-92325000D01*
X145650000Y-89890000D02*
X145650000Y-90599000D01*
X158700000Y-105675000D02*
X157850000Y-105675000D01*
X143924000Y-102766100D02*
X143924000Y-92325000D01*
X157850000Y-105675000D02*
X156901000Y-104726000D01*
%TO.N,Net-(IC1-P2.04{slash}SPI.SDI{slash}SDO)*%
X140500000Y-87650000D02*
X140510000Y-87660000D01*
X140820000Y-87660000D02*
X142070000Y-88910000D01*
X140510000Y-87660000D02*
X140820000Y-87660000D01*
%TO.N,Net-(IC1-P2.00{slash}SPI.DCX)*%
X148860000Y-90750000D02*
X148860000Y-88835000D01*
X150875000Y-86800000D02*
X150875000Y-86820000D01*
X150875000Y-86820000D02*
X148860000Y-88835000D01*
%TO.N,Net-(IC1-P2.07{slash}TRACEDATA[0]{slash}SWO{slash}SPI.DCX)*%
X156975000Y-103625000D02*
X156275000Y-104325000D01*
X145650000Y-91515000D02*
X144325000Y-92840000D01*
X156275000Y-104325000D02*
X146050000Y-104325000D01*
X146050000Y-104325000D02*
X144325000Y-102600000D01*
X144325000Y-102600000D02*
X144325000Y-92840000D01*
%TO.N,Net-(IC1-SWDIO)*%
X147651000Y-87099000D02*
X147651000Y-84533900D01*
X145451000Y-82874000D02*
X145450000Y-82875000D01*
X151332900Y-93325000D02*
X150234900Y-94423000D01*
X147077000Y-93533900D02*
X147077000Y-87673000D01*
X147651000Y-84533900D02*
X145991100Y-82874000D01*
X147077000Y-87673000D02*
X147651000Y-87099000D01*
X150234900Y-94423000D02*
X147966100Y-94423000D01*
X147966100Y-94423000D02*
X147077000Y-93533900D01*
X151725000Y-93325000D02*
X151332900Y-93325000D01*
X145991100Y-82874000D02*
X145451000Y-82874000D01*
X145450000Y-82875000D02*
X143390000Y-82875000D01*
X143390000Y-82875000D02*
X141910000Y-84355000D01*
%TO.N,Net-(IC1-P2.01{slash}SPI.SCK)*%
X149810000Y-91130000D02*
X148950000Y-91990000D01*
X149810000Y-90750000D02*
X149810000Y-91130000D01*
X148950000Y-91990000D02*
X148210000Y-91990000D01*
X149800000Y-90740000D02*
X149800000Y-89100000D01*
X149810000Y-90750000D02*
X149800000Y-90740000D01*
X149800000Y-89100000D02*
X151475000Y-87425000D01*
%TO.N,Net-(IC1-P0.00)*%
X150325000Y-96650000D02*
X147825000Y-96650000D01*
X147100000Y-97375000D02*
X147100000Y-99675000D01*
X147825000Y-96650000D02*
X147100000Y-97375000D01*
X150675000Y-96300000D02*
X150325000Y-96650000D01*
%TO.N,Net-(IC1-SWDCLK)*%
X151425000Y-94275000D02*
X150950000Y-94275000D01*
X145825000Y-83275000D02*
X144260000Y-83275000D01*
X147800000Y-94824000D02*
X146676000Y-93700000D01*
X150401000Y-94824000D02*
X147800000Y-94824000D01*
X146676000Y-87249000D02*
X147250000Y-86675000D01*
X147250000Y-86675000D02*
X147250000Y-84700000D01*
X144260000Y-83275000D02*
X143180000Y-84355000D01*
X146676000Y-93700000D02*
X146676000Y-87249000D01*
X150950000Y-94275000D02*
X150401000Y-94824000D01*
X147250000Y-84700000D02*
X145825000Y-83275000D01*
%TO.N,Net-(J2-Pad06)*%
X144450000Y-84355000D02*
X145680000Y-84355000D01*
X145680000Y-84355000D02*
X146275000Y-84950000D01*
%TD*%
%TA.AperFunction,Conductor*%
%TO.N,GND*%
G36*
X150206309Y-81105581D02*
G01*
X151056597Y-81144892D01*
X151062308Y-81145288D01*
X151909861Y-81223825D01*
X151915517Y-81224481D01*
X152758560Y-81342081D01*
X152764202Y-81343002D01*
X153600908Y-81499409D01*
X153606511Y-81500591D01*
X154435103Y-81695474D01*
X154440588Y-81696899D01*
X155259290Y-81929840D01*
X155264763Y-81931534D01*
X156071843Y-82202040D01*
X156077206Y-82203977D01*
X156870932Y-82511470D01*
X156876195Y-82513649D01*
X157654913Y-82857486D01*
X157660011Y-82859879D01*
X158101026Y-83079479D01*
X158421991Y-83239301D01*
X158427058Y-83241972D01*
X158742129Y-83417465D01*
X159170658Y-83656154D01*
X159172162Y-83657683D01*
X159175595Y-83659055D01*
X159899312Y-84107161D01*
X159904069Y-84110261D01*
X160606325Y-84591317D01*
X160610955Y-84594649D01*
X161260415Y-85085098D01*
X161290223Y-85107608D01*
X161294708Y-85111161D01*
X161613039Y-85375500D01*
X161949547Y-85654933D01*
X161953868Y-85658693D01*
X162150860Y-85838275D01*
X162541300Y-86194208D01*
X162582899Y-86232130D01*
X162587042Y-86236086D01*
X163188913Y-86837957D01*
X163192869Y-86842100D01*
X163766306Y-87471131D01*
X163770066Y-87475452D01*
X164313834Y-88130286D01*
X164317391Y-88134776D01*
X164820699Y-88801264D01*
X164830343Y-88814034D01*
X164833687Y-88818682D01*
X165311371Y-89516015D01*
X165314724Y-89520909D01*
X165317844Y-89525698D01*
X165527216Y-89863844D01*
X165765943Y-90249402D01*
X165768845Y-90254341D01*
X166183027Y-90997941D01*
X166185698Y-91003008D01*
X166462639Y-91559179D01*
X166538218Y-91710963D01*
X166565107Y-91764962D01*
X166567522Y-91770105D01*
X166911338Y-92548775D01*
X166913529Y-92554067D01*
X167221022Y-93347793D01*
X167222968Y-93353181D01*
X167493465Y-94160237D01*
X167495159Y-94165708D01*
X167524468Y-94268716D01*
X167592689Y-94508489D01*
X167594468Y-94514739D01*
X167593882Y-94584607D01*
X167555615Y-94643065D01*
X167491818Y-94671556D01*
X167475202Y-94672674D01*
X160675000Y-94672674D01*
X160675000Y-100493889D01*
X160669367Y-100513070D01*
X160668654Y-100533048D01*
X160659725Y-100545907D01*
X160655315Y-100560928D01*
X160640208Y-100574017D01*
X160628806Y-100590441D01*
X160604856Y-100604650D01*
X160602511Y-100606683D01*
X160598453Y-100608450D01*
X160522137Y-100640061D01*
X160474684Y-100649500D01*
X157482941Y-100649500D01*
X157415902Y-100629815D01*
X157395260Y-100613181D01*
X157285292Y-100503213D01*
X157285288Y-100503210D01*
X157154185Y-100415609D01*
X157154172Y-100415602D01*
X157008501Y-100355264D01*
X157008489Y-100355261D01*
X156853845Y-100324500D01*
X156853842Y-100324500D01*
X156696158Y-100324500D01*
X156696155Y-100324500D01*
X156541510Y-100355261D01*
X156541498Y-100355264D01*
X156395827Y-100415602D01*
X156395814Y-100415609D01*
X156264711Y-100503210D01*
X156264707Y-100503213D01*
X156153213Y-100614707D01*
X156153210Y-100614711D01*
X156065609Y-100745814D01*
X156065602Y-100745827D01*
X156005264Y-100891498D01*
X156005261Y-100891510D01*
X155974500Y-101046153D01*
X155974500Y-101203846D01*
X156005261Y-101358489D01*
X156005264Y-101358501D01*
X156065602Y-101504172D01*
X156065609Y-101504185D01*
X156153210Y-101635288D01*
X156153213Y-101635292D01*
X156264707Y-101746786D01*
X156264711Y-101746789D01*
X156395814Y-101834390D01*
X156395823Y-101834395D01*
X156410818Y-101840606D01*
X156541503Y-101894737D01*
X156541507Y-101894737D01*
X156547332Y-101896505D01*
X156546824Y-101898179D01*
X156580361Y-101912091D01*
X156668182Y-101970771D01*
X156668195Y-101970778D01*
X156795667Y-102023578D01*
X156795672Y-102023580D01*
X156795676Y-102023580D01*
X156795677Y-102023581D01*
X156931003Y-102050500D01*
X156931006Y-102050500D01*
X156931007Y-102050500D01*
X159650500Y-102050500D01*
X159717539Y-102070185D01*
X159763294Y-102122989D01*
X159774500Y-102174500D01*
X159774500Y-103222870D01*
X159774501Y-103222876D01*
X159780908Y-103282483D01*
X159831202Y-103417328D01*
X159831206Y-103417335D01*
X159917452Y-103532544D01*
X159917455Y-103532547D01*
X160032664Y-103618793D01*
X160032671Y-103618797D01*
X160167517Y-103669091D01*
X160167516Y-103669091D01*
X160174444Y-103669835D01*
X160227127Y-103675500D01*
X161322872Y-103675499D01*
X161382483Y-103669091D01*
X161517331Y-103618796D01*
X161632546Y-103532546D01*
X161718796Y-103417331D01*
X161769091Y-103282483D01*
X161775500Y-103222873D01*
X161775499Y-102127135D01*
X165299500Y-102127135D01*
X165299500Y-103222870D01*
X165299501Y-103222876D01*
X165305908Y-103282483D01*
X165356202Y-103417328D01*
X165356206Y-103417335D01*
X165442452Y-103532544D01*
X165442455Y-103532547D01*
X165557664Y-103618793D01*
X165557671Y-103618797D01*
X165692517Y-103669091D01*
X165692516Y-103669091D01*
X165699444Y-103669835D01*
X165752127Y-103675500D01*
X166847872Y-103675499D01*
X166907483Y-103669091D01*
X167042331Y-103618796D01*
X167157546Y-103532546D01*
X167243796Y-103417331D01*
X167294091Y-103282483D01*
X167300500Y-103222873D01*
X167300499Y-102127128D01*
X167294091Y-102067517D01*
X167243796Y-101932669D01*
X167243795Y-101932668D01*
X167243793Y-101932664D01*
X167157547Y-101817455D01*
X167157544Y-101817452D01*
X167042335Y-101731206D01*
X167042328Y-101731202D01*
X166907482Y-101680908D01*
X166907483Y-101680908D01*
X166847883Y-101674501D01*
X166847881Y-101674500D01*
X166847873Y-101674500D01*
X166847864Y-101674500D01*
X165752129Y-101674500D01*
X165752123Y-101674501D01*
X165692516Y-101680908D01*
X165557671Y-101731202D01*
X165557664Y-101731206D01*
X165442455Y-101817452D01*
X165442452Y-101817455D01*
X165356206Y-101932664D01*
X165356202Y-101932671D01*
X165305908Y-102067517D01*
X165299945Y-102122989D01*
X165299501Y-102127123D01*
X165299500Y-102127135D01*
X161775499Y-102127135D01*
X161775499Y-102127128D01*
X161769091Y-102067517D01*
X161718796Y-101932669D01*
X161718795Y-101932668D01*
X161718793Y-101932664D01*
X161636418Y-101822626D01*
X161612000Y-101757162D01*
X161621123Y-101700863D01*
X161669735Y-101583501D01*
X161669737Y-101583497D01*
X161700500Y-101428842D01*
X161700500Y-101271158D01*
X161700500Y-101271155D01*
X161700499Y-101271153D01*
X161680551Y-101170865D01*
X161686778Y-101101274D01*
X161729641Y-101046096D01*
X161795531Y-101022852D01*
X161802168Y-101022674D01*
X168135780Y-101022674D01*
X168202819Y-101042359D01*
X168248574Y-101095163D01*
X168259250Y-101158113D01*
X168240683Y-101358489D01*
X168201175Y-101784846D01*
X168200515Y-101790537D01*
X168082919Y-102633549D01*
X168081997Y-102639202D01*
X167925590Y-103475908D01*
X167924407Y-103481513D01*
X167729532Y-104310073D01*
X167728092Y-104315617D01*
X167495159Y-105134290D01*
X167493465Y-105139762D01*
X167222968Y-105946818D01*
X167221022Y-105952206D01*
X166913529Y-106745932D01*
X166911338Y-106751224D01*
X166843805Y-106904172D01*
X166567529Y-107529877D01*
X166565107Y-107535037D01*
X166185698Y-108296991D01*
X166183027Y-108302058D01*
X165768845Y-109045658D01*
X165765943Y-109050597D01*
X165317851Y-109774291D01*
X165314724Y-109779090D01*
X164833689Y-110481315D01*
X164830343Y-110485965D01*
X164317391Y-111165223D01*
X164313834Y-111169713D01*
X163770066Y-111824547D01*
X163766306Y-111828868D01*
X163192869Y-112457899D01*
X163188913Y-112462042D01*
X162587042Y-113063913D01*
X162582899Y-113067869D01*
X161953868Y-113641306D01*
X161949547Y-113645066D01*
X161294713Y-114188834D01*
X161290223Y-114192391D01*
X160610965Y-114705343D01*
X160606315Y-114708689D01*
X159904090Y-115189724D01*
X159899291Y-115192851D01*
X159175597Y-115640943D01*
X159170658Y-115643845D01*
X158427058Y-116058027D01*
X158421991Y-116060698D01*
X157660037Y-116440107D01*
X157654877Y-116442529D01*
X157048257Y-116710377D01*
X156876224Y-116786338D01*
X156870932Y-116788529D01*
X156077206Y-117096022D01*
X156071818Y-117097968D01*
X155264763Y-117368465D01*
X155259295Y-117370158D01*
X155253465Y-117371817D01*
X155183598Y-117371233D01*
X155125138Y-117332968D01*
X155096646Y-117269172D01*
X155104966Y-117205099D01*
X155111848Y-117188485D01*
X155125130Y-117156420D01*
X155165500Y-116953465D01*
X155165500Y-116146535D01*
X155125130Y-115943580D01*
X155045941Y-115752402D01*
X154930977Y-115580345D01*
X154930975Y-115580342D01*
X154784657Y-115434024D01*
X154698626Y-115376541D01*
X154612598Y-115319059D01*
X154421420Y-115239870D01*
X154421412Y-115239868D01*
X154218469Y-115199500D01*
X154218465Y-115199500D01*
X154011535Y-115199500D01*
X154011530Y-115199500D01*
X153808587Y-115239868D01*
X153808579Y-115239870D01*
X153617403Y-115319058D01*
X153445342Y-115434024D01*
X153299024Y-115580342D01*
X153184058Y-115752403D01*
X153104870Y-115943579D01*
X153104868Y-115943587D01*
X153064500Y-116146530D01*
X153064500Y-116953469D01*
X153104868Y-117156412D01*
X153104870Y-117156420D01*
X153164761Y-117301010D01*
X153184059Y-117347598D01*
X153200242Y-117371817D01*
X153299024Y-117519657D01*
X153416913Y-117637546D01*
X153450398Y-117698869D01*
X153445414Y-117768561D01*
X153403542Y-117824494D01*
X153352017Y-117847116D01*
X152764202Y-117956997D01*
X152758549Y-117957919D01*
X151915537Y-118075515D01*
X151909846Y-118076175D01*
X151062309Y-118154710D01*
X151056595Y-118155107D01*
X150206309Y-118194419D01*
X150200582Y-118194551D01*
X149349418Y-118194551D01*
X149343691Y-118194419D01*
X148493404Y-118155107D01*
X148487690Y-118154710D01*
X147640153Y-118076175D01*
X147634462Y-118075515D01*
X146791450Y-117957919D01*
X146785797Y-117956997D01*
X146231682Y-117853416D01*
X146169401Y-117821748D01*
X146134128Y-117761436D01*
X146137062Y-117691628D01*
X146166784Y-117643847D01*
X146290977Y-117519655D01*
X146405941Y-117347598D01*
X146485130Y-117156420D01*
X146525500Y-116953465D01*
X146525500Y-116146535D01*
X146485130Y-115943580D01*
X146405941Y-115752402D01*
X146290977Y-115580345D01*
X146290975Y-115580342D01*
X146144657Y-115434024D01*
X146058626Y-115376541D01*
X145972598Y-115319059D01*
X145781420Y-115239870D01*
X145781412Y-115239868D01*
X145578469Y-115199500D01*
X145578465Y-115199500D01*
X145371535Y-115199500D01*
X145371530Y-115199500D01*
X145168587Y-115239868D01*
X145168579Y-115239870D01*
X144977403Y-115319058D01*
X144805342Y-115434024D01*
X144659024Y-115580342D01*
X144544058Y-115752403D01*
X144464870Y-115943579D01*
X144464868Y-115943587D01*
X144424500Y-116146530D01*
X144424500Y-116953469D01*
X144464868Y-117156412D01*
X144464871Y-117156424D01*
X144490377Y-117218001D01*
X144491995Y-117233055D01*
X144498401Y-117246775D01*
X144495654Y-117267087D01*
X144497846Y-117287470D01*
X144491067Y-117301010D01*
X144489039Y-117316015D01*
X144475745Y-117331619D01*
X144466570Y-117349949D01*
X144453549Y-117357674D01*
X144443730Y-117369201D01*
X144424108Y-117375142D01*
X144406481Y-117385601D01*
X144390295Y-117385380D01*
X144376858Y-117389449D01*
X144341884Y-117384720D01*
X144290684Y-117370152D01*
X144285236Y-117368465D01*
X143478181Y-117097968D01*
X143472793Y-117096022D01*
X142679067Y-116788529D01*
X142673783Y-116786341D01*
X141895105Y-116442522D01*
X141889962Y-116440107D01*
X141745017Y-116367933D01*
X141703459Y-116347239D01*
X141128008Y-116060698D01*
X141122941Y-116058027D01*
X140379341Y-115643845D01*
X140374402Y-115640943D01*
X140040216Y-115434024D01*
X139650698Y-115192844D01*
X139645920Y-115189731D01*
X138943682Y-114708687D01*
X138939034Y-114705343D01*
X138259776Y-114192391D01*
X138255286Y-114188834D01*
X137600452Y-113645066D01*
X137596131Y-113641306D01*
X136967100Y-113067869D01*
X136962957Y-113063913D01*
X136361086Y-112462042D01*
X136357151Y-112457922D01*
X136255607Y-112346534D01*
X136255603Y-112346530D01*
X144424500Y-112346530D01*
X144424500Y-113153469D01*
X144464868Y-113356412D01*
X144464870Y-113356420D01*
X144544058Y-113547596D01*
X144659024Y-113719657D01*
X144805342Y-113865975D01*
X144805345Y-113865977D01*
X144977402Y-113980941D01*
X145168580Y-114060130D01*
X145371530Y-114100499D01*
X145371534Y-114100500D01*
X145371535Y-114100500D01*
X145578466Y-114100500D01*
X145578467Y-114100499D01*
X145781420Y-114060130D01*
X145972598Y-113980941D01*
X146144655Y-113865977D01*
X146290977Y-113719655D01*
X146405941Y-113547598D01*
X146485130Y-113356420D01*
X146525500Y-113153465D01*
X146525500Y-112346535D01*
X146525499Y-112346530D01*
X153064500Y-112346530D01*
X153064500Y-113153469D01*
X153104868Y-113356412D01*
X153104870Y-113356420D01*
X153184058Y-113547596D01*
X153299024Y-113719657D01*
X153445342Y-113865975D01*
X153445345Y-113865977D01*
X153617402Y-113980941D01*
X153808580Y-114060130D01*
X154011530Y-114100499D01*
X154011534Y-114100500D01*
X154011535Y-114100500D01*
X154218466Y-114100500D01*
X154218467Y-114100499D01*
X154421420Y-114060130D01*
X154612598Y-113980941D01*
X154784655Y-113865977D01*
X154930977Y-113719655D01*
X155045941Y-113547598D01*
X155125130Y-113356420D01*
X155165500Y-113153465D01*
X155165500Y-112346535D01*
X155125130Y-112143580D01*
X155045941Y-111952402D01*
X154930977Y-111780345D01*
X154930975Y-111780342D01*
X154784657Y-111634024D01*
X154696320Y-111575000D01*
X154612598Y-111519059D01*
X154590882Y-111510064D01*
X154421420Y-111439870D01*
X154421412Y-111439868D01*
X154218469Y-111399500D01*
X154218465Y-111399500D01*
X154011535Y-111399500D01*
X154011530Y-111399500D01*
X153808587Y-111439868D01*
X153808579Y-111439870D01*
X153617403Y-111519058D01*
X153445342Y-111634024D01*
X153299024Y-111780342D01*
X153184058Y-111952403D01*
X153104870Y-112143579D01*
X153104868Y-112143587D01*
X153064500Y-112346530D01*
X146525499Y-112346530D01*
X146485130Y-112143580D01*
X146405941Y-111952402D01*
X146290977Y-111780345D01*
X146290975Y-111780342D01*
X146144657Y-111634024D01*
X146056320Y-111575000D01*
X145972598Y-111519059D01*
X145950882Y-111510064D01*
X145781420Y-111439870D01*
X145781412Y-111439868D01*
X145578469Y-111399500D01*
X145578465Y-111399500D01*
X145371535Y-111399500D01*
X145371530Y-111399500D01*
X145168587Y-111439868D01*
X145168579Y-111439870D01*
X144977403Y-111519058D01*
X144805342Y-111634024D01*
X144659024Y-111780342D01*
X144544058Y-111952403D01*
X144464870Y-112143579D01*
X144464868Y-112143587D01*
X144424500Y-112346530D01*
X136255603Y-112346530D01*
X135783693Y-111828868D01*
X135779933Y-111824547D01*
X135743226Y-111780342D01*
X135236161Y-111169708D01*
X135232608Y-111165223D01*
X135201897Y-111124555D01*
X134882900Y-110702135D01*
X156049500Y-110702135D01*
X156049500Y-111797870D01*
X156049501Y-111797876D01*
X156055908Y-111857483D01*
X156106202Y-111992328D01*
X156106206Y-111992335D01*
X156192452Y-112107544D01*
X156192455Y-112107547D01*
X156307664Y-112193793D01*
X156307671Y-112193797D01*
X156442517Y-112244091D01*
X156442516Y-112244091D01*
X156449444Y-112244835D01*
X156502127Y-112250500D01*
X157597872Y-112250499D01*
X157657483Y-112244091D01*
X157792331Y-112193796D01*
X157907546Y-112107546D01*
X157993796Y-111992331D01*
X158044091Y-111857483D01*
X158050500Y-111797873D01*
X158050500Y-111797844D01*
X160950000Y-111797844D01*
X160956401Y-111857372D01*
X160956403Y-111857379D01*
X161006645Y-111992086D01*
X161006649Y-111992093D01*
X161092809Y-112107187D01*
X161092812Y-112107190D01*
X161207906Y-112193350D01*
X161207913Y-112193354D01*
X161342620Y-112243596D01*
X161342627Y-112243598D01*
X161402155Y-112249999D01*
X161402172Y-112250000D01*
X161700000Y-112250000D01*
X162200000Y-112250000D01*
X162497828Y-112250000D01*
X162497844Y-112249999D01*
X162557372Y-112243598D01*
X162557379Y-112243596D01*
X162692086Y-112193354D01*
X162692093Y-112193350D01*
X162807187Y-112107190D01*
X162807190Y-112107187D01*
X162893350Y-111992093D01*
X162893354Y-111992086D01*
X162943596Y-111857379D01*
X162943598Y-111857372D01*
X162949999Y-111797844D01*
X162950000Y-111797827D01*
X162950000Y-111500000D01*
X162200000Y-111500000D01*
X162200000Y-112250000D01*
X161700000Y-112250000D01*
X161700000Y-111500000D01*
X160950000Y-111500000D01*
X160950000Y-111797844D01*
X158050500Y-111797844D01*
X158050499Y-111213151D01*
X158050499Y-111207213D01*
X161625000Y-111207213D01*
X161625000Y-111292787D01*
X161647149Y-111375445D01*
X161689936Y-111449554D01*
X161750446Y-111510064D01*
X161824555Y-111552851D01*
X161907213Y-111575000D01*
X161992787Y-111575000D01*
X162075445Y-111552851D01*
X162149554Y-111510064D01*
X162210064Y-111449554D01*
X162252851Y-111375445D01*
X162275000Y-111292787D01*
X162275000Y-111207213D01*
X162252851Y-111124555D01*
X162210064Y-111050446D01*
X162159618Y-111000000D01*
X162200000Y-111000000D01*
X162950000Y-111000000D01*
X162950000Y-110702172D01*
X162949999Y-110702155D01*
X162943598Y-110642627D01*
X162943596Y-110642620D01*
X162893354Y-110507913D01*
X162893350Y-110507906D01*
X162807190Y-110392812D01*
X162807187Y-110392809D01*
X162692093Y-110306649D01*
X162692086Y-110306645D01*
X162557379Y-110256403D01*
X162557372Y-110256401D01*
X162497844Y-110250000D01*
X162200000Y-110250000D01*
X162200000Y-111000000D01*
X162159618Y-111000000D01*
X162149554Y-110989936D01*
X162075445Y-110947149D01*
X161992787Y-110925000D01*
X161907213Y-110925000D01*
X161824555Y-110947149D01*
X161750446Y-110989936D01*
X161689936Y-111050446D01*
X161647149Y-111124555D01*
X161625000Y-111207213D01*
X158050499Y-111207213D01*
X158050499Y-110702155D01*
X160950000Y-110702155D01*
X160950000Y-111000000D01*
X161700000Y-111000000D01*
X161700000Y-110250000D01*
X161402155Y-110250000D01*
X161342627Y-110256401D01*
X161342620Y-110256403D01*
X161207913Y-110306645D01*
X161207906Y-110306649D01*
X161092812Y-110392809D01*
X161092809Y-110392812D01*
X161006649Y-110507906D01*
X161006645Y-110507913D01*
X160956403Y-110642620D01*
X160956401Y-110642627D01*
X160950000Y-110702155D01*
X158050499Y-110702155D01*
X158050499Y-110702129D01*
X158050498Y-110702123D01*
X158050497Y-110702116D01*
X158044091Y-110642517D01*
X157993884Y-110507906D01*
X157993797Y-110507671D01*
X157993793Y-110507664D01*
X157907547Y-110392455D01*
X157907544Y-110392452D01*
X157792335Y-110306206D01*
X157792328Y-110306202D01*
X157657482Y-110255908D01*
X157657483Y-110255908D01*
X157597883Y-110249501D01*
X157597881Y-110249500D01*
X157597873Y-110249500D01*
X157597864Y-110249500D01*
X156502129Y-110249500D01*
X156502123Y-110249501D01*
X156442516Y-110255908D01*
X156307671Y-110306202D01*
X156307664Y-110306206D01*
X156192455Y-110392452D01*
X156192452Y-110392455D01*
X156106206Y-110507664D01*
X156106202Y-110507671D01*
X156055908Y-110642517D01*
X156049501Y-110702116D01*
X156049501Y-110702123D01*
X156049500Y-110702135D01*
X134882900Y-110702135D01*
X134719649Y-110485955D01*
X134716310Y-110481315D01*
X134655439Y-110392454D01*
X134235261Y-109779069D01*
X134232161Y-109774312D01*
X133784049Y-109050585D01*
X133781154Y-109045658D01*
X133366972Y-108302058D01*
X133364301Y-108296991D01*
X133276319Y-108120301D01*
X132984879Y-107535011D01*
X132982486Y-107529913D01*
X132638649Y-106751195D01*
X132636470Y-106745932D01*
X132328977Y-105952206D01*
X132327040Y-105946843D01*
X132056534Y-105139762D01*
X132054840Y-105134290D01*
X131983505Y-104883573D01*
X131821899Y-104315588D01*
X131820474Y-104310103D01*
X131625591Y-103481511D01*
X131624409Y-103475908D01*
X131577107Y-103222864D01*
X131468001Y-102639198D01*
X131467080Y-102633549D01*
X131466424Y-102628846D01*
X131349481Y-101790517D01*
X131348824Y-101784846D01*
X131348399Y-101780264D01*
X131270288Y-100937308D01*
X131269892Y-100931595D01*
X131268038Y-100891498D01*
X131257851Y-100671153D01*
X133074500Y-100671153D01*
X133074500Y-100828846D01*
X133105261Y-100983489D01*
X133105264Y-100983501D01*
X133165602Y-101129172D01*
X133165609Y-101129185D01*
X133253210Y-101260288D01*
X133253213Y-101260292D01*
X133364707Y-101371786D01*
X133364711Y-101371789D01*
X133495814Y-101459390D01*
X133495827Y-101459397D01*
X133641498Y-101519735D01*
X133641503Y-101519737D01*
X133641507Y-101519737D01*
X133641508Y-101519738D01*
X133684967Y-101528383D01*
X133746878Y-101560768D01*
X133781452Y-101621484D01*
X133777712Y-101691253D01*
X133736845Y-101747925D01*
X133684967Y-101771617D01*
X133641508Y-101780261D01*
X133641498Y-101780264D01*
X133495827Y-101840602D01*
X133495814Y-101840609D01*
X133364711Y-101928210D01*
X133364707Y-101928213D01*
X133253213Y-102039707D01*
X133253210Y-102039711D01*
X133165609Y-102170814D01*
X133165602Y-102170827D01*
X133105264Y-102316498D01*
X133105261Y-102316510D01*
X133074500Y-102471153D01*
X133074500Y-102628846D01*
X133105261Y-102783489D01*
X133105264Y-102783501D01*
X133165602Y-102929172D01*
X133165609Y-102929185D01*
X133253210Y-103060288D01*
X133253213Y-103060292D01*
X133364707Y-103171786D01*
X133364711Y-103171789D01*
X133495814Y-103259390D01*
X133495827Y-103259397D01*
X133640185Y-103319191D01*
X133680414Y-103346071D01*
X137078453Y-106744111D01*
X137078454Y-106744112D01*
X137193192Y-106820777D01*
X137320667Y-106873578D01*
X137320672Y-106873580D01*
X137320676Y-106873580D01*
X137320677Y-106873581D01*
X137456004Y-106900500D01*
X137456007Y-106900500D01*
X137593994Y-106900500D01*
X139399684Y-106900500D01*
X139447136Y-106909939D01*
X139591498Y-106969735D01*
X139591503Y-106969737D01*
X139746153Y-107000499D01*
X139746156Y-107000500D01*
X139746158Y-107000500D01*
X139903844Y-107000500D01*
X139903845Y-107000499D01*
X140058497Y-106969737D01*
X140204179Y-106909394D01*
X140335289Y-106821789D01*
X140446789Y-106710289D01*
X140534394Y-106579179D01*
X140594737Y-106433497D01*
X140625500Y-106278842D01*
X140625500Y-106121158D01*
X140625500Y-106121155D01*
X140625499Y-106121153D01*
X140604326Y-106014711D01*
X140594737Y-105966503D01*
X140582019Y-105935798D01*
X140534397Y-105820827D01*
X140534390Y-105820814D01*
X140446789Y-105689711D01*
X140446786Y-105689707D01*
X140335292Y-105578213D01*
X140335288Y-105578210D01*
X140204185Y-105490609D01*
X140204172Y-105490602D01*
X140058501Y-105430264D01*
X140058489Y-105430261D01*
X139903845Y-105399500D01*
X139903842Y-105399500D01*
X139746158Y-105399500D01*
X139746155Y-105399500D01*
X139591510Y-105430261D01*
X139591498Y-105430264D01*
X139447136Y-105490061D01*
X139399684Y-105499500D01*
X137866519Y-105499500D01*
X137799480Y-105479815D01*
X137778838Y-105463181D01*
X134671071Y-102355414D01*
X134644191Y-102315185D01*
X134584397Y-102170827D01*
X134584390Y-102170814D01*
X134496789Y-102039711D01*
X134496786Y-102039707D01*
X134385292Y-101928213D01*
X134385288Y-101928210D01*
X134254185Y-101840609D01*
X134254172Y-101840602D01*
X134108501Y-101780264D01*
X134108489Y-101780261D01*
X134065033Y-101771617D01*
X134003122Y-101739232D01*
X133968548Y-101678517D01*
X133972287Y-101608747D01*
X134013154Y-101552075D01*
X134065033Y-101528383D01*
X134082940Y-101524820D01*
X134108497Y-101519737D01*
X134254179Y-101459394D01*
X134385289Y-101371789D01*
X134496789Y-101260289D01*
X134584394Y-101129179D01*
X134584395Y-101129176D01*
X134584397Y-101129173D01*
X134644192Y-100984812D01*
X134671069Y-100944586D01*
X137828838Y-97786819D01*
X137890161Y-97753334D01*
X137916519Y-97750500D01*
X139399684Y-97750500D01*
X139447136Y-97759939D01*
X139512031Y-97786819D01*
X139591503Y-97819737D01*
X139707076Y-97842726D01*
X139746153Y-97850499D01*
X139746156Y-97850500D01*
X139746158Y-97850500D01*
X139903844Y-97850500D01*
X139903845Y-97850499D01*
X140058497Y-97819737D01*
X140204179Y-97759394D01*
X140335289Y-97671789D01*
X140446789Y-97560289D01*
X140534394Y-97429179D01*
X140594737Y-97283497D01*
X140625500Y-97128842D01*
X140625500Y-96971158D01*
X140625500Y-96971155D01*
X140625499Y-96971153D01*
X140620652Y-96946786D01*
X140594737Y-96816503D01*
X140548214Y-96704185D01*
X140534397Y-96670827D01*
X140534390Y-96670814D01*
X140446789Y-96539711D01*
X140446786Y-96539707D01*
X140335292Y-96428213D01*
X140335288Y-96428210D01*
X140204185Y-96340609D01*
X140204172Y-96340602D01*
X140058501Y-96280264D01*
X140058489Y-96280261D01*
X139903845Y-96249500D01*
X139903842Y-96249500D01*
X139746158Y-96249500D01*
X139746155Y-96249500D01*
X139591510Y-96280261D01*
X139591498Y-96280264D01*
X139447136Y-96340061D01*
X139399684Y-96349500D01*
X137506003Y-96349500D01*
X137397590Y-96371065D01*
X137397589Y-96371065D01*
X137370671Y-96376420D01*
X137243190Y-96429224D01*
X137128454Y-96505887D01*
X133680412Y-99953929D01*
X133640184Y-99980809D01*
X133495823Y-100040604D01*
X133495814Y-100040609D01*
X133364711Y-100128210D01*
X133364707Y-100128213D01*
X133253213Y-100239707D01*
X133253210Y-100239711D01*
X133165609Y-100370814D01*
X133165602Y-100370827D01*
X133105264Y-100516498D01*
X133105261Y-100516510D01*
X133074500Y-100671153D01*
X131257851Y-100671153D01*
X131230581Y-100081309D01*
X131230449Y-100075582D01*
X131230449Y-99224417D01*
X131230581Y-99218690D01*
X131269892Y-98368404D01*
X131270289Y-98362690D01*
X131295118Y-98094737D01*
X131348826Y-97515133D01*
X131349481Y-97509487D01*
X131467082Y-96666432D01*
X131468002Y-96660797D01*
X131487125Y-96558501D01*
X131624410Y-95824082D01*
X131625592Y-95818486D01*
X131626481Y-95814707D01*
X131820477Y-94989886D01*
X131821896Y-94984422D01*
X132054843Y-94165697D01*
X132056534Y-94160237D01*
X132327044Y-93353142D01*
X132328977Y-93347793D01*
X132332494Y-93338716D01*
X132385541Y-93201785D01*
X132636470Y-92554067D01*
X132638642Y-92548819D01*
X132982493Y-91770069D01*
X132984871Y-91765005D01*
X133364305Y-91002998D01*
X133366972Y-90997941D01*
X133502420Y-90754765D01*
X133781172Y-90254310D01*
X133784037Y-90249432D01*
X134232174Y-89525667D01*
X134235248Y-89520950D01*
X134716331Y-88818653D01*
X134719634Y-88814064D01*
X135232628Y-88134749D01*
X135236144Y-88130312D01*
X135779950Y-87475431D01*
X135783674Y-87471152D01*
X136357150Y-86842078D01*
X136361064Y-86837979D01*
X136962979Y-86236064D01*
X136967078Y-86232150D01*
X137596152Y-85658674D01*
X137600431Y-85654950D01*
X138255312Y-85111144D01*
X138259749Y-85107628D01*
X138939064Y-84594634D01*
X138943653Y-84591331D01*
X139645950Y-84110248D01*
X139650667Y-84107174D01*
X140374432Y-83659037D01*
X140379310Y-83656172D01*
X141122950Y-83241967D01*
X141127998Y-83239305D01*
X141890005Y-82859871D01*
X141895069Y-82857493D01*
X142475814Y-82601070D01*
X142545087Y-82592000D01*
X142608272Y-82621824D01*
X142645303Y-82681073D01*
X142644422Y-82750937D01*
X142613576Y-82802187D01*
X141641882Y-83773881D01*
X141616365Y-83792808D01*
X141616410Y-83792875D01*
X141615049Y-83793784D01*
X141612666Y-83795552D01*
X141611352Y-83796254D01*
X141508077Y-83865259D01*
X141420260Y-83953076D01*
X141420257Y-83953080D01*
X141351261Y-84056339D01*
X141351256Y-84056349D01*
X141303730Y-84171087D01*
X141303727Y-84171097D01*
X141279500Y-84292896D01*
X141279500Y-84417103D01*
X141303727Y-84538902D01*
X141303730Y-84538912D01*
X141351256Y-84653650D01*
X141351261Y-84653660D01*
X141420257Y-84756919D01*
X141420260Y-84756923D01*
X141446653Y-84783316D01*
X141480138Y-84844639D01*
X141475154Y-84914331D01*
X141433282Y-84970264D01*
X141375921Y-84992539D01*
X141376075Y-84993313D01*
X141371677Y-84994187D01*
X141371133Y-84994399D01*
X141370104Y-84994500D01*
X141340787Y-85000330D01*
X141307542Y-85022542D01*
X141285332Y-85055785D01*
X141285329Y-85055791D01*
X141279500Y-85085098D01*
X141279500Y-86164894D01*
X141279501Y-86164902D01*
X141285330Y-86194208D01*
X141285331Y-86194213D01*
X141288603Y-86199110D01*
X141309480Y-86265786D01*
X141309500Y-86267999D01*
X141309500Y-86805939D01*
X141309499Y-86805943D01*
X141309499Y-86964057D01*
X141323082Y-87014751D01*
X141324364Y-87035525D01*
X141321562Y-87047819D01*
X141320747Y-87082089D01*
X141310207Y-87097662D01*
X141308843Y-87103649D01*
X141300850Y-87111485D01*
X141281585Y-87139952D01*
X141264252Y-87147373D01*
X141258956Y-87152568D01*
X141245713Y-87155312D01*
X141217356Y-87167456D01*
X141200668Y-87164649D01*
X141190541Y-87166749D01*
X141172941Y-87159987D01*
X141148454Y-87155870D01*
X141140654Y-87151731D01*
X141138618Y-87150556D01*
X141128814Y-87143035D01*
X141125319Y-87141692D01*
X141123073Y-87138630D01*
X141112918Y-87130839D01*
X141010292Y-87028213D01*
X141010288Y-87028210D01*
X140879185Y-86940609D01*
X140879172Y-86940602D01*
X140733501Y-86880264D01*
X140733489Y-86880261D01*
X140578845Y-86849500D01*
X140578842Y-86849500D01*
X140421158Y-86849500D01*
X140421155Y-86849500D01*
X140266510Y-86880261D01*
X140266498Y-86880264D01*
X140120827Y-86940602D01*
X140120814Y-86940609D01*
X139989711Y-87028210D01*
X139989707Y-87028213D01*
X139878213Y-87139707D01*
X139878210Y-87139711D01*
X139790609Y-87270814D01*
X139790602Y-87270827D01*
X139730264Y-87416498D01*
X139730261Y-87416510D01*
X139699500Y-87571153D01*
X139699500Y-87667152D01*
X139679815Y-87734191D01*
X139627011Y-87779946D01*
X139599692Y-87788769D01*
X139466508Y-87815261D01*
X139466498Y-87815264D01*
X139320827Y-87875602D01*
X139320814Y-87875609D01*
X139189711Y-87963210D01*
X139189707Y-87963213D01*
X139078213Y-88074707D01*
X139078210Y-88074711D01*
X138990609Y-88205814D01*
X138990602Y-88205827D01*
X138930264Y-88351498D01*
X138930261Y-88351510D01*
X138899500Y-88506153D01*
X138899500Y-88663846D01*
X138930261Y-88818489D01*
X138930264Y-88818501D01*
X138990602Y-88964172D01*
X138990609Y-88964185D01*
X139078210Y-89095288D01*
X139078213Y-89095292D01*
X139189707Y-89206786D01*
X139189711Y-89206789D01*
X139320814Y-89294390D01*
X139320827Y-89294397D01*
X139466498Y-89354735D01*
X139466503Y-89354737D01*
X139589109Y-89379125D01*
X139621153Y-89385499D01*
X139621156Y-89385500D01*
X139621158Y-89385500D01*
X139778844Y-89385500D01*
X139778845Y-89385499D01*
X139933497Y-89354737D01*
X139985646Y-89333135D01*
X140055114Y-89325666D01*
X140117594Y-89356940D01*
X140120780Y-89360015D01*
X140560425Y-89799660D01*
X140593910Y-89860983D01*
X140594361Y-89863149D01*
X140625261Y-90018491D01*
X140625264Y-90018501D01*
X140685602Y-90164172D01*
X140685609Y-90164185D01*
X140773210Y-90295288D01*
X140773213Y-90295292D01*
X140884707Y-90406786D01*
X140884711Y-90406789D01*
X141015814Y-90494390D01*
X141015827Y-90494397D01*
X141160139Y-90554172D01*
X141161503Y-90554737D01*
X141316153Y-90585499D01*
X141316156Y-90585500D01*
X141316158Y-90585500D01*
X141473844Y-90585500D01*
X141473845Y-90585499D01*
X141628497Y-90554737D01*
X141774179Y-90494394D01*
X141905289Y-90406789D01*
X142016789Y-90295289D01*
X142104394Y-90164179D01*
X142164737Y-90018497D01*
X142195500Y-89863842D01*
X142195500Y-89802983D01*
X142215185Y-89735944D01*
X142267989Y-89690189D01*
X142295306Y-89681366D01*
X142303497Y-89679737D01*
X142449179Y-89619394D01*
X142580289Y-89531789D01*
X142691789Y-89420289D01*
X142779394Y-89289179D01*
X142839737Y-89143497D01*
X142870500Y-88988842D01*
X142870500Y-88988835D01*
X142871097Y-88982782D01*
X142873745Y-88983042D01*
X142890185Y-88927058D01*
X142942989Y-88881303D01*
X143012147Y-88871359D01*
X143075703Y-88900384D01*
X143082181Y-88906416D01*
X143363181Y-89187416D01*
X143377884Y-89214343D01*
X143394477Y-89240162D01*
X143395368Y-89246362D01*
X143396666Y-89248739D01*
X143399500Y-89275097D01*
X143399500Y-89310234D01*
X143379815Y-89377273D01*
X143378602Y-89379125D01*
X143290609Y-89510814D01*
X143290602Y-89510827D01*
X143230264Y-89656498D01*
X143230261Y-89656510D01*
X143199500Y-89811153D01*
X143199500Y-89968846D01*
X143230261Y-90123489D01*
X143230264Y-90123501D01*
X143290602Y-90269172D01*
X143290609Y-90269185D01*
X143378210Y-90400288D01*
X143378213Y-90400292D01*
X143489707Y-90511786D01*
X143489711Y-90511789D01*
X143620814Y-90599390D01*
X143620827Y-90599397D01*
X143739186Y-90648422D01*
X143766503Y-90659737D01*
X143894961Y-90685289D01*
X143921153Y-90690499D01*
X143921156Y-90690500D01*
X143921158Y-90690500D01*
X144078844Y-90690500D01*
X144078845Y-90690499D01*
X144233497Y-90659737D01*
X144346166Y-90613067D01*
X144379172Y-90599397D01*
X144379172Y-90599396D01*
X144379179Y-90599394D01*
X144510289Y-90511789D01*
X144621789Y-90400289D01*
X144709394Y-90269179D01*
X144710438Y-90266659D01*
X144711337Y-90265543D01*
X144712264Y-90263809D01*
X144712592Y-90263984D01*
X144754277Y-90212255D01*
X144820571Y-90190188D01*
X144888271Y-90207466D01*
X144935882Y-90258602D01*
X144939562Y-90266659D01*
X144940604Y-90269175D01*
X144940609Y-90269185D01*
X144960163Y-90298449D01*
X144981041Y-90365127D01*
X144962557Y-90432507D01*
X144944742Y-90455021D01*
X143555286Y-91844478D01*
X143443481Y-91956282D01*
X143443479Y-91956285D01*
X143393361Y-92043094D01*
X143393359Y-92043096D01*
X143364425Y-92093209D01*
X143364424Y-92093210D01*
X143364423Y-92093215D01*
X143323499Y-92245943D01*
X143323499Y-92245945D01*
X143323499Y-92414046D01*
X143323500Y-92414059D01*
X143323500Y-102679430D01*
X143323499Y-102679448D01*
X143323499Y-102845154D01*
X143323498Y-102845154D01*
X143364424Y-102997889D01*
X143364425Y-102997890D01*
X143385504Y-103034399D01*
X143385505Y-103034400D01*
X143443477Y-103134812D01*
X143443481Y-103134817D01*
X143562349Y-103253685D01*
X143562355Y-103253690D01*
X145399039Y-105090374D01*
X145399049Y-105090385D01*
X145403379Y-105094715D01*
X145403380Y-105094716D01*
X145515184Y-105206520D01*
X145601995Y-105256639D01*
X145601997Y-105256641D01*
X145640051Y-105278611D01*
X145652115Y-105285577D01*
X145804843Y-105326500D01*
X156600903Y-105326500D01*
X156667942Y-105346185D01*
X156688583Y-105362818D01*
X157481284Y-106155520D01*
X157481286Y-106155521D01*
X157481290Y-106155524D01*
X157618209Y-106234573D01*
X157618216Y-106234577D01*
X157770943Y-106275501D01*
X157770945Y-106275501D01*
X157936654Y-106275501D01*
X157936670Y-106275500D01*
X158120234Y-106275500D01*
X158187273Y-106295185D01*
X158189125Y-106296398D01*
X158320814Y-106384390D01*
X158320827Y-106384397D01*
X158466498Y-106444735D01*
X158466503Y-106444737D01*
X158524693Y-106456311D01*
X158586601Y-106488695D01*
X158621176Y-106549410D01*
X158624500Y-106577928D01*
X158624500Y-106603846D01*
X158655261Y-106758489D01*
X158655264Y-106758501D01*
X158715602Y-106904172D01*
X158715609Y-106904185D01*
X158803210Y-107035288D01*
X158803213Y-107035292D01*
X158914707Y-107146786D01*
X158914711Y-107146789D01*
X159045814Y-107234390D01*
X159045827Y-107234397D01*
X159191498Y-107294735D01*
X159191503Y-107294737D01*
X159346153Y-107325499D01*
X159346156Y-107325500D01*
X159346158Y-107325500D01*
X159503844Y-107325500D01*
X159503845Y-107325499D01*
X159658497Y-107294737D01*
X159804179Y-107234394D01*
X159935289Y-107146789D01*
X160046789Y-107035289D01*
X160134394Y-106904179D01*
X160194737Y-106758497D01*
X160225500Y-106603842D01*
X160225500Y-106446158D01*
X160225500Y-106446155D01*
X160225499Y-106446153D01*
X160195788Y-106296789D01*
X160194737Y-106291503D01*
X160188109Y-106275501D01*
X160134397Y-106145827D01*
X160134390Y-106145814D01*
X160046398Y-106014125D01*
X160025520Y-105947447D01*
X160025500Y-105945234D01*
X160025500Y-105114059D01*
X160025501Y-105114046D01*
X160025501Y-104945945D01*
X160025501Y-104945943D01*
X159984577Y-104793215D01*
X159927131Y-104693716D01*
X159905520Y-104656284D01*
X159793716Y-104544480D01*
X159793713Y-104544478D01*
X157787590Y-102538355D01*
X157787588Y-102538352D01*
X157668717Y-102419481D01*
X157668716Y-102419480D01*
X157566136Y-102360256D01*
X157566135Y-102360255D01*
X157531783Y-102340422D01*
X157475881Y-102325443D01*
X157379057Y-102299499D01*
X157220943Y-102299499D01*
X157213347Y-102299499D01*
X157213331Y-102299500D01*
X156736670Y-102299500D01*
X156736654Y-102299499D01*
X156729058Y-102299499D01*
X156570943Y-102299499D01*
X156507485Y-102316503D01*
X156418214Y-102340423D01*
X156418209Y-102340426D01*
X156281290Y-102419475D01*
X156281282Y-102419481D01*
X155413584Y-103287181D01*
X155352261Y-103320666D01*
X155325903Y-103323500D01*
X146516198Y-103323500D01*
X146449159Y-103303815D01*
X146428517Y-103287181D01*
X145362819Y-102221483D01*
X145329334Y-102160160D01*
X145326500Y-102133802D01*
X145326500Y-93749097D01*
X145329046Y-93740424D01*
X145327758Y-93731479D01*
X145338736Y-93707423D01*
X145346185Y-93682058D01*
X145353014Y-93676140D01*
X145356768Y-93667916D01*
X145362819Y-93661416D01*
X145462819Y-93561416D01*
X145524142Y-93527931D01*
X145593834Y-93532915D01*
X145649767Y-93574787D01*
X145674184Y-93640251D01*
X145674500Y-93649097D01*
X145674500Y-93813330D01*
X145674499Y-93813348D01*
X145674499Y-93979054D01*
X145674498Y-93979054D01*
X145715422Y-94131783D01*
X145716934Y-94134401D01*
X145716937Y-94134407D01*
X145794477Y-94268712D01*
X145794481Y-94268717D01*
X145913349Y-94387585D01*
X145913355Y-94387590D01*
X147115139Y-95589374D01*
X147115149Y-95589385D01*
X147119479Y-95593715D01*
X147119480Y-95593716D01*
X147231284Y-95705520D01*
X147305789Y-95748535D01*
X147368215Y-95784577D01*
X147520943Y-95825501D01*
X147520946Y-95825501D01*
X147640043Y-95825501D01*
X147707082Y-95845186D01*
X147752837Y-95897990D01*
X147762781Y-95967148D01*
X147733756Y-96030704D01*
X147674978Y-96068478D01*
X147672169Y-96069266D01*
X147643147Y-96077043D01*
X147593216Y-96090422D01*
X147558862Y-96110257D01*
X147558861Y-96110256D01*
X147456287Y-96169477D01*
X147456282Y-96169481D01*
X146619481Y-97006282D01*
X146619477Y-97006287D01*
X146582846Y-97069736D01*
X146540424Y-97143211D01*
X146540423Y-97143212D01*
X146515868Y-97234851D01*
X146499499Y-97295943D01*
X146499499Y-97295945D01*
X146499499Y-97464046D01*
X146499500Y-97464059D01*
X146499500Y-99095234D01*
X146479815Y-99162273D01*
X146478602Y-99164125D01*
X146390609Y-99295814D01*
X146390602Y-99295827D01*
X146330264Y-99441498D01*
X146330261Y-99441510D01*
X146299500Y-99596153D01*
X146299500Y-99753846D01*
X146330261Y-99908489D01*
X146330264Y-99908501D01*
X146390602Y-100054172D01*
X146390609Y-100054185D01*
X146478210Y-100185288D01*
X146478213Y-100185292D01*
X146589707Y-100296786D01*
X146589711Y-100296789D01*
X146720814Y-100384390D01*
X146720827Y-100384397D01*
X146796181Y-100415609D01*
X146866503Y-100444737D01*
X147021153Y-100475499D01*
X147021156Y-100475500D01*
X147021158Y-100475500D01*
X147178844Y-100475500D01*
X147178845Y-100475499D01*
X147333497Y-100444737D01*
X147479179Y-100384394D01*
X147610289Y-100296789D01*
X147721789Y-100185289D01*
X147809394Y-100054179D01*
X147869737Y-99908497D01*
X147900500Y-99753842D01*
X147900500Y-99596158D01*
X147900500Y-99596155D01*
X147900499Y-99596153D01*
X147869738Y-99441510D01*
X147869737Y-99441503D01*
X147869735Y-99441498D01*
X147809397Y-99295827D01*
X147809390Y-99295814D01*
X147721398Y-99164125D01*
X147700520Y-99097447D01*
X147700500Y-99095234D01*
X147700500Y-98170134D01*
X147720185Y-98103095D01*
X147772989Y-98057340D01*
X147842147Y-98047396D01*
X147871950Y-98055572D01*
X147966503Y-98094737D01*
X148121153Y-98125499D01*
X148121156Y-98125500D01*
X148121158Y-98125500D01*
X148278844Y-98125500D01*
X148278845Y-98125499D01*
X148433497Y-98094737D01*
X148579179Y-98034394D01*
X148626180Y-98002989D01*
X148703392Y-97951398D01*
X148770070Y-97930520D01*
X148772283Y-97930500D01*
X149985500Y-97930500D01*
X150052539Y-97950185D01*
X150098294Y-98002989D01*
X150109500Y-98054500D01*
X150109500Y-99798330D01*
X150109499Y-99798348D01*
X150109499Y-99964054D01*
X150109498Y-99964054D01*
X150126794Y-100028602D01*
X150150423Y-100116785D01*
X150157018Y-100128208D01*
X150157019Y-100128211D01*
X150157020Y-100128211D01*
X150229477Y-100253712D01*
X150229481Y-100253717D01*
X150348349Y-100372585D01*
X150348355Y-100372590D01*
X151065139Y-101089374D01*
X151065149Y-101089385D01*
X151069479Y-101093715D01*
X151069480Y-101093716D01*
X151181284Y-101205520D01*
X151181286Y-101205521D01*
X151181290Y-101205524D01*
X151294965Y-101271153D01*
X151318216Y-101284577D01*
X151430019Y-101314534D01*
X151470942Y-101325500D01*
X151470943Y-101325500D01*
X152120234Y-101325500D01*
X152187273Y-101345185D01*
X152189125Y-101346398D01*
X152320814Y-101434390D01*
X152320827Y-101434397D01*
X152466498Y-101494735D01*
X152466503Y-101494737D01*
X152592176Y-101519735D01*
X152621153Y-101525499D01*
X152621156Y-101525500D01*
X152621158Y-101525500D01*
X152778844Y-101525500D01*
X152778845Y-101525499D01*
X152933497Y-101494737D01*
X153079179Y-101434394D01*
X153210289Y-101346789D01*
X153321789Y-101235289D01*
X153409394Y-101104179D01*
X153469737Y-100958497D01*
X153500500Y-100803842D01*
X153500500Y-100646158D01*
X153500500Y-100646155D01*
X153500499Y-100646153D01*
X153489417Y-100590441D01*
X153469737Y-100491503D01*
X153469735Y-100491498D01*
X153409397Y-100345827D01*
X153409390Y-100345814D01*
X153321789Y-100214711D01*
X153321786Y-100214707D01*
X153210292Y-100103213D01*
X153210288Y-100103210D01*
X153079185Y-100015609D01*
X153079172Y-100015602D01*
X152933501Y-99955264D01*
X152933489Y-99955261D01*
X152778845Y-99924500D01*
X152778842Y-99924500D01*
X152621158Y-99924500D01*
X152621155Y-99924500D01*
X152466510Y-99955261D01*
X152466498Y-99955264D01*
X152320827Y-100015602D01*
X152320814Y-100015609D01*
X152189125Y-100103602D01*
X152122447Y-100124480D01*
X152120234Y-100124500D01*
X151850097Y-100124500D01*
X151783058Y-100104815D01*
X151762416Y-100088181D01*
X151346819Y-99672584D01*
X151313334Y-99611261D01*
X151310500Y-99584903D01*
X151310500Y-97909765D01*
X151330185Y-97842726D01*
X151331398Y-97840874D01*
X151367517Y-97786819D01*
X151419394Y-97709179D01*
X151479737Y-97563497D01*
X151510500Y-97408842D01*
X151510500Y-97251158D01*
X151510500Y-97251155D01*
X151510499Y-97251153D01*
X151479738Y-97096506D01*
X151479735Y-97096498D01*
X151419397Y-96950827D01*
X151419390Y-96950814D01*
X151357173Y-96857700D01*
X151336295Y-96791022D01*
X151354779Y-96723642D01*
X151357174Y-96719917D01*
X151384389Y-96679187D01*
X151384390Y-96679184D01*
X151384394Y-96679179D01*
X151386041Y-96675204D01*
X151434380Y-96558501D01*
X151444737Y-96533497D01*
X151475500Y-96378842D01*
X151475500Y-96221158D01*
X151475500Y-96221155D01*
X151475499Y-96221153D01*
X151466059Y-96173691D01*
X151472286Y-96104099D01*
X151515149Y-96048922D01*
X151581039Y-96025678D01*
X151587676Y-96025500D01*
X151728844Y-96025500D01*
X151728845Y-96025499D01*
X151883497Y-95994737D01*
X152001592Y-95945821D01*
X152029172Y-95934397D01*
X152029172Y-95934396D01*
X152029179Y-95934394D01*
X152160289Y-95846789D01*
X152271789Y-95735289D01*
X152359394Y-95604179D01*
X152419737Y-95458497D01*
X152450500Y-95303842D01*
X152450500Y-95146158D01*
X152450500Y-95146155D01*
X152450499Y-95146153D01*
X152419738Y-94991510D01*
X152419737Y-94991503D01*
X152417930Y-94987141D01*
X152359397Y-94845827D01*
X152359390Y-94845814D01*
X152271789Y-94714711D01*
X152271786Y-94714707D01*
X152215493Y-94658414D01*
X152182008Y-94597091D01*
X152186992Y-94527399D01*
X152188614Y-94523278D01*
X152194737Y-94508497D01*
X152225500Y-94353842D01*
X152225500Y-94196158D01*
X152225500Y-94196155D01*
X152212695Y-94131783D01*
X152198681Y-94061331D01*
X152204908Y-93991743D01*
X152232617Y-93949460D01*
X152235285Y-93946791D01*
X152235289Y-93946789D01*
X152346789Y-93835289D01*
X152434394Y-93704179D01*
X152494737Y-93558497D01*
X152525500Y-93403842D01*
X152525500Y-93246158D01*
X152525500Y-93246155D01*
X152525499Y-93246153D01*
X152494737Y-93091503D01*
X152494735Y-93091498D01*
X152434397Y-92945827D01*
X152434390Y-92945814D01*
X152346789Y-92814711D01*
X152346786Y-92814707D01*
X152235292Y-92703213D01*
X152235288Y-92703210D01*
X152104185Y-92615609D01*
X152104172Y-92615602D01*
X151958501Y-92555264D01*
X151958489Y-92555261D01*
X151803845Y-92524500D01*
X151803842Y-92524500D01*
X151646158Y-92524500D01*
X151646155Y-92524500D01*
X151491510Y-92555261D01*
X151491498Y-92555264D01*
X151345827Y-92615602D01*
X151345814Y-92615609D01*
X151214714Y-92703208D01*
X151214708Y-92703212D01*
X151194799Y-92723122D01*
X151139216Y-92755213D01*
X151101120Y-92765421D01*
X151101109Y-92765426D01*
X150964190Y-92844475D01*
X150964182Y-92844481D01*
X150852378Y-92956286D01*
X150022484Y-93786181D01*
X149961161Y-93819666D01*
X149934803Y-93822500D01*
X149566098Y-93822500D01*
X149544855Y-93816262D01*
X149522767Y-93814683D01*
X149511981Y-93806609D01*
X149499059Y-93802815D01*
X149484560Y-93786083D01*
X149466832Y-93772812D01*
X149462123Y-93760189D01*
X149453304Y-93750011D01*
X149450152Y-93728095D01*
X149442414Y-93707348D01*
X149445277Y-93694185D01*
X149443360Y-93680853D01*
X149452558Y-93660710D01*
X149457265Y-93639075D01*
X149470534Y-93621348D01*
X149472385Y-93617297D01*
X149478401Y-93610834D01*
X149550520Y-93538716D01*
X149550521Y-93538713D01*
X151150520Y-91938716D01*
X151229577Y-91801784D01*
X151239016Y-91766553D01*
X151271110Y-91710966D01*
X151291789Y-91690289D01*
X151379394Y-91559179D01*
X151439737Y-91413497D01*
X151470500Y-91258842D01*
X151470500Y-91101158D01*
X151470500Y-91101155D01*
X151470499Y-91101153D01*
X151439737Y-90946503D01*
X151439735Y-90946498D01*
X151379397Y-90800827D01*
X151379390Y-90800814D01*
X151291398Y-90669125D01*
X151270520Y-90602447D01*
X151270500Y-90600234D01*
X151270500Y-89705097D01*
X151290185Y-89638058D01*
X151306819Y-89617416D01*
X153261416Y-87662819D01*
X153322739Y-87629334D01*
X153349097Y-87626500D01*
X154514331Y-87626500D01*
X154514347Y-87626501D01*
X154521943Y-87626501D01*
X154680054Y-87626501D01*
X154680057Y-87626501D01*
X154832785Y-87585577D01*
X154903544Y-87544724D01*
X154969716Y-87506520D01*
X155081520Y-87394716D01*
X155081520Y-87394714D01*
X155091724Y-87384511D01*
X155091727Y-87384506D01*
X156387416Y-86088819D01*
X156448739Y-86055334D01*
X156475097Y-86052500D01*
X156951903Y-86052500D01*
X157018942Y-86072185D01*
X157039584Y-86088819D01*
X157791206Y-86840441D01*
X157824691Y-86901764D01*
X157819707Y-86971456D01*
X157806627Y-86997013D01*
X157740609Y-87095814D01*
X157740602Y-87095827D01*
X157680264Y-87241498D01*
X157680261Y-87241510D01*
X157649500Y-87396153D01*
X157649500Y-87553846D01*
X157680261Y-87708489D01*
X157680264Y-87708501D01*
X157740602Y-87854172D01*
X157740609Y-87854185D01*
X157828210Y-87985288D01*
X157828213Y-87985292D01*
X157939707Y-88096786D01*
X157939711Y-88096789D01*
X158070814Y-88184390D01*
X158070827Y-88184397D01*
X158216498Y-88244735D01*
X158216503Y-88244737D01*
X158371153Y-88275499D01*
X158371156Y-88275500D01*
X158371158Y-88275500D01*
X158528844Y-88275500D01*
X158528845Y-88275499D01*
X158683497Y-88244737D01*
X158829179Y-88184394D01*
X158903438Y-88134776D01*
X158960875Y-88096398D01*
X159027553Y-88075520D01*
X159029766Y-88075500D01*
X159962125Y-88075500D01*
X160029164Y-88095185D01*
X160074919Y-88147989D01*
X160083742Y-88175308D01*
X160105261Y-88283491D01*
X160105264Y-88283501D01*
X160165602Y-88429172D01*
X160165609Y-88429185D01*
X160253210Y-88560288D01*
X160253213Y-88560292D01*
X160364707Y-88671786D01*
X160364711Y-88671789D01*
X160495814Y-88759390D01*
X160495827Y-88759397D01*
X160638490Y-88818489D01*
X160641503Y-88819737D01*
X160796153Y-88850499D01*
X160796156Y-88850500D01*
X160796158Y-88850500D01*
X160953844Y-88850500D01*
X160953845Y-88850499D01*
X161108497Y-88819737D01*
X161168510Y-88794878D01*
X161237977Y-88787410D01*
X161300456Y-88818685D01*
X161336109Y-88878773D01*
X161333616Y-88948598D01*
X161303642Y-88997121D01*
X160960339Y-89340425D01*
X160899016Y-89373910D01*
X160896850Y-89374361D01*
X160741508Y-89405261D01*
X160741498Y-89405264D01*
X160595827Y-89465602D01*
X160595814Y-89465609D01*
X160464711Y-89553210D01*
X160464707Y-89553213D01*
X160353213Y-89664707D01*
X160353210Y-89664711D01*
X160265609Y-89795814D01*
X160265602Y-89795827D01*
X160205264Y-89941498D01*
X160205261Y-89941510D01*
X160174500Y-90096153D01*
X160174500Y-90253846D01*
X160205261Y-90408489D01*
X160205264Y-90408501D01*
X160265602Y-90554172D01*
X160265609Y-90554185D01*
X160353602Y-90685874D01*
X160374480Y-90752551D01*
X160374500Y-90754765D01*
X160374500Y-92669902D01*
X160354815Y-92736941D01*
X160338181Y-92757583D01*
X158705339Y-94390425D01*
X158644016Y-94423910D01*
X158641850Y-94424361D01*
X158486508Y-94455261D01*
X158486498Y-94455264D01*
X158340827Y-94515602D01*
X158340814Y-94515609D01*
X158209125Y-94603602D01*
X158142447Y-94624480D01*
X158140234Y-94624500D01*
X155361670Y-94624500D01*
X155361654Y-94624499D01*
X155354058Y-94624499D01*
X155195943Y-94624499D01*
X155126655Y-94643065D01*
X155043214Y-94665423D01*
X155043209Y-94665426D01*
X154906290Y-94744475D01*
X154906282Y-94744481D01*
X154135506Y-95515256D01*
X154074183Y-95548741D01*
X154072019Y-95549192D01*
X154041505Y-95555262D01*
X154041500Y-95555263D01*
X153895827Y-95615602D01*
X153895814Y-95615609D01*
X153764711Y-95703210D01*
X153764707Y-95703213D01*
X153653213Y-95814707D01*
X153653210Y-95814711D01*
X153565609Y-95945814D01*
X153565602Y-95945827D01*
X153505264Y-96091498D01*
X153505261Y-96091510D01*
X153474500Y-96246153D01*
X153474500Y-96403846D01*
X153505261Y-96558489D01*
X153505264Y-96558501D01*
X153565602Y-96704172D01*
X153565609Y-96704185D01*
X153653210Y-96835288D01*
X153653213Y-96835292D01*
X153764707Y-96946786D01*
X153764711Y-96946789D01*
X153895814Y-97034390D01*
X153895827Y-97034397D01*
X153981147Y-97069737D01*
X154041503Y-97094737D01*
X154196153Y-97125499D01*
X154196156Y-97125500D01*
X154196158Y-97125500D01*
X154353844Y-97125500D01*
X154353845Y-97125499D01*
X154508497Y-97094737D01*
X154654179Y-97034394D01*
X154785289Y-96946789D01*
X154896789Y-96835289D01*
X154984394Y-96704179D01*
X155044737Y-96558497D01*
X155075500Y-96403842D01*
X155075500Y-96325097D01*
X155095185Y-96258058D01*
X155111819Y-96237416D01*
X155487417Y-95861819D01*
X155548740Y-95828334D01*
X155575098Y-95825500D01*
X158140234Y-95825500D01*
X158207273Y-95845185D01*
X158209125Y-95846398D01*
X158340814Y-95934390D01*
X158340827Y-95934397D01*
X158486498Y-95994735D01*
X158486503Y-95994737D01*
X158641153Y-96025499D01*
X158641156Y-96025500D01*
X158641158Y-96025500D01*
X158798844Y-96025500D01*
X158798845Y-96025499D01*
X158953497Y-95994737D01*
X159071592Y-95945821D01*
X159099172Y-95934397D01*
X159099172Y-95934396D01*
X159099179Y-95934394D01*
X159230289Y-95846789D01*
X159341789Y-95735289D01*
X159429394Y-95604179D01*
X159489737Y-95458497D01*
X159509113Y-95361085D01*
X159520638Y-95303150D01*
X159553023Y-95241239D01*
X159554517Y-95239717D01*
X161455520Y-93338716D01*
X161534577Y-93201784D01*
X161575501Y-93049057D01*
X161575501Y-92890942D01*
X161575501Y-92883347D01*
X161575500Y-92883329D01*
X161575500Y-90754765D01*
X161595185Y-90687726D01*
X161596398Y-90685874D01*
X161684390Y-90554185D01*
X161684390Y-90554184D01*
X161684394Y-90554179D01*
X161744737Y-90408497D01*
X161772448Y-90269185D01*
X161775638Y-90253150D01*
X161808023Y-90191239D01*
X161809521Y-90189713D01*
X162338873Y-89660360D01*
X162364552Y-89640657D01*
X162404808Y-89617416D01*
X162468716Y-89580520D01*
X162580520Y-89468716D01*
X162659577Y-89331784D01*
X162700500Y-89179057D01*
X162700500Y-87789059D01*
X162700501Y-87789046D01*
X162700501Y-87620945D01*
X162700501Y-87620943D01*
X162659577Y-87468215D01*
X162625949Y-87409970D01*
X162580520Y-87331284D01*
X162468716Y-87219480D01*
X162468715Y-87219479D01*
X162464385Y-87215149D01*
X162464374Y-87215139D01*
X161932590Y-86683355D01*
X161932588Y-86683352D01*
X161813717Y-86564481D01*
X161813716Y-86564480D01*
X161726904Y-86514360D01*
X161726904Y-86514359D01*
X161726900Y-86514358D01*
X161676785Y-86485423D01*
X161524057Y-86444499D01*
X161365943Y-86444499D01*
X161358347Y-86444499D01*
X161358331Y-86444500D01*
X161226654Y-86444500D01*
X161159615Y-86424815D01*
X161113860Y-86372011D01*
X161103916Y-86302853D01*
X161105037Y-86296308D01*
X161110500Y-86268844D01*
X161110500Y-86111155D01*
X161110499Y-86111153D01*
X161084055Y-85978211D01*
X161079737Y-85956503D01*
X161051639Y-85888667D01*
X161019397Y-85810827D01*
X161019390Y-85810814D01*
X160931789Y-85679711D01*
X160931786Y-85679707D01*
X160820292Y-85568213D01*
X160820288Y-85568210D01*
X160689185Y-85480609D01*
X160689172Y-85480602D01*
X160543501Y-85420264D01*
X160543491Y-85420261D01*
X160388149Y-85389361D01*
X160326238Y-85356976D01*
X160324660Y-85355425D01*
X159257590Y-84288355D01*
X159257588Y-84288352D01*
X159138717Y-84169481D01*
X159138712Y-84169477D01*
X159033367Y-84108657D01*
X159033365Y-84108656D01*
X159001787Y-84090424D01*
X159001786Y-84090423D01*
X159001785Y-84090423D01*
X158849057Y-84049499D01*
X158690943Y-84049499D01*
X158683347Y-84049499D01*
X158683331Y-84049500D01*
X156800098Y-84049500D01*
X156733059Y-84029815D01*
X156712417Y-84013181D01*
X156261801Y-83562565D01*
X156228316Y-83501242D01*
X156226079Y-83487035D01*
X156225500Y-83481164D01*
X156225500Y-83481158D01*
X156194737Y-83326503D01*
X156194735Y-83326498D01*
X156134397Y-83180827D01*
X156134390Y-83180814D01*
X156046789Y-83049711D01*
X156046786Y-83049707D01*
X155935292Y-82938213D01*
X155935288Y-82938210D01*
X155804185Y-82850609D01*
X155804172Y-82850602D01*
X155658501Y-82790264D01*
X155658489Y-82790261D01*
X155503845Y-82759500D01*
X155503842Y-82759500D01*
X155346158Y-82759500D01*
X155346155Y-82759500D01*
X155191510Y-82790261D01*
X155191498Y-82790264D01*
X155045827Y-82850602D01*
X155045814Y-82850609D01*
X154914711Y-82938210D01*
X154914707Y-82938213D01*
X154803213Y-83049707D01*
X154803210Y-83049711D01*
X154715609Y-83180814D01*
X154715602Y-83180827D01*
X154655264Y-83326498D01*
X154655261Y-83326510D01*
X154624500Y-83481153D01*
X154624500Y-83638846D01*
X154655261Y-83793489D01*
X154655264Y-83793501D01*
X154715602Y-83939172D01*
X154715609Y-83939185D01*
X154803210Y-84070288D01*
X154803213Y-84070292D01*
X154914707Y-84181786D01*
X154914711Y-84181789D01*
X154976982Y-84223398D01*
X155021787Y-84277011D01*
X155030494Y-84346336D01*
X155000339Y-84409363D01*
X154940896Y-84446082D01*
X154908091Y-84450500D01*
X154601097Y-84450500D01*
X154534058Y-84430815D01*
X154513416Y-84414181D01*
X153297590Y-83198355D01*
X153297588Y-83198352D01*
X153178717Y-83079481D01*
X153178716Y-83079480D01*
X153067765Y-83015423D01*
X153041785Y-83000423D01*
X153034660Y-82998513D01*
X153022806Y-82992402D01*
X153010278Y-82980456D01*
X152991948Y-82969869D01*
X152960292Y-82938213D01*
X152960288Y-82938210D01*
X152829185Y-82850609D01*
X152829172Y-82850602D01*
X152683501Y-82790264D01*
X152683489Y-82790261D01*
X152528845Y-82759500D01*
X152528842Y-82759500D01*
X152371158Y-82759500D01*
X152371155Y-82759500D01*
X152216510Y-82790261D01*
X152216498Y-82790264D01*
X152070827Y-82850602D01*
X152070814Y-82850609D01*
X151939711Y-82938210D01*
X151939707Y-82938213D01*
X151828213Y-83049707D01*
X151828210Y-83049711D01*
X151740609Y-83180814D01*
X151740602Y-83180827D01*
X151680264Y-83326498D01*
X151680261Y-83326510D01*
X151649500Y-83481153D01*
X151649500Y-83638846D01*
X151680261Y-83793489D01*
X151680264Y-83793501D01*
X151740602Y-83939172D01*
X151740609Y-83939185D01*
X151828210Y-84070288D01*
X151828213Y-84070292D01*
X151939707Y-84181786D01*
X151939711Y-84181789D01*
X152070814Y-84269390D01*
X152070827Y-84269397D01*
X152212819Y-84328211D01*
X152216503Y-84329737D01*
X152371153Y-84360499D01*
X152371156Y-84360500D01*
X152371158Y-84360500D01*
X152528844Y-84360500D01*
X152657697Y-84334869D01*
X152727289Y-84341096D01*
X152769570Y-84368805D01*
X153059162Y-84658397D01*
X153092647Y-84719720D01*
X153087663Y-84789412D01*
X153059162Y-84833759D01*
X153028213Y-84864707D01*
X153028210Y-84864711D01*
X152940609Y-84995814D01*
X152940602Y-84995827D01*
X152880264Y-85141498D01*
X152880261Y-85141510D01*
X152849500Y-85296153D01*
X152849500Y-85375500D01*
X152829815Y-85442539D01*
X152777011Y-85488294D01*
X152725500Y-85499500D01*
X150761670Y-85499500D01*
X150761654Y-85499499D01*
X150754058Y-85499499D01*
X150595943Y-85499499D01*
X150519579Y-85519961D01*
X150443214Y-85540423D01*
X150443209Y-85540426D01*
X150306290Y-85619475D01*
X150306282Y-85619481D01*
X148351478Y-87574285D01*
X148290155Y-87607770D01*
X148220463Y-87602786D01*
X148164530Y-87560914D01*
X148140113Y-87495450D01*
X148154965Y-87427177D01*
X148156410Y-87424604D01*
X148210577Y-87330784D01*
X148251501Y-87178057D01*
X148251501Y-87019942D01*
X148251501Y-87012347D01*
X148251500Y-87012329D01*
X148251500Y-84454845D01*
X148251500Y-84454843D01*
X148217569Y-84328211D01*
X148210577Y-84302115D01*
X148181639Y-84251995D01*
X148131520Y-84165184D01*
X148019716Y-84053380D01*
X148019715Y-84053379D01*
X148015385Y-84049049D01*
X148015374Y-84049039D01*
X146478690Y-82512355D01*
X146478688Y-82512352D01*
X146359817Y-82393481D01*
X146359816Y-82393480D01*
X146273004Y-82343360D01*
X146273004Y-82343359D01*
X146273000Y-82343358D01*
X146222885Y-82314423D01*
X146070157Y-82273499D01*
X145912043Y-82273499D01*
X145904447Y-82273499D01*
X145904431Y-82273500D01*
X145371476Y-82273500D01*
X145356220Y-82274500D01*
X144022125Y-82274500D01*
X143955086Y-82254815D01*
X143909331Y-82202011D01*
X143899387Y-82132853D01*
X143928412Y-82069297D01*
X143982719Y-82032928D01*
X144285248Y-81931530D01*
X144290697Y-81929843D01*
X145109422Y-81696896D01*
X145114886Y-81695477D01*
X145943496Y-81500589D01*
X145949082Y-81499410D01*
X146785808Y-81343000D01*
X146791432Y-81342082D01*
X147634487Y-81224481D01*
X147640133Y-81223826D01*
X148487694Y-81145288D01*
X148493399Y-81144892D01*
X149343691Y-81105581D01*
X149349418Y-81105449D01*
X150200582Y-81105449D01*
X150206309Y-81105581D01*
G37*
%TD.AperFunction*%
%TA.AperFunction,Conductor*%
G36*
X143832554Y-84640602D02*
G01*
X143834832Y-84640316D01*
X143864434Y-84654478D01*
X143894516Y-84667572D01*
X143896560Y-84669848D01*
X143897860Y-84670470D01*
X143918101Y-84693829D01*
X143960257Y-84756919D01*
X143960260Y-84756923D01*
X144048076Y-84844739D01*
X144048080Y-84844742D01*
X144151339Y-84913738D01*
X144151343Y-84913740D01*
X144151346Y-84913742D01*
X144266090Y-84961271D01*
X144387896Y-84985499D01*
X144387900Y-84985500D01*
X144387901Y-84985500D01*
X144512100Y-84985500D01*
X144512101Y-84985499D01*
X144588698Y-84970264D01*
X144633906Y-84961272D01*
X144633907Y-84961271D01*
X144633910Y-84961271D01*
X144633911Y-84961270D01*
X144635331Y-84960840D01*
X144638274Y-84960403D01*
X144639885Y-84960083D01*
X144639900Y-84960162D01*
X144671328Y-84955500D01*
X145358147Y-84955500D01*
X145425186Y-84975185D01*
X145470941Y-85027989D01*
X145479764Y-85055309D01*
X145505261Y-85183489D01*
X145505264Y-85183501D01*
X145565602Y-85329172D01*
X145565609Y-85329185D01*
X145653210Y-85460288D01*
X145653213Y-85460292D01*
X145764707Y-85571786D01*
X145764711Y-85571789D01*
X145895814Y-85659390D01*
X145895818Y-85659392D01*
X145895821Y-85659394D01*
X145895826Y-85659396D01*
X145898345Y-85660440D01*
X145899460Y-85661339D01*
X145901191Y-85662264D01*
X145901015Y-85662592D01*
X145952747Y-85704282D01*
X145974811Y-85770576D01*
X145957531Y-85838275D01*
X145906393Y-85885885D01*
X145898345Y-85889560D01*
X145895826Y-85890603D01*
X145895814Y-85890609D01*
X145764711Y-85978210D01*
X145764707Y-85978213D01*
X145653213Y-86089707D01*
X145653210Y-86089711D01*
X145565609Y-86220814D01*
X145565602Y-86220827D01*
X145505264Y-86366498D01*
X145505261Y-86366510D01*
X145474500Y-86521153D01*
X145474500Y-86678846D01*
X145505261Y-86833489D01*
X145505264Y-86833501D01*
X145565602Y-86979172D01*
X145565609Y-86979185D01*
X145653602Y-87110874D01*
X145674480Y-87177551D01*
X145674500Y-87179765D01*
X145674500Y-88967179D01*
X145654815Y-89034218D01*
X145602011Y-89079973D01*
X145574692Y-89088796D01*
X145416508Y-89120261D01*
X145416498Y-89120264D01*
X145270827Y-89180602D01*
X145270814Y-89180609D01*
X145139711Y-89268210D01*
X145139707Y-89268213D01*
X145028213Y-89379707D01*
X145028210Y-89379711D01*
X144940609Y-89510814D01*
X144940603Y-89510826D01*
X144939560Y-89513345D01*
X144938660Y-89514460D01*
X144937736Y-89516191D01*
X144937407Y-89516015D01*
X144895718Y-89567747D01*
X144829424Y-89589811D01*
X144761725Y-89572531D01*
X144720827Y-89533150D01*
X144714734Y-89523713D01*
X144709394Y-89510821D01*
X144621789Y-89379711D01*
X144621702Y-89379624D01*
X144620327Y-89377494D01*
X144610676Y-89344884D01*
X144600520Y-89312447D01*
X144600502Y-89310504D01*
X144600500Y-89310496D01*
X144600502Y-89310488D01*
X144600500Y-89310234D01*
X144600500Y-88895943D01*
X144599745Y-88893127D01*
X144599740Y-88893108D01*
X144588323Y-88850499D01*
X144583083Y-88830943D01*
X144559577Y-88743216D01*
X144518339Y-88671789D01*
X144480524Y-88606290D01*
X144480521Y-88606286D01*
X144480520Y-88606284D01*
X144368716Y-88494480D01*
X144368715Y-88494479D01*
X144364385Y-88490149D01*
X144364374Y-88490139D01*
X142546819Y-86672584D01*
X142513334Y-86611261D01*
X142510500Y-86584903D01*
X142510500Y-86267999D01*
X142530185Y-86200960D01*
X142531344Y-86199188D01*
X142534669Y-86194213D01*
X142540500Y-86164899D01*
X142540499Y-85085102D01*
X142534669Y-85055787D01*
X142516096Y-85027989D01*
X142512457Y-85022542D01*
X142479214Y-85000332D01*
X142479215Y-85000332D01*
X142479213Y-85000331D01*
X142479211Y-85000330D01*
X142479208Y-85000329D01*
X142449901Y-84994499D01*
X142448876Y-84994399D01*
X142448373Y-84994196D01*
X142443924Y-84993311D01*
X142444091Y-84992467D01*
X142441042Y-84991236D01*
X142432609Y-84991695D01*
X142409130Y-84978350D01*
X142384088Y-84968239D01*
X142379208Y-84961343D01*
X142371865Y-84957170D01*
X142359327Y-84933248D01*
X142343728Y-84911205D01*
X142343351Y-84902767D01*
X142339430Y-84895286D01*
X142341815Y-84868388D01*
X142340610Y-84841405D01*
X142345016Y-84832290D01*
X142345602Y-84825689D01*
X142355561Y-84810477D01*
X142363042Y-84795005D01*
X142367827Y-84788834D01*
X142399742Y-84756920D01*
X142444333Y-84690184D01*
X142447013Y-84686729D01*
X142471924Y-84668734D01*
X142495507Y-84649025D01*
X142499989Y-84648461D01*
X142503651Y-84645817D01*
X142534330Y-84644147D01*
X142564832Y-84640316D01*
X142568908Y-84642266D01*
X142573418Y-84642021D01*
X142600130Y-84657203D01*
X142627860Y-84670470D01*
X142632118Y-84675384D01*
X142634162Y-84676546D01*
X142635749Y-84679574D01*
X142648101Y-84693829D01*
X142690257Y-84756919D01*
X142690260Y-84756923D01*
X142778076Y-84844739D01*
X142778080Y-84844742D01*
X142881339Y-84913738D01*
X142881343Y-84913740D01*
X142881346Y-84913742D01*
X142996090Y-84961271D01*
X143117896Y-84985499D01*
X143117900Y-84985500D01*
X143117901Y-84985500D01*
X143242100Y-84985500D01*
X143242101Y-84985499D01*
X143363910Y-84961271D01*
X143478654Y-84913742D01*
X143581920Y-84844742D01*
X143669742Y-84756920D01*
X143711897Y-84693829D01*
X143737069Y-84672792D01*
X143761482Y-84650863D01*
X143763746Y-84650495D01*
X143765507Y-84649025D01*
X143798069Y-84644934D01*
X143830452Y-84639687D01*
X143832554Y-84640602D01*
G37*
%TD.AperFunction*%
%TD*%
M02*
