%TF.GenerationSoftware,KiCad,Pcbnew,9.0.5*%
%TF.CreationDate,2025-11-05T09:46:05-05:00*%
%TF.ProjectId,frisbee_tracker,66726973-6265-4655-9f74-7261636b6572,rev?*%
%TF.SameCoordinates,Original*%
%TF.FileFunction,Copper,L1,Top*%
%TF.FilePolarity,Positive*%
%FSLAX46Y46*%
G04 Gerber Fmt 4.6, Leading zero omitted, Abs format (unit mm)*
G04 Created by KiCad (PCBNEW 9.0.5) date 2025-11-05 09:46:05*
%MOMM*%
%LPD*%
G01*
G04 APERTURE LIST*
G04 Aperture macros list*
%AMRoundRect*
0 Rectangle with rounded corners*
0 $1 Rounding radius*
0 $2 $3 $4 $5 $6 $7 $8 $9 X,Y pos of 4 corners*
0 Add a 4 corners polygon primitive as box body*
4,1,4,$2,$3,$4,$5,$6,$7,$8,$9,$2,$3,0*
0 Add four circle primitives for the rounded corners*
1,1,$1+$1,$2,$3*
1,1,$1+$1,$4,$5*
1,1,$1+$1,$6,$7*
1,1,$1+$1,$8,$9*
0 Add four rect primitives between the rounded corners*
20,1,$1+$1,$2,$3,$4,$5,0*
20,1,$1+$1,$4,$5,$6,$7,0*
20,1,$1+$1,$6,$7,$8,$9,0*
20,1,$1+$1,$8,$9,$2,$3,0*%
G04 Aperture macros list end*
%TA.AperFunction,SMDPad,CuDef*%
%ADD10R,0.558800X1.270000*%
%TD*%
%TA.AperFunction,SMDPad,CuDef*%
%ADD11RoundRect,0.200000X0.275000X-0.200000X0.275000X0.200000X-0.275000X0.200000X-0.275000X-0.200000X0*%
%TD*%
%TA.AperFunction,SMDPad,CuDef*%
%ADD12RoundRect,0.225000X0.225000X0.250000X-0.225000X0.250000X-0.225000X-0.250000X0.225000X-0.250000X0*%
%TD*%
%TA.AperFunction,SMDPad,CuDef*%
%ADD13R,0.482600X0.254000*%
%TD*%
%TA.AperFunction,SMDPad,CuDef*%
%ADD14R,0.254000X0.482600*%
%TD*%
%TA.AperFunction,SMDPad,CuDef*%
%ADD15RoundRect,0.218750X-0.218750X-0.256250X0.218750X-0.256250X0.218750X0.256250X-0.218750X0.256250X0*%
%TD*%
%TA.AperFunction,SMDPad,CuDef*%
%ADD16R,1.070000X0.740000*%
%TD*%
%TA.AperFunction,SMDPad,CuDef*%
%ADD17RoundRect,0.200000X0.200000X0.275000X-0.200000X0.275000X-0.200000X-0.275000X0.200000X-0.275000X0*%
%TD*%
%TA.AperFunction,SMDPad,CuDef*%
%ADD18RoundRect,0.225000X-0.250000X0.225000X-0.250000X-0.225000X0.250000X-0.225000X0.250000X0.225000X0*%
%TD*%
%TA.AperFunction,SMDPad,CuDef*%
%ADD19RoundRect,0.200000X-0.200000X-0.275000X0.200000X-0.275000X0.200000X0.275000X-0.200000X0.275000X0*%
%TD*%
%TA.AperFunction,SMDPad,CuDef*%
%ADD20R,0.558800X1.320800*%
%TD*%
%TA.AperFunction,SMDPad,CuDef*%
%ADD21RoundRect,0.225000X0.250000X-0.225000X0.250000X0.225000X-0.250000X0.225000X-0.250000X-0.225000X0*%
%TD*%
%TA.AperFunction,ComponentPad*%
%ADD22R,1.000000X1.000000*%
%TD*%
%TA.AperFunction,SMDPad,CuDef*%
%ADD23R,1.701800X0.762000*%
%TD*%
%TA.AperFunction,SMDPad,CuDef*%
%ADD24RoundRect,0.030000X0.090000X-0.270000X0.090000X0.270000X-0.090000X0.270000X-0.090000X-0.270000X0*%
%TD*%
%TA.AperFunction,SMDPad,CuDef*%
%ADD25RoundRect,0.030000X0.270000X-0.090000X0.270000X0.090000X-0.270000X0.090000X-0.270000X-0.090000X0*%
%TD*%
%TA.AperFunction,SMDPad,CuDef*%
%ADD26R,1.680000X1.680000*%
%TD*%
%TA.AperFunction,ComponentPad*%
%ADD27C,0.400000*%
%TD*%
%TA.AperFunction,SMDPad,CuDef*%
%ADD28RoundRect,0.218750X0.218750X0.256250X-0.218750X0.256250X-0.218750X-0.256250X0.218750X-0.256250X0*%
%TD*%
%TA.AperFunction,SMDPad,CuDef*%
%ADD29RoundRect,0.225000X-0.225000X-0.250000X0.225000X-0.250000X0.225000X0.250000X-0.225000X0.250000X0*%
%TD*%
%TA.AperFunction,ComponentPad*%
%ADD30R,1.060000X1.060000*%
%TD*%
%TA.AperFunction,ComponentPad*%
%ADD31C,1.060000*%
%TD*%
%TA.AperFunction,SMDPad,CuDef*%
%ADD32R,0.200000X0.850000*%
%TD*%
%TA.AperFunction,SMDPad,CuDef*%
%ADD33R,0.850000X0.200000*%
%TD*%
%TA.AperFunction,SMDPad,CuDef*%
%ADD34R,4.700000X4.700000*%
%TD*%
%TA.AperFunction,ComponentPad*%
%ADD35C,0.600000*%
%TD*%
%TA.AperFunction,SMDPad,CuDef*%
%ADD36R,0.300000X0.300000*%
%TD*%
%TA.AperFunction,SMDPad,CuDef*%
%ADD37R,0.850000X0.750000*%
%TD*%
%TA.AperFunction,SMDPad,CuDef*%
%ADD38RoundRect,0.105000X-0.245000X-0.595000X0.245000X-0.595000X0.245000X0.595000X-0.245000X0.595000X0*%
%TD*%
%TA.AperFunction,SMDPad,CuDef*%
%ADD39RoundRect,0.100000X-0.130000X-0.100000X0.130000X-0.100000X0.130000X0.100000X-0.130000X0.100000X0*%
%TD*%
%TA.AperFunction,SMDPad,CuDef*%
%ADD40R,0.700000X1.200000*%
%TD*%
%TA.AperFunction,SMDPad,CuDef*%
%ADD41R,0.760000X1.200000*%
%TD*%
%TA.AperFunction,SMDPad,CuDef*%
%ADD42R,0.800000X1.200000*%
%TD*%
%TA.AperFunction,ComponentPad*%
%ADD43O,1.100000X1.700000*%
%TD*%
%TA.AperFunction,SMDPad,CuDef*%
%ADD44RoundRect,0.100000X0.130000X0.100000X-0.130000X0.100000X-0.130000X-0.100000X0.130000X-0.100000X0*%
%TD*%
%TA.AperFunction,SMDPad,CuDef*%
%ADD45R,1.000000X0.970000*%
%TD*%
%TA.AperFunction,SMDPad,CuDef*%
%ADD46RoundRect,0.200000X-0.275000X0.200000X-0.275000X-0.200000X0.275000X-0.200000X0.275000X0.200000X0*%
%TD*%
%TA.AperFunction,ViaPad*%
%ADD47C,0.600000*%
%TD*%
%TA.AperFunction,Conductor*%
%ADD48C,0.400000*%
%TD*%
%TA.AperFunction,Conductor*%
%ADD49C,0.200000*%
%TD*%
%TA.AperFunction,Conductor*%
%ADD50C,0.300000*%
%TD*%
G04 APERTURE END LIST*
D10*
%TO.P,U6,1,G*%
%TO.N,Net-(IC1-P2.04{slash}SPI.SDI{slash}SDO)*%
X138872500Y-108282800D03*
%TO.P,U6,2,S*%
%TO.N,GND*%
X140777500Y-108282800D03*
%TO.P,U6,3,D*%
%TO.N,Net-(D3-K)*%
X139825000Y-106200000D03*
%TD*%
D11*
%TO.P,R3,1*%
%TO.N,Net-(J1-CC1)*%
X143625000Y-109025000D03*
%TO.P,R3,2*%
%TO.N,GND*%
X143625000Y-107375000D03*
%TD*%
D12*
%TO.P,C17,1*%
%TO.N,Net-(IC1-VDD_1)*%
X148650000Y-102500000D03*
%TO.P,C17,2*%
%TO.N,GND*%
X147100000Y-102500000D03*
%TD*%
D13*
%TO.P,U3,1,SDO*%
%TO.N,GND*%
X148638600Y-98899999D03*
%TO.P,U3,2,NC*%
%TO.N,unconnected-(U3-NC-Pad2)*%
X148638600Y-99400000D03*
%TO.P,U3,3,NC*%
%TO.N,unconnected-(U3-NC-Pad3)*%
X148638600Y-99900000D03*
%TO.P,U3,4,INT1*%
%TO.N,Net-(IC1-P0.00)*%
X148638600Y-100400001D03*
D14*
%TO.P,U3,5,VDDIO*%
%TO.N,Net-(IC1-VDD_1)*%
X149294301Y-100564400D03*
%TO.P,U3,6,GNDIO*%
%TO.N,GND*%
X149794300Y-100564400D03*
%TO.P,U3,7,GND*%
X150294299Y-100564400D03*
D13*
%TO.P,U3,8,VDD*%
%TO.N,Net-(IC1-VDD_1)*%
X150950000Y-100400001D03*
%TO.P,U3,9,INT2*%
%TO.N,Net-(IC1-P0.01)*%
X150950000Y-99900000D03*
%TO.P,U3,10,NC*%
%TO.N,unconnected-(U3-NC-Pad10)*%
X150950000Y-99400000D03*
%TO.P,U3,11,NC*%
%TO.N,unconnected-(U3-NC-Pad11)*%
X150950000Y-98899999D03*
D14*
%TO.P,U3,12,CSB*%
%TO.N,Net-(IC1-VDD_1)*%
X150294299Y-98735600D03*
%TO.P,U3,13,SCX*%
%TO.N,Net-(IC1-P2.01{slash}SPI.SCK)*%
X149794300Y-98735600D03*
%TO.P,U3,14,SDX*%
%TO.N,Net-(IC1-P2.00{slash}SPI.DCX)*%
X149294301Y-98735600D03*
%TD*%
D15*
%TO.P,D2,1,K*%
%TO.N,Net-(D2-K)*%
X133875000Y-100750000D03*
%TO.P,D2,2,A*%
%TO.N,Net-(D2-A)*%
X135450000Y-100750000D03*
%TD*%
D16*
%TO.P,D5,1,K*%
%TO.N,Net-(D5-K)*%
X147425000Y-105300000D03*
%TO.P,D5,2,A*%
%TO.N,Net-(D5-A)*%
X147425000Y-108850000D03*
%TD*%
D17*
%TO.P,R15,1*%
%TO.N,Net-(IC1-P2.06{slash}TRACECLK{slash}SPI.SCK)*%
X145650000Y-89890000D03*
%TO.P,R15,2*%
%TO.N,Net-(IC1-VDD_1)*%
X144000000Y-89890000D03*
%TD*%
D18*
%TO.P,C6,1*%
%TO.N,Net-(IC1-VDD_1)*%
X152700000Y-100350000D03*
%TO.P,C6,2*%
%TO.N,GND*%
X152700000Y-101900000D03*
%TD*%
D19*
%TO.P,R1,1*%
%TO.N,GND*%
X141300000Y-114625000D03*
%TO.P,R1,2*%
%TO.N,Net-(J1-SHIELD)*%
X142950000Y-114625000D03*
%TD*%
D12*
%TO.P,C19,1*%
%TO.N,GND*%
X165035000Y-104760000D03*
%TO.P,C19,2*%
%TO.N,Net-(IC1-P1.08{slash}CLK16M{slash}TAMPC)*%
X163485000Y-104760000D03*
%TD*%
D20*
%TO.P,U1,1,GND*%
%TO.N,GND*%
X156525001Y-99706200D03*
%TO.P,U1,2,VOUT*%
%TO.N,Net-(IC1-VDD_1)*%
X154624999Y-99706200D03*
%TO.P,U1,3,VIN*%
%TO.N,Net-(D5-K)*%
X155575000Y-102093800D03*
%TD*%
D21*
%TO.P,C15,1*%
%TO.N,GND*%
X151175000Y-85110000D03*
%TO.P,C15,2*%
%TO.N,Net-(IC1-DECA)*%
X151175000Y-83560000D03*
%TD*%
D22*
%TO.P,SW,1,1*%
%TO.N,Net-(D5-K)*%
X166300000Y-102675000D03*
%TD*%
D11*
%TO.P,R17,1*%
%TO.N,GND*%
X151730000Y-110305000D03*
%TO.P,R17,2*%
%TO.N,Net-(U2-TMR)*%
X151730000Y-108655000D03*
%TD*%
D23*
%TO.P,AE1,1,1*%
%TO.N,Net-(AE1-Pad1)*%
X164955420Y-96219874D03*
%TO.P,AE1,2*%
%TO.N,N/C*%
X164955420Y-99572674D03*
%TD*%
D21*
%TO.P,C22,1*%
%TO.N,GND*%
X159875000Y-100250000D03*
%TO.P,C22,2*%
%TO.N,Net-(AE1-Pad1)*%
X159875000Y-98700000D03*
%TD*%
D10*
%TO.P,U5,1,G*%
%TO.N,Net-(IC1-P2.03)*%
X140777500Y-94967200D03*
%TO.P,U5,2,S*%
%TO.N,GND*%
X138872500Y-94967200D03*
%TO.P,U5,3,D*%
%TO.N,Net-(D2-K)*%
X139825000Y-97050000D03*
%TD*%
D24*
%TO.P,U2,1,TS*%
%TO.N,Net-(U2-TS)*%
X154850000Y-107350000D03*
%TO.P,U2,2,BAT*%
%TO.N,Net-(U2-BAT)*%
X155350000Y-107350000D03*
%TO.P,U2,3,BAT__1*%
X155850000Y-107350000D03*
%TO.P,U2,4,~{CE}*%
%TO.N,GND*%
X156350000Y-107350000D03*
D25*
%TO.P,U2,5,EN2*%
X157000000Y-106700000D03*
%TO.P,U2,6,EN1*%
X157000000Y-106200000D03*
%TO.P,U2,7,~{PGOOD}*%
%TO.N,Net-(IC1-P2.06{slash}TRACECLK{slash}SPI.SCK)*%
X157000000Y-105700000D03*
%TO.P,U2,8,VSS*%
%TO.N,GND*%
X157000000Y-105200000D03*
D24*
%TO.P,U2,9,~{CHG}*%
%TO.N,Net-(IC1-P2.07{slash}TRACEDATA[0]{slash}SWO{slash}SPI.DCX)*%
X156350000Y-104550000D03*
%TO.P,U2,10,OUT*%
%TO.N,Net-(U2-OUT)*%
X155850000Y-104550000D03*
%TO.P,U2,11,OUT__1*%
X155350000Y-104550000D03*
%TO.P,U2,12,ILIM*%
%TO.N,unconnected-(U2-ILIM-Pad12)*%
X154850000Y-104550000D03*
D25*
%TO.P,U2,13,IN*%
%TO.N,Net-(D5-A)*%
X154200000Y-105200000D03*
%TO.P,U2,14,TMR*%
%TO.N,Net-(U2-TMR)*%
X154200000Y-105700000D03*
%TO.P,U2,15,TD*%
%TO.N,GND*%
X154200000Y-106200000D03*
%TO.P,U2,16,ISET*%
%TO.N,Net-(U2-ISET)*%
X154200000Y-106700000D03*
D26*
%TO.P,U2,17,EXP*%
%TO.N,GND*%
X155600000Y-105950000D03*
D27*
%TO.P,U2,18*%
X155600000Y-105950000D03*
%TO.P,U2,19*%
X155020000Y-106530000D03*
%TO.P,U2,20*%
X155020000Y-105370000D03*
%TO.P,U2,21*%
X156180000Y-106530000D03*
%TO.P,U2,22*%
X156180000Y-105370000D03*
%TD*%
D17*
%TO.P,R9,1*%
%TO.N,Net-(IC1-P1.08{slash}CLK16M{slash}TAMPC)*%
X163440000Y-108210000D03*
%TO.P,R9,2*%
%TO.N,Net-(U2-BAT)*%
X161790000Y-108210000D03*
%TD*%
D28*
%TO.P,L1,1,1*%
%TO.N,Net-(IC1-DCC)*%
X157000000Y-83560000D03*
%TO.P,L1,2,2*%
%TO.N,Net-(IC1-DECD)*%
X155425000Y-83560000D03*
%TD*%
D29*
%TO.P,C5,1*%
%TO.N,GND*%
X151200000Y-103450000D03*
%TO.P,C5,2*%
%TO.N,Net-(D5-K)*%
X152750000Y-103450000D03*
%TD*%
D11*
%TO.P,R6,1*%
%TO.N,Net-(IC1-NRESET)*%
X146275000Y-86600000D03*
%TO.P,R6,2*%
%TO.N,Net-(J2-Pad06)*%
X146275000Y-84950000D03*
%TD*%
D22*
%TO.P,SW,1,1*%
%TO.N,Net-(U2-OUT)*%
X160775000Y-102675000D03*
%TD*%
D21*
%TO.P,C14,1*%
%TO.N,GND*%
X153825000Y-83925000D03*
%TO.P,C14,2*%
%TO.N,Net-(IC1-DECD)*%
X153825000Y-82375000D03*
%TD*%
D29*
%TO.P,C9,1*%
%TO.N,GND*%
X147925000Y-86050000D03*
%TO.P,C9,2*%
%TO.N,Net-(IC1-VDD_1)*%
X149475000Y-86050000D03*
%TD*%
D19*
%TO.P,R7,1*%
%TO.N,Net-(IC1-VDD_1)*%
X144000000Y-93625000D03*
%TO.P,R7,2*%
%TO.N,Net-(IC1-P2.00{slash}SPI.DCX)*%
X145650000Y-93625000D03*
%TD*%
D21*
%TO.P,C4,1*%
%TO.N,Net-(U2-OUT)*%
X158300000Y-102175000D03*
%TO.P,C4,2*%
%TO.N,GND*%
X158300000Y-100625000D03*
%TD*%
D19*
%TO.P,R11,1*%
%TO.N,Net-(D1-A)*%
X138525000Y-99050000D03*
%TO.P,R11,2*%
%TO.N,Net-(IC1-VDD_1)*%
X140175000Y-99050000D03*
%TD*%
D18*
%TO.P,C2,1*%
%TO.N,Net-(D5-A)*%
X149400000Y-106425000D03*
%TO.P,C2,2*%
%TO.N,GND*%
X149400000Y-107975000D03*
%TD*%
D19*
%TO.P,R10,1*%
%TO.N,Net-(IC1-P1.08{slash}CLK16M{slash}TAMPC)*%
X163450000Y-106490000D03*
%TO.P,R10,2*%
%TO.N,GND*%
X165100000Y-106490000D03*
%TD*%
D30*
%TO.P,J2,01,01*%
%TO.N,Net-(IC1-VDD_1)*%
X141910000Y-85625000D03*
D31*
%TO.P,J2,02,02*%
%TO.N,Net-(IC1-SWDIO)*%
X141910000Y-84355000D03*
%TO.P,J2,03,03*%
%TO.N,GND*%
X143180000Y-85625000D03*
%TO.P,J2,04,04*%
%TO.N,Net-(IC1-SWDCLK)*%
X143180000Y-84355000D03*
%TO.P,J2,05,05*%
%TO.N,GND*%
X144450000Y-85625000D03*
%TO.P,J2,06,06*%
%TO.N,Net-(J2-Pad06)*%
X144450000Y-84355000D03*
%TD*%
D32*
%TO.P,IC1,1,P1.00/XL1*%
%TO.N,Net-(IC1-P1.00{slash}XL1)*%
X157175000Y-87425000D03*
%TO.P,IC1,2,P1.01/XL2*%
%TO.N,Net-(IC1-P1.01{slash}XL2)*%
X156775000Y-87425000D03*
%TO.P,IC1,3,P1.02/NFC1*%
%TO.N,unconnected-(IC1-P1.02{slash}NFC1-Pad3)*%
X156375000Y-87425000D03*
%TO.P,IC1,4,P1.03/NFC2*%
%TO.N,unconnected-(IC1-P1.03{slash}NFC2-Pad4)*%
X155975000Y-87425000D03*
%TO.P,IC1,5,P1.04/AIN0/TAMPC*%
%TO.N,unconnected-(IC1-P1.04{slash}AIN0{slash}TAMPC-Pad5)*%
X155575000Y-87425000D03*
%TO.P,IC1,6,P1.05/AIN1/TAMPC*%
%TO.N,unconnected-(IC1-P1.05{slash}AIN1{slash}TAMPC-Pad6)*%
X155175000Y-87425000D03*
%TO.P,IC1,7,P1.06/AIN2/TAMPC*%
%TO.N,unconnected-(IC1-P1.06{slash}AIN2{slash}TAMPC-Pad7)*%
X154775000Y-87425000D03*
%TO.P,IC1,8,P1.07/AIN3/TAMPC*%
%TO.N,unconnected-(IC1-P1.07{slash}AIN3{slash}TAMPC-Pad8)*%
X154375000Y-87425000D03*
%TO.P,IC1,9,P1.08/CLK16M/TAMPC*%
%TO.N,Net-(IC1-P1.08{slash}CLK16M{slash}TAMPC)*%
X153975000Y-87425000D03*
%TO.P,IC1,10,VDD_1*%
%TO.N,Net-(IC1-VDD_1)*%
X153575000Y-87425000D03*
%TO.P,IC1,11,P2.00/SPI.DCX*%
%TO.N,Net-(IC1-P2.00{slash}SPI.DCX)*%
X153175000Y-87425000D03*
%TO.P,IC1,12,P2.01/SPI.SCK*%
%TO.N,Net-(IC1-P2.01{slash}SPI.SCK)*%
X152775000Y-87425000D03*
D33*
%TO.P,IC1,13,P2.02/SPI.SDI/SDO*%
%TO.N,Net-(IC1-P2.02{slash}SPI.SDI{slash}SDO)*%
X152025000Y-88175000D03*
%TO.P,IC1,14,P2.03*%
%TO.N,Net-(IC1-P2.03)*%
X152025000Y-88575000D03*
%TO.P,IC1,15,P2.04/SPI.SDI/SDO*%
%TO.N,Net-(IC1-P2.04{slash}SPI.SDI{slash}SDO)*%
X152025000Y-88975000D03*
%TO.P,IC1,16,P2.05/SPI.CS*%
%TO.N,Net-(IC1-P2.05{slash}SPI.CS)*%
X152025000Y-89375000D03*
%TO.P,IC1,17,P2.06/TRACECLK/SPI.SCK*%
%TO.N,Net-(IC1-P2.06{slash}TRACECLK{slash}SPI.SCK)*%
X152025000Y-89775000D03*
%TO.P,IC1,18,P2.07/TRACEDATA[0]/SWO/SPI.DCX*%
%TO.N,Net-(IC1-P2.07{slash}TRACEDATA[0]{slash}SWO{slash}SPI.DCX)*%
X152025000Y-90175000D03*
%TO.P,IC1,19,P2.08/TRACEDATA[1]/SPI.SDI/SDO*%
%TO.N,unconnected-(IC1-P2.08{slash}TRACEDATA[1]{slash}SPI.SDI{slash}SDO-Pad19)*%
X152025000Y-90575000D03*
%TO.P,IC1,20,P2.09/TRACEDATA[2]/SPI.SDI/SDO*%
%TO.N,unconnected-(IC1-P2.09{slash}TRACEDATA[2]{slash}SPI.SDI{slash}SDO-Pad20)*%
X152025000Y-90975000D03*
%TO.P,IC1,21,P2.10/TRACEDATA[3]/SPIM.CS*%
%TO.N,unconnected-(IC1-P2.10{slash}TRACEDATA[3]{slash}SPIM.CS-Pad21)*%
X152025000Y-91375000D03*
%TO.P,IC1,22,VDD_2*%
%TO.N,Net-(IC1-VDD_1)*%
X152025000Y-91775000D03*
%TO.P,IC1,23,P0.00*%
%TO.N,Net-(IC1-P0.00)*%
X152025000Y-92175000D03*
%TO.P,IC1,24,P0.01*%
%TO.N,Net-(IC1-P0.01)*%
X152025000Y-92575000D03*
D32*
%TO.P,IC1,25,SWDIO*%
%TO.N,Net-(IC1-SWDIO)*%
X152775000Y-93325000D03*
%TO.P,IC1,26,SWDCLK*%
%TO.N,Net-(IC1-SWDCLK)*%
X153175000Y-93325000D03*
%TO.P,IC1,27,P0.02*%
%TO.N,unconnected-(IC1-P0.02-Pad27)*%
X153575000Y-93325000D03*
%TO.P,IC1,28,P0.03/GRTC_PWMOUT*%
%TO.N,unconnected-(IC1-P0.03{slash}GRTC_PWMOUT-Pad28)*%
X153975000Y-93325000D03*
%TO.P,IC1,29,P0.04/GRTC_CLKOUT32K*%
%TO.N,unconnected-(IC1-P0.04{slash}GRTC_CLKOUT32K-Pad29)*%
X154375000Y-93325000D03*
%TO.P,IC1,30,NRESET*%
%TO.N,Net-(IC1-NRESET)*%
X154775000Y-93325000D03*
%TO.P,IC1,31,ANT*%
%TO.N,Net-(IC1-ANT)*%
X155175000Y-93325000D03*
%TO.P,IC1,32,VSS_PA*%
%TO.N,GND*%
X155575000Y-93325000D03*
%TO.P,IC1,33,DECRF*%
%TO.N,Net-(IC1-DECA)*%
X155975000Y-93325000D03*
%TO.P,IC1,34,XC1*%
%TO.N,Net-(IC1-XC1)*%
X156375000Y-93325000D03*
%TO.P,IC1,35,XC2*%
%TO.N,Net-(IC1-XC2)*%
X156775000Y-93325000D03*
%TO.P,IC1,36,VDD_3*%
%TO.N,Net-(IC1-VDD_1)*%
X157175000Y-93325000D03*
D33*
%TO.P,IC1,37,P1.09/TAMPC*%
%TO.N,unconnected-(IC1-P1.09{slash}TAMPC-Pad37)*%
X157925000Y-92575000D03*
%TO.P,IC1,38,P1.10/TAMPC*%
%TO.N,unconnected-(IC1-P1.10{slash}TAMPC-Pad38)*%
X157925000Y-92175000D03*
%TO.P,IC1,39,P1.11/AIN4*%
%TO.N,unconnected-(IC1-P1.11{slash}AIN4-Pad39)*%
X157925000Y-91775000D03*
%TO.P,IC1,40,P1.12/AIN5*%
%TO.N,unconnected-(IC1-P1.12{slash}AIN5-Pad40)*%
X157925000Y-91375000D03*
%TO.P,IC1,41,P1.13/AIN6*%
%TO.N,unconnected-(IC1-P1.13{slash}AIN6-Pad41)*%
X157925000Y-90975000D03*
%TO.P,IC1,42,P1.14/AIN7*%
%TO.N,unconnected-(IC1-P1.14{slash}AIN7-Pad42)*%
X157925000Y-90575000D03*
%TO.P,IC1,43,DECA*%
%TO.N,Net-(IC1-DECA)*%
X157925000Y-90175000D03*
%TO.P,IC1,44,VSS*%
%TO.N,GND*%
X157925000Y-89775000D03*
%TO.P,IC1,45,DECD*%
%TO.N,Net-(IC1-DECD)*%
X157925000Y-89375000D03*
%TO.P,IC1,46,DCC*%
%TO.N,Net-(IC1-DCC)*%
X157925000Y-88975000D03*
%TO.P,IC1,47,VDD_4*%
%TO.N,Net-(IC1-VDD_1)*%
X157925000Y-88575000D03*
%TO.P,IC1,48,VDD_5*%
X157925000Y-88175000D03*
D34*
%TO.P,IC1,49,EP*%
%TO.N,GND*%
X154975000Y-90375000D03*
D35*
%TO.P,IC1,50*%
X156375000Y-88975000D03*
X154975000Y-88975000D03*
X153575000Y-88975000D03*
X156375000Y-90375000D03*
X154975000Y-90375000D03*
X153575000Y-90375000D03*
X156375000Y-91775000D03*
X154975000Y-91775000D03*
X153575000Y-91775000D03*
%TD*%
D12*
%TO.P,C7,1*%
%TO.N,GND*%
X164350000Y-89920000D03*
%TO.P,C7,2*%
%TO.N,Net-(IC1-VDD_1)*%
X162800000Y-89920000D03*
%TD*%
D15*
%TO.P,D4,1,K*%
%TO.N,Net-(D4-K)*%
X133875000Y-104250000D03*
%TO.P,D4,2,A*%
%TO.N,Net-(D4-A)*%
X135450000Y-104250000D03*
%TD*%
D36*
%TO.P,L3,1,1*%
%TO.N,Net-(C20-Pad2)*%
X158012500Y-96400000D03*
%TO.P,L3,2,2*%
%TO.N,Net-(C21-Pad1)*%
X158612500Y-96400000D03*
%TD*%
D21*
%TO.P,C12,1*%
%TO.N,GND*%
X154275000Y-97875000D03*
%TO.P,C12,2*%
%TO.N,Net-(IC1-DECA)*%
X154275000Y-96325000D03*
%TD*%
D19*
%TO.P,R12,1*%
%TO.N,Net-(D2-A)*%
X138525000Y-100750000D03*
%TO.P,R12,2*%
%TO.N,Net-(IC1-VDD_1)*%
X140175000Y-100750000D03*
%TD*%
D10*
%TO.P,U4,1,G*%
%TO.N,Net-(IC1-P2.02{slash}SPI.SDI{slash}SDO)*%
X136927500Y-94967200D03*
%TO.P,U4,2,S*%
%TO.N,GND*%
X135022500Y-94967200D03*
%TO.P,U4,3,D*%
%TO.N,Net-(D1-K)*%
X135975000Y-97050000D03*
%TD*%
D18*
%TO.P,C16,1*%
%TO.N,GND*%
X147850000Y-82150000D03*
%TO.P,C16,2*%
%TO.N,Net-(IC1-NRESET)*%
X147850000Y-83700000D03*
%TD*%
D37*
%TO.P,Y1,1,1*%
%TO.N,Net-(IC1-XC2)*%
X163800000Y-93225000D03*
%TO.P,Y1,2,2*%
%TO.N,GND*%
X165150000Y-93225000D03*
%TO.P,Y1,3*%
%TO.N,Net-(IC1-XC1)*%
X165150000Y-92175000D03*
%TO.P,Y1,4*%
%TO.N,GND*%
X163800000Y-92175000D03*
%TD*%
D19*
%TO.P,R4,1*%
%TO.N,Net-(U2-TS)*%
X156165000Y-113440000D03*
%TO.P,R4,2*%
%TO.N,GND*%
X157815000Y-113440000D03*
%TD*%
D38*
%TO.P,Y2,1,1*%
%TO.N,Net-(IC1-P1.01{slash}XL2)*%
X155250000Y-85410000D03*
%TO.P,Y2,2,2*%
%TO.N,Net-(IC1-P1.00{slash}XL1)*%
X156750000Y-85410000D03*
%TD*%
D39*
%TO.P,C20,1*%
%TO.N,GND*%
X156910000Y-95475000D03*
%TO.P,C20,2*%
%TO.N,Net-(C20-Pad2)*%
X157550000Y-95475000D03*
%TD*%
D40*
%TO.P,J1,A5,CC1*%
%TO.N,Net-(J1-CC1)*%
X149295000Y-112670000D03*
D41*
%TO.P,J1,A9,VBUS*%
%TO.N,Net-(D5-A)*%
X151315000Y-112670000D03*
D42*
%TO.P,J1,A12,GND*%
%TO.N,GND*%
X152545000Y-112670000D03*
D40*
%TO.P,J1,B5,CC2*%
%TO.N,Net-(J1-CC2)*%
X150295000Y-112670000D03*
D41*
%TO.P,J1,B9,VBUS__1*%
%TO.N,Net-(D5-A)*%
X148275000Y-112670000D03*
D42*
%TO.P,J1,B12,GND__1*%
%TO.N,GND*%
X147045000Y-112670000D03*
D43*
%TO.P,J1,SH1,SHIELD*%
%TO.N,Net-(J1-SHIELD)*%
X145475000Y-112750000D03*
%TO.P,J1,SH2,SHIELD__1*%
X145475000Y-116550000D03*
%TO.P,J1,SH3,SHIELD__2*%
%TO.N,unconnected-(J1-SHIELD__2-PadSH3)*%
X154115000Y-112750000D03*
%TO.P,J1,SH4,SHIELD__3*%
%TO.N,unconnected-(J1-SHIELD__3-PadSH4)*%
X154115000Y-116550000D03*
%TD*%
D10*
%TO.P,U7,1,G*%
%TO.N,Net-(IC1-P2.05{slash}SPI.CS)*%
X135022500Y-108300000D03*
%TO.P,U7,2,S*%
%TO.N,GND*%
X136927500Y-108300000D03*
%TO.P,U7,3,D*%
%TO.N,Net-(D4-K)*%
X135975000Y-106217200D03*
%TD*%
D18*
%TO.P,C11,1*%
%TO.N,GND*%
X159610000Y-91370000D03*
%TO.P,C11,2*%
%TO.N,Net-(IC1-VDD_1)*%
X159610000Y-92920000D03*
%TD*%
D19*
%TO.P,R13,1*%
%TO.N,Net-(D3-A)*%
X138525000Y-102550000D03*
%TO.P,R13,2*%
%TO.N,Net-(IC1-VDD_1)*%
X140175000Y-102550000D03*
%TD*%
%TO.P,R14,1*%
%TO.N,Net-(D4-A)*%
X138525000Y-104250000D03*
%TO.P,R14,2*%
%TO.N,Net-(IC1-VDD_1)*%
X140175000Y-104250000D03*
%TD*%
D11*
%TO.P,R2,1*%
%TO.N,Net-(J1-CC2)*%
X145325000Y-109025000D03*
%TO.P,R2,2*%
%TO.N,GND*%
X145325000Y-107375000D03*
%TD*%
D29*
%TO.P,C1,1*%
%TO.N,GND*%
X141350000Y-113025000D03*
%TO.P,C1,2*%
%TO.N,Net-(J1-SHIELD)*%
X142900000Y-113025000D03*
%TD*%
D17*
%TO.P,R16,1*%
%TO.N,Net-(IC1-P2.07{slash}TRACEDATA[0]{slash}SWO{slash}SPI.DCX)*%
X145650000Y-91515000D03*
%TO.P,R16,2*%
%TO.N,Net-(IC1-VDD_1)*%
X144000000Y-91515000D03*
%TD*%
D36*
%TO.P,L4,1,1*%
%TO.N,Net-(C21-Pad1)*%
X159712500Y-96400000D03*
%TO.P,L4,2,2*%
%TO.N,Net-(AE1-Pad1)*%
X160312500Y-96400000D03*
%TD*%
D22*
%TO.P,B-,1,1*%
%TO.N,GND*%
X161950000Y-111250000D03*
%TD*%
D44*
%TO.P,C21,1*%
%TO.N,Net-(C21-Pad1)*%
X158600000Y-98350000D03*
%TO.P,C21,2*%
%TO.N,GND*%
X157960000Y-98350000D03*
%TD*%
D45*
%TO.P,FB1,1*%
%TO.N,Net-(IC1-DECD)*%
X152000000Y-82025000D03*
%TO.P,FB1,2*%
%TO.N,Net-(IC1-DECA)*%
X150530000Y-82025000D03*
%TD*%
D19*
%TO.P,R8,1*%
%TO.N,Net-(IC1-VDD_1)*%
X144000000Y-95225000D03*
%TO.P,R8,2*%
%TO.N,Net-(IC1-P2.01{slash}SPI.SCK)*%
X145650000Y-95225000D03*
%TD*%
D36*
%TO.P,L2,1,1*%
%TO.N,Net-(IC1-ANT)*%
X156287500Y-96400000D03*
%TO.P,L2,2,2*%
%TO.N,Net-(C20-Pad2)*%
X156887500Y-96400000D03*
%TD*%
D21*
%TO.P,C10,1*%
%TO.N,GND*%
X147450000Y-95800000D03*
%TO.P,C10,2*%
%TO.N,Net-(IC1-VDD_1)*%
X147450000Y-94250000D03*
%TD*%
%TO.P,C13,1*%
%TO.N,GND*%
X152700000Y-97875000D03*
%TO.P,C13,2*%
%TO.N,Net-(IC1-DECA)*%
X152700000Y-96325000D03*
%TD*%
D12*
%TO.P,C8,1*%
%TO.N,GND*%
X163490000Y-88310000D03*
%TO.P,C8,2*%
%TO.N,Net-(IC1-VDD_1)*%
X161940000Y-88310000D03*
%TD*%
D22*
%TO.P,B+,1,1*%
%TO.N,Net-(U2-BAT)*%
X157050000Y-111250000D03*
%TD*%
D29*
%TO.P,C18,1*%
%TO.N,GND*%
X145265000Y-97330000D03*
%TO.P,C18,2*%
%TO.N,Net-(IC1-VDD_1)*%
X146815000Y-97330000D03*
%TD*%
D15*
%TO.P,D3,1,K*%
%TO.N,Net-(D3-K)*%
X133875000Y-102550000D03*
%TO.P,D3,2,A*%
%TO.N,Net-(D3-A)*%
X135450000Y-102550000D03*
%TD*%
D29*
%TO.P,C3,1*%
%TO.N,Net-(U2-BAT)*%
X157250000Y-109000000D03*
%TO.P,C3,2*%
%TO.N,GND*%
X158800000Y-109000000D03*
%TD*%
D46*
%TO.P,R5,1*%
%TO.N,Net-(U2-ISET)*%
X153300000Y-108650000D03*
%TO.P,R5,2*%
%TO.N,GND*%
X153300000Y-110300000D03*
%TD*%
D15*
%TO.P,D1,1,K*%
%TO.N,Net-(D1-K)*%
X133887500Y-99050000D03*
%TO.P,D1,2,A*%
%TO.N,Net-(D1-A)*%
X135462500Y-99050000D03*
%TD*%
D47*
%TO.N,GND*%
X145325000Y-105350000D03*
X152575000Y-116575000D03*
X147050000Y-116600000D03*
X138925000Y-111975000D03*
X140900000Y-97800000D03*
X135350000Y-88525000D03*
X145325000Y-85700000D03*
X144075000Y-116925000D03*
X139850000Y-113825000D03*
%TO.N,Net-(D5-K)*%
X156775000Y-101125000D03*
X160900000Y-101350000D03*
%TO.N,GND*%
X146175000Y-107350000D03*
X162275000Y-102475000D03*
X167925000Y-101325000D03*
X147800000Y-111250000D03*
X143625000Y-105350000D03*
X147050000Y-114000000D03*
X161875000Y-93125000D03*
X139825000Y-95675000D03*
X157725000Y-98350000D03*
X152050000Y-111260000D03*
X166350000Y-106470000D03*
X133500000Y-91525000D03*
X141625000Y-105075000D03*
X143000000Y-96000000D03*
X163775000Y-91200000D03*
X143825000Y-86300000D03*
X135950000Y-109625000D03*
X158820000Y-115290000D03*
X137900000Y-108350000D03*
X143025000Y-99400000D03*
X147950000Y-98925000D03*
X139825000Y-93650000D03*
X136927500Y-108300000D03*
X159030000Y-113430000D03*
X160225000Y-104700000D03*
X136975000Y-96375000D03*
X161950000Y-112750000D03*
X151175000Y-85110000D03*
X161725000Y-105625000D03*
X156950000Y-107300000D03*
X143550000Y-110250000D03*
X153950000Y-102300000D03*
X161925000Y-109750000D03*
X162775000Y-87075000D03*
X146175000Y-102625000D03*
X155800000Y-100475000D03*
X153030000Y-106760000D03*
X140890000Y-83750000D03*
X160150000Y-89000000D03*
X142475000Y-92350000D03*
X165150000Y-93225000D03*
X137125000Y-109625000D03*
X141375000Y-111875000D03*
X136000000Y-111450000D03*
X155450000Y-97125000D03*
X165420000Y-90380000D03*
X137575000Y-105100000D03*
X158225000Y-100300000D03*
X145400000Y-81975000D03*
X136000000Y-95675000D03*
X139825000Y-107575000D03*
X135475000Y-93125000D03*
X137900000Y-85825000D03*
X159610000Y-91370000D03*
X143275000Y-103400000D03*
X164250000Y-103625000D03*
X159690000Y-111860000D03*
X164810000Y-109410000D03*
X133775000Y-96800000D03*
X145625000Y-96500000D03*
X140775000Y-109700000D03*
X148500000Y-84925000D03*
X149775000Y-117775000D03*
X153825000Y-98975000D03*
X156525000Y-98175000D03*
X135975000Y-107575000D03*
X155840000Y-116570000D03*
X160425000Y-84925000D03*
X159825000Y-108650000D03*
X166330000Y-104750000D03*
X153310000Y-111320000D03*
X135022500Y-94967200D03*
X142240000Y-97310000D03*
X142525000Y-90750000D03*
X140950000Y-96425000D03*
X160370000Y-107260000D03*
X144075000Y-111950000D03*
X141300000Y-115800000D03*
X151375000Y-102375000D03*
X149090000Y-83380000D03*
X152550000Y-114000000D03*
X139875000Y-90600000D03*
X149550000Y-101475000D03*
X152375000Y-84850000D03*
X145650000Y-100175000D03*
X140777500Y-108282800D03*
X149800000Y-99600000D03*
X142000000Y-106800000D03*
X138872500Y-94967200D03*
X140475000Y-86750000D03*
X146675000Y-96050000D03*
%TO.N,Net-(IC1-VDD_1)*%
X144000000Y-89890000D03*
X158450000Y-87475000D03*
X152700000Y-100725000D03*
X150670000Y-91180000D03*
X148390000Y-93170000D03*
X153650000Y-85375000D03*
X160875000Y-88050000D03*
X148200000Y-97325000D03*
X150710000Y-97330000D03*
%TO.N,Net-(IC1-DECA)*%
X154275000Y-96325000D03*
X160975000Y-90175000D03*
X158720000Y-95225000D03*
X152450000Y-83560000D03*
%TO.N,Net-(IC1-DECD)*%
X160310000Y-86190000D03*
X155425000Y-83560000D03*
%TO.N,Net-(IC1-NRESET)*%
X151650000Y-95225000D03*
X146275000Y-86600000D03*
%TO.N,Net-(IC1-P1.08{slash}CLK16M{slash}TAMPC)*%
X145612500Y-92562500D03*
X159425000Y-106525000D03*
X154300000Y-86425000D03*
X147787500Y-90587500D03*
%TO.N,Net-(D2-K)*%
X139825000Y-97050000D03*
X133875000Y-100750000D03*
%TO.N,Net-(D3-K)*%
X133875000Y-102550000D03*
X139825000Y-106200000D03*
%TO.N,Net-(IC1-P2.05{slash}SPI.CS)*%
X141395000Y-89785000D03*
X139700000Y-88585000D03*
%TO.N,Net-(IC1-P2.06{slash}TRACECLK{slash}SPI.SCK)*%
X158700000Y-105675000D03*
X145650000Y-89890000D03*
%TO.N,Net-(IC1-P2.04{slash}SPI.SDI{slash}SDO)*%
X142070000Y-88910000D03*
X140500000Y-87650000D03*
%TO.N,Net-(IC1-P2.00{slash}SPI.DCX)*%
X148860000Y-90750000D03*
X150875000Y-86800000D03*
%TO.N,Net-(IC1-P2.07{slash}TRACEDATA[0]{slash}SWO{slash}SPI.DCX)*%
X156975000Y-103625000D03*
X145650000Y-91515000D03*
%TO.N,Net-(IC1-SWDIO)*%
X151725000Y-93325000D03*
%TO.N,Net-(IC1-P2.01{slash}SPI.SCK)*%
X151475000Y-87425000D03*
X149810000Y-90750000D03*
X148210000Y-91990000D03*
%TO.N,Net-(IC1-P0.00)*%
X150675000Y-96300000D03*
X147100000Y-99675000D03*
%TO.N,Net-(IC1-SWDCLK)*%
X151425000Y-94275000D03*
%TO.N,Net-(J2-Pad06)*%
X146275000Y-84950000D03*
%TD*%
D48*
%TO.N,Net-(D5-K)*%
X156543800Y-101125000D02*
X155575000Y-102093800D01*
X156775000Y-101125000D02*
X156543800Y-101125000D01*
X154218800Y-103450000D02*
X152750000Y-103450000D01*
X155575000Y-102093800D02*
X154218800Y-103450000D01*
%TO.N,Net-(D5-A)*%
X150500000Y-107550000D02*
X150500000Y-111125000D01*
X150500000Y-111125000D02*
X148225000Y-108850000D01*
X151313000Y-111938000D02*
X150500000Y-111125000D01*
X151315000Y-111938000D02*
X151313000Y-111938000D01*
D49*
%TO.N,GND*%
X157850000Y-104700000D02*
X157350000Y-105200000D01*
X160225000Y-104700000D02*
X157850000Y-104700000D01*
X157350000Y-105200000D02*
X157000000Y-105200000D01*
X160225000Y-104700000D02*
X160200000Y-104725000D01*
D48*
%TO.N,Net-(D5-K)*%
X164350000Y-101350000D02*
X160900000Y-101350000D01*
X164975000Y-101350000D02*
X164350000Y-101350000D01*
X166300000Y-102675000D02*
X164975000Y-101350000D01*
%TO.N,Net-(U2-OUT)*%
X160275000Y-102175000D02*
X160775000Y-102675000D01*
X158300000Y-102175000D02*
X160275000Y-102175000D01*
X157300000Y-102175000D02*
X155600000Y-103875000D01*
X158300000Y-102175000D02*
X157300000Y-102175000D01*
%TO.N,Net-(D5-A)*%
X148225000Y-108850000D02*
X147425000Y-108850000D01*
%TO.N,Net-(D5-K)*%
X150900000Y-105300000D02*
X147425000Y-105300000D01*
X152750000Y-103450000D02*
X150900000Y-105300000D01*
D49*
%TO.N,Net-(J1-CC1)*%
X148133900Y-110276000D02*
X144876000Y-110276000D01*
X149295000Y-111437100D02*
X148133900Y-110276000D01*
X149295000Y-112670000D02*
X149295000Y-111437100D01*
X144876000Y-110276000D02*
X143625000Y-109025000D01*
%TO.N,Net-(J1-CC2)*%
X148300000Y-109875000D02*
X150295000Y-111870000D01*
X150295000Y-111870000D02*
X150295000Y-112670000D01*
X146175000Y-109875000D02*
X148300000Y-109875000D01*
X145325000Y-109025000D02*
X146175000Y-109875000D01*
%TO.N,Net-(D5-A)*%
X149400000Y-106425000D02*
X151625000Y-106425000D01*
D48*
X151625000Y-106425000D02*
X150500000Y-107550000D01*
D49*
%TO.N,Net-(AE1-Pad1)*%
X160312500Y-96400000D02*
X164775294Y-96400000D01*
X164933220Y-96197674D02*
X164955420Y-96219874D01*
X160312500Y-96400000D02*
X160312500Y-97875000D01*
X164775294Y-96400000D02*
X164955420Y-96219874D01*
X164935546Y-96200000D02*
X164955420Y-96219874D01*
X159875000Y-98312500D02*
X160312500Y-97875000D01*
X159875000Y-98700000D02*
X159875000Y-98312500D01*
%TO.N,GND*%
X156475000Y-107550000D02*
X156475000Y-107075000D01*
X153450000Y-88150000D02*
X153448000Y-88148000D01*
X153590000Y-106200000D02*
X153030000Y-106760000D01*
X156475000Y-107475000D02*
X156475000Y-107550000D01*
X150294299Y-100564400D02*
X149794300Y-100564400D01*
X156975000Y-89775000D02*
X156375000Y-90375000D01*
X156350000Y-106700000D02*
X155600000Y-105950000D01*
X157925000Y-89775000D02*
X156975000Y-89775000D01*
X155575000Y-93325000D02*
X155575000Y-94345400D01*
X155350000Y-106200000D02*
X155600000Y-105950000D01*
X154200000Y-106200000D02*
X155350000Y-106200000D01*
X157000000Y-106200000D02*
X157575000Y-106200000D01*
X156350000Y-105200000D02*
X155600000Y-105950000D01*
X149794300Y-100564400D02*
X149794300Y-99605700D01*
X155575000Y-94345400D02*
X156704600Y-95475000D01*
X156350000Y-107350000D02*
X156475000Y-107475000D01*
X156350000Y-107350000D02*
X156350000Y-106700000D01*
X154200000Y-106200000D02*
X153590000Y-106200000D01*
X149794300Y-99605700D02*
X149800000Y-99600000D01*
X155575000Y-93325000D02*
X155575000Y-92375000D01*
X157000000Y-106700000D02*
X156350000Y-106700000D01*
X157000000Y-105200000D02*
X156350000Y-105200000D01*
X159375000Y-89775000D02*
X157925000Y-89775000D01*
X160150000Y-89000000D02*
X159375000Y-89775000D01*
X156704600Y-95475000D02*
X156910000Y-95475000D01*
X157575000Y-106200000D02*
X157775000Y-106400000D01*
X155575000Y-92375000D02*
X154975000Y-91775000D01*
D48*
%TO.N,Net-(J1-SHIELD)*%
X142900000Y-113025000D02*
X145200000Y-113025000D01*
X142900000Y-113025000D02*
X142900000Y-114575000D01*
X142950000Y-114625000D02*
X143550000Y-114625000D01*
X145200000Y-113025000D02*
X145475000Y-112750000D01*
X143550000Y-114625000D02*
X145475000Y-116550000D01*
%TO.N,Net-(D5-A)*%
X151000000Y-114150000D02*
X148550000Y-114150000D01*
X151315000Y-111938000D02*
X151315000Y-112670000D01*
X154200000Y-105200000D02*
X152850000Y-105200000D01*
X151315000Y-112670000D02*
X151315000Y-113835000D01*
X151315000Y-113835000D02*
X151000000Y-114150000D01*
X152850000Y-105200000D02*
X152320000Y-105730000D01*
X152320000Y-105730000D02*
X151625000Y-106425000D01*
X148275000Y-113875000D02*
X148275000Y-112670000D01*
X148550000Y-114150000D02*
X148275000Y-113875000D01*
%TO.N,Net-(U2-BAT)*%
X161690000Y-108210000D02*
X161790000Y-108210000D01*
X157050000Y-111250000D02*
X158650000Y-111250000D01*
D50*
X155350000Y-107350000D02*
X155350000Y-108600000D01*
X155850000Y-107350000D02*
X155850000Y-107950000D01*
D48*
X158650000Y-111250000D02*
X161690000Y-108210000D01*
D50*
X155350000Y-108600000D02*
X155350000Y-109050000D01*
D49*
%TO.N,Net-(IC1-VDD_1)*%
X158225000Y-87475000D02*
X157925000Y-87775000D01*
D48*
X149449943Y-102500000D02*
X148650000Y-102500000D01*
D49*
X141900000Y-85720000D02*
X141910000Y-85710000D01*
X150294299Y-97755701D02*
X150710000Y-97340000D01*
X153650000Y-85425000D02*
X153650000Y-85375000D01*
D48*
X140175000Y-104250000D02*
X140175000Y-104233701D01*
D49*
X160900000Y-88050000D02*
X161160000Y-88310000D01*
X153025000Y-86050000D02*
X153575000Y-86600000D01*
X159405000Y-92920000D02*
X159000000Y-93325000D01*
X149475000Y-86050000D02*
X153025000Y-86050000D01*
D48*
X148650000Y-102500000D02*
X148650000Y-101933701D01*
D49*
X150294299Y-97755701D02*
X150294299Y-98735600D01*
D48*
X149449943Y-102500000D02*
X149850000Y-102500000D01*
D49*
X150950000Y-100400001D02*
X152375001Y-100400001D01*
D48*
X148650000Y-101933701D02*
X147925000Y-101208701D01*
D49*
X162800000Y-89920000D02*
X162800000Y-89170000D01*
X147450000Y-94110000D02*
X148390000Y-93170000D01*
X148200000Y-97325000D02*
X148893301Y-96631699D01*
X150670000Y-91180000D02*
X150675000Y-91180000D01*
X157925000Y-88575000D02*
X157925000Y-88175000D01*
X149294301Y-100564400D02*
X148650000Y-101208701D01*
X157175000Y-93325000D02*
X159000000Y-93325000D01*
X146815000Y-97330000D02*
X148195000Y-97330000D01*
X150675000Y-91180000D02*
X151270000Y-91775000D01*
X153025000Y-86050000D02*
X153650000Y-85425000D01*
D48*
X143200000Y-101208701D02*
X142350000Y-101208701D01*
X144850000Y-101208701D02*
X144400000Y-101208701D01*
D49*
X159610000Y-92920000D02*
X159800000Y-92920000D01*
X158450000Y-87475000D02*
X158225000Y-87475000D01*
D48*
X144000000Y-93625000D02*
X144000000Y-95225000D01*
X144000000Y-91515000D02*
X144000000Y-89890000D01*
D49*
X153575000Y-86600000D02*
X153575000Y-87425000D01*
D48*
X146550000Y-101208701D02*
X146100000Y-101208701D01*
D49*
X150950000Y-100400001D02*
X150950000Y-100999943D01*
X160875000Y-88050000D02*
X160900000Y-88050000D01*
D48*
X144000000Y-91515000D02*
X144000000Y-93625000D01*
X145175000Y-101208701D02*
X144000000Y-100033700D01*
D49*
X151270000Y-91775000D02*
X152025000Y-91775000D01*
X152375001Y-100400001D02*
X152562500Y-100587500D01*
X152562500Y-100587500D02*
X152700000Y-100725000D01*
D48*
X144400000Y-101208701D02*
X143200000Y-101208701D01*
D49*
X141910000Y-85710000D02*
X141910000Y-85625000D01*
X161160000Y-88310000D02*
X161940000Y-88310000D01*
D48*
X144000000Y-95225000D02*
X144000000Y-100033700D01*
D49*
X148893301Y-93673301D02*
X148390000Y-93170000D01*
X157925000Y-87775000D02*
X157925000Y-88175000D01*
X148195000Y-97330000D02*
X148200000Y-97325000D01*
X150710000Y-97340000D02*
X150710000Y-97330000D01*
X148650000Y-101208701D02*
X148650000Y-101933701D01*
X159610000Y-92920000D02*
X159405000Y-92920000D01*
D48*
X146100000Y-101208701D02*
X145175000Y-101208701D01*
D49*
X159800000Y-92920000D02*
X162800000Y-89920000D01*
D48*
X149850000Y-102500000D02*
X151250000Y-101100000D01*
D49*
X148893301Y-96631699D02*
X148893301Y-93673301D01*
D48*
X145175000Y-101208701D02*
X144850000Y-101208701D01*
D49*
X162800000Y-89170000D02*
X161940000Y-88310000D01*
D48*
X147925000Y-101208701D02*
X146550000Y-101208701D01*
D49*
X147450000Y-94250000D02*
X147450000Y-94110000D01*
D48*
X140175000Y-99050000D02*
X140191299Y-99050000D01*
D49*
%TO.N,Net-(IC1-DECA)*%
X158720000Y-95225000D02*
X158350000Y-95225000D01*
X157950000Y-94825000D02*
X156621700Y-94825000D01*
X151175000Y-83560000D02*
X152450000Y-83560000D01*
X152700000Y-96325000D02*
X154275000Y-96325000D01*
X156621700Y-94825000D02*
X155975000Y-94178300D01*
X150530000Y-82025000D02*
X150530000Y-82915000D01*
X155975000Y-94178300D02*
X155975000Y-93325000D01*
X160975000Y-90175000D02*
X157925000Y-90175000D01*
X158350000Y-95225000D02*
X157950000Y-94825000D01*
X150530000Y-82915000D02*
X151175000Y-83560000D01*
%TO.N,Net-(IC1-DECD)*%
X160310000Y-87810000D02*
X160310000Y-86190000D01*
X158610000Y-89375000D02*
X158745000Y-89375000D01*
X158745000Y-89375000D02*
X160310000Y-87810000D01*
X155010000Y-83560000D02*
X153825000Y-82375000D01*
X158610000Y-89375000D02*
X157925000Y-89375000D01*
X153825000Y-82375000D02*
X152350000Y-82375000D01*
X152350000Y-82375000D02*
X152000000Y-82025000D01*
X155425000Y-83560000D02*
X155010000Y-83560000D01*
%TO.N,Net-(IC1-NRESET)*%
X147200000Y-85214064D02*
X147200000Y-84350000D01*
X151650000Y-95225000D02*
X153402000Y-95225000D01*
X147200000Y-84350000D02*
X147850000Y-83700000D01*
X154775000Y-93852000D02*
X154775000Y-93325000D01*
X146275000Y-86600000D02*
X146275000Y-86139064D01*
X153402000Y-95225000D02*
X154775000Y-93852000D01*
X146275000Y-86139064D02*
X147200000Y-85214064D01*
%TO.N,Net-(IC1-P1.08{slash}CLK16M{slash}TAMPC)*%
X163450000Y-104795000D02*
X163485000Y-104760000D01*
X163485000Y-104760000D02*
X161190000Y-104760000D01*
X163440000Y-106500000D02*
X163450000Y-106490000D01*
X147787500Y-90587500D02*
X145812500Y-92562500D01*
X161190000Y-104760000D02*
X159425000Y-106525000D01*
X154300000Y-86425000D02*
X153975000Y-86750000D01*
X163440000Y-108210000D02*
X163440000Y-106500000D01*
X153975000Y-86750000D02*
X153975000Y-87425000D01*
X163450000Y-106490000D02*
X163450000Y-104795000D01*
X145812500Y-92562500D02*
X145612500Y-92562500D01*
%TO.N,Net-(C20-Pad2)*%
X158012500Y-95937500D02*
X157550000Y-95475000D01*
X156887500Y-96400000D02*
X158012500Y-96400000D01*
X158012500Y-96400000D02*
X158012500Y-95937500D01*
%TO.N,Net-(C21-Pad1)*%
X158600000Y-98350000D02*
X158600000Y-96412500D01*
X158612500Y-96400000D02*
X159712500Y-96400000D01*
D48*
%TO.N,Net-(D1-K)*%
X133887500Y-98387500D02*
X135225000Y-97050000D01*
X133887500Y-99050000D02*
X133887500Y-98387500D01*
X135225000Y-97050000D02*
X135975000Y-97050000D01*
%TO.N,Net-(D1-A)*%
X138525000Y-99050000D02*
X135462500Y-99050000D01*
%TO.N,Net-(D2-A)*%
X138525000Y-100750000D02*
X135450000Y-100750000D01*
%TO.N,Net-(D3-A)*%
X138525000Y-102550000D02*
X135450000Y-102550000D01*
%TO.N,Net-(D4-K)*%
X133875000Y-104850000D02*
X135242200Y-106217200D01*
X135242200Y-106217200D02*
X135975000Y-106217200D01*
X133875000Y-104250000D02*
X133875000Y-104850000D01*
%TO.N,Net-(D4-A)*%
X138525000Y-104250000D02*
X135450000Y-104250000D01*
D49*
%TO.N,Net-(IC1-P2.05{slash}SPI.CS)*%
X143378000Y-88802000D02*
X142395000Y-89785000D01*
X150640800Y-89375000D02*
X150067800Y-88802000D01*
X142395000Y-89785000D02*
X141395000Y-89785000D01*
X132850000Y-105275000D02*
X135022500Y-107447500D01*
X139695000Y-88590000D02*
X138720000Y-88590000D01*
X135022500Y-107447500D02*
X135022500Y-108300000D01*
X138720000Y-88590000D02*
X132850000Y-94460000D01*
X139700000Y-88585000D02*
X139695000Y-88590000D01*
X150067800Y-88802000D02*
X143378000Y-88802000D01*
X132850000Y-94460000D02*
X132850000Y-105275000D01*
X152025000Y-89375000D02*
X150640800Y-89375000D01*
%TO.N,Net-(IC1-XC1)*%
X165150000Y-92175000D02*
X165675000Y-92175000D01*
X165675000Y-92175000D02*
X166025000Y-92525000D01*
X166025000Y-92525000D02*
X166025000Y-94074000D01*
X156849000Y-94424000D02*
X165675000Y-94424000D01*
X156375000Y-93950000D02*
X156849000Y-94424000D01*
X166025000Y-94074000D02*
X165675000Y-94424000D01*
X156375000Y-93325000D02*
X156375000Y-93950000D01*
%TO.N,Net-(IC1-P0.01)*%
X151391300Y-99900000D02*
X151700000Y-99591300D01*
X151442100Y-92575000D02*
X152025000Y-92575000D01*
X150950000Y-99900000D02*
X151391300Y-99900000D01*
X151700000Y-99591300D02*
X151700000Y-96200000D01*
X150596300Y-93420800D02*
X151442100Y-92575000D01*
X150596300Y-95096300D02*
X151700000Y-96200000D01*
X150596300Y-95096300D02*
X150596300Y-93420800D01*
%TO.N,Net-(IC1-P2.06{slash}TRACECLK{slash}SPI.SCK)*%
X158700000Y-105675000D02*
X158750000Y-105725000D01*
X150475000Y-89775000D02*
X152025000Y-89775000D01*
X158750000Y-105725000D02*
X158750000Y-105800000D01*
X157000000Y-105700000D02*
X158675000Y-105700000D01*
X149950000Y-89250000D02*
X150475000Y-89775000D01*
X146760000Y-89250000D02*
X149950000Y-89250000D01*
X145650000Y-89890000D02*
X146120000Y-89890000D01*
X146120000Y-89890000D02*
X146760000Y-89250000D01*
X158675000Y-105700000D02*
X158700000Y-105675000D01*
%TO.N,Net-(IC1-P2.03)*%
X150400000Y-88000000D02*
X141870000Y-88000000D01*
X140800000Y-89070000D02*
X140777500Y-89070000D01*
X140777500Y-89070000D02*
X140777500Y-94967200D01*
X141870000Y-88000000D02*
X140800000Y-89070000D01*
X152025000Y-88575000D02*
X150975000Y-88575000D01*
X150975000Y-88575000D02*
X150400000Y-88000000D01*
%TO.N,Net-(IC1-ANT)*%
X155175000Y-95300000D02*
X155175000Y-93325000D01*
X156275000Y-96400000D02*
X155175000Y-95300000D01*
X156287500Y-96400000D02*
X156275000Y-96400000D01*
%TO.N,Net-(IC1-P2.04{slash}SPI.SDI{slash}SDO)*%
X134175000Y-107167100D02*
X134175000Y-109125000D01*
X140490000Y-87660000D02*
X138680000Y-87660000D01*
X140500000Y-87650000D02*
X140490000Y-87660000D01*
X142579000Y-88401000D02*
X150233900Y-88401000D01*
X150233900Y-88401000D02*
X150807900Y-88975000D01*
X138872500Y-109152500D02*
X138872500Y-108282800D01*
X132450000Y-93890000D02*
X132450000Y-105442100D01*
X132450000Y-105442100D02*
X134175000Y-107167100D01*
X142070000Y-88910000D02*
X142579000Y-88401000D01*
X137500000Y-110525000D02*
X138872500Y-109152500D01*
X150807900Y-88975000D02*
X152025000Y-88975000D01*
X138680000Y-87660000D02*
X132450000Y-93890000D01*
X135575000Y-110525000D02*
X137500000Y-110525000D01*
X134175000Y-109125000D02*
X135575000Y-110525000D01*
%TO.N,Net-(IC1-P2.02{slash}SPI.SDI{slash}SDO)*%
X151175000Y-88175000D02*
X152025000Y-88175000D01*
X136927500Y-92247500D02*
X141600000Y-87575000D01*
X141600000Y-87575000D02*
X150575000Y-87575000D01*
X136927500Y-92450000D02*
X136927500Y-92247500D01*
X150575000Y-87575000D02*
X151175000Y-88175000D01*
X136927500Y-94967200D02*
X136927500Y-92450000D01*
%TO.N,Net-(IC1-DCC)*%
X157925000Y-88975000D02*
X158575000Y-88975000D01*
X159410000Y-84210000D02*
X158760000Y-83560000D01*
X158760000Y-83560000D02*
X157000000Y-83560000D01*
X159410000Y-88140000D02*
X159410000Y-84210000D01*
X158575000Y-88975000D02*
X159410000Y-88140000D01*
%TO.N,Net-(IC1-P2.00{slash}SPI.DCX)*%
X151200000Y-86475000D02*
X150875000Y-86800000D01*
X152775000Y-86475000D02*
X151300000Y-86475000D01*
X152875000Y-86575000D02*
X152775000Y-86475000D01*
X149294301Y-91184301D02*
X148860000Y-90750000D01*
X149294301Y-98735600D02*
X149294301Y-91184301D01*
X148525000Y-90750000D02*
X148860000Y-90750000D01*
X153175000Y-87425000D02*
X153175000Y-86875000D01*
X145650000Y-93625000D02*
X148525000Y-90750000D01*
X151300000Y-86475000D02*
X151200000Y-86475000D01*
X153175000Y-86875000D02*
X152875000Y-86575000D01*
%TO.N,Net-(IC1-P2.07{slash}TRACEDATA[0]{slash}SWO{slash}SPI.DCX)*%
X150865000Y-90175000D02*
X150864000Y-90176000D01*
X145650000Y-91460000D02*
X145650000Y-91515000D01*
X156350000Y-104250000D02*
X156975000Y-103625000D01*
X147459000Y-89651000D02*
X145650000Y-91460000D01*
X150864000Y-90176000D02*
X150308900Y-90176000D01*
X152025000Y-90175000D02*
X150865000Y-90175000D01*
X156350000Y-104550000D02*
X156350000Y-104250000D01*
X149783900Y-89651000D02*
X147459000Y-89651000D01*
X150308900Y-90176000D02*
X149783900Y-89651000D01*
%TO.N,Net-(IC1-P1.00{slash}XL1)*%
X157175000Y-86765000D02*
X156750000Y-86340000D01*
X156750000Y-86340000D02*
X156750000Y-85410000D01*
X157175000Y-87425000D02*
X157175000Y-86765000D01*
%TO.N,Net-(IC1-SWDIO)*%
X151725000Y-93325000D02*
X152775000Y-93325000D01*
%TO.N,Net-(IC1-P2.01{slash}SPI.SCK)*%
X146450000Y-94425000D02*
X146450000Y-93750000D01*
X151475000Y-87425000D02*
X152775000Y-87425000D01*
X149794300Y-90765700D02*
X149810000Y-90750000D01*
X149794300Y-98735600D02*
X149794300Y-90765700D01*
X145650000Y-95225000D02*
X146450000Y-94425000D01*
X146450000Y-93750000D02*
X148210000Y-91990000D01*
%TO.N,Net-(IC1-P1.01{slash}XL2)*%
X156775000Y-86935000D02*
X156775000Y-87425000D01*
X155250000Y-85410000D02*
X156775000Y-86935000D01*
%TO.N,Net-(IC1-XC2)*%
X163127000Y-94023000D02*
X163800000Y-93350000D01*
X156775000Y-93782900D02*
X157015100Y-94023000D01*
X156775000Y-93325000D02*
X156775000Y-93782900D01*
X163800000Y-93350000D02*
X163800000Y-93225000D01*
X157015100Y-94023000D02*
X163127000Y-94023000D01*
%TO.N,Net-(IC1-P0.00)*%
X151275000Y-92175000D02*
X150195300Y-93254700D01*
X147825001Y-100400001D02*
X147100000Y-99675000D01*
X148638600Y-100400001D02*
X147825001Y-100400001D01*
X150195300Y-95820300D02*
X150675000Y-96300000D01*
X152025000Y-92175000D02*
X151275000Y-92175000D01*
X150195300Y-93254700D02*
X150195300Y-95820300D01*
%TO.N,Net-(IC1-SWDCLK)*%
X153175000Y-93852000D02*
X153175000Y-93325000D01*
X151425000Y-94275000D02*
X152752000Y-94275000D01*
X152752000Y-94275000D02*
X153175000Y-93852000D01*
%TO.N,Net-(U2-TS)*%
X154470000Y-111290000D02*
X156165000Y-112985000D01*
X154850000Y-107350000D02*
X154470000Y-107730000D01*
X154470000Y-107730000D02*
X154470000Y-111290000D01*
X156165000Y-112985000D02*
X156165000Y-113440000D01*
%TO.N,Net-(U2-ISET)*%
X153300000Y-107600000D02*
X154200000Y-106700000D01*
X153300000Y-108650000D02*
X153300000Y-107600000D01*
%TO.N,Net-(U2-TMR)*%
X153058520Y-105700000D02*
X151730000Y-107028520D01*
X151730000Y-107028520D02*
X151730000Y-108655000D01*
X154200000Y-105700000D02*
X153058520Y-105700000D01*
%TD*%
%TA.AperFunction,Conductor*%
%TO.N,Net-(IC1-VDD_1)*%
G36*
X154918039Y-99019685D02*
G01*
X154963794Y-99072489D01*
X154975000Y-99124000D01*
X154975000Y-100987545D01*
X154968550Y-101009510D01*
X154966633Y-101032321D01*
X154956627Y-101050114D01*
X154955315Y-101054584D01*
X154951340Y-101059517D01*
X154949334Y-101063085D01*
X154941515Y-101073262D01*
X154938054Y-101075854D01*
X154881870Y-101150905D01*
X154881383Y-101151540D01*
X154853785Y-101171668D01*
X154826382Y-101192182D01*
X154825581Y-101192239D01*
X154824933Y-101192712D01*
X154783049Y-101200000D01*
X153552374Y-101200000D01*
X153485335Y-101180315D01*
X153464693Y-101163681D01*
X153403044Y-101102032D01*
X153403040Y-101102029D01*
X153258705Y-101013001D01*
X153258699Y-101012998D01*
X153258697Y-101012997D01*
X153248174Y-101009510D01*
X153097709Y-100959651D01*
X152998346Y-100949500D01*
X152401662Y-100949500D01*
X152401644Y-100949501D01*
X152302292Y-100959650D01*
X152302289Y-100959651D01*
X152141305Y-101012996D01*
X152141294Y-101013001D01*
X151996959Y-101102029D01*
X151996955Y-101102032D01*
X151935307Y-101163681D01*
X151873984Y-101197166D01*
X151847626Y-101200000D01*
X150824000Y-101200000D01*
X150815314Y-101197449D01*
X150806353Y-101198738D01*
X150782312Y-101187759D01*
X150756961Y-101180315D01*
X150751033Y-101173474D01*
X150742797Y-101169713D01*
X150728507Y-101147478D01*
X150711206Y-101127511D01*
X150708918Y-101116996D01*
X150705023Y-101110935D01*
X150700000Y-101076000D01*
X150700000Y-101059297D01*
X150719685Y-100992258D01*
X150736319Y-100971616D01*
X150748285Y-100959650D01*
X150774819Y-100933116D01*
X150853876Y-100796184D01*
X150894799Y-100643457D01*
X150894799Y-100624500D01*
X150914484Y-100557461D01*
X150967288Y-100511706D01*
X151018799Y-100500500D01*
X151304631Y-100500500D01*
X151304647Y-100500501D01*
X151312243Y-100500501D01*
X151470354Y-100500501D01*
X151470357Y-100500501D01*
X151623085Y-100459577D01*
X151673204Y-100430639D01*
X151760016Y-100380520D01*
X151854218Y-100286317D01*
X151915539Y-100252834D01*
X151941898Y-100250000D01*
X152225000Y-100250000D01*
X152225000Y-100024000D01*
X152244685Y-99956961D01*
X152297489Y-99911206D01*
X152349000Y-99900000D01*
X154275000Y-99900000D01*
X154275000Y-99703351D01*
X154294685Y-99636312D01*
X154330111Y-99600248D01*
X154335289Y-99596789D01*
X154446789Y-99485289D01*
X154534394Y-99354179D01*
X154594737Y-99208497D01*
X154611545Y-99124000D01*
X154616357Y-99099809D01*
X154648742Y-99037898D01*
X154709458Y-99003324D01*
X154737974Y-99000000D01*
X154851000Y-99000000D01*
X154918039Y-99019685D01*
G37*
%TD.AperFunction*%
%TD*%
%TA.AperFunction,Conductor*%
%TO.N,Net-(U2-BAT)*%
G36*
X155692539Y-107019685D02*
G01*
X155738294Y-107072489D01*
X155749500Y-107124000D01*
X155749500Y-107263330D01*
X155749499Y-107263348D01*
X155749499Y-107429054D01*
X155749498Y-107429054D01*
X155790423Y-107581786D01*
X155803883Y-107605098D01*
X155805632Y-107608127D01*
X155869480Y-107718716D01*
X155894925Y-107744161D01*
X155901935Y-107754868D01*
X155904304Y-107762693D01*
X155912750Y-107775332D01*
X155915423Y-107781785D01*
X155983387Y-107899502D01*
X156000000Y-107961502D01*
X156000000Y-108500000D01*
X157676000Y-108500000D01*
X157743039Y-108519685D01*
X157788794Y-108572489D01*
X157800000Y-108624000D01*
X157800000Y-109376000D01*
X157780315Y-109443039D01*
X157727511Y-109488794D01*
X157676000Y-109500000D01*
X156000000Y-109500000D01*
X156000000Y-110750000D01*
X157426000Y-110750000D01*
X157493039Y-110769685D01*
X157538794Y-110822489D01*
X157550000Y-110874000D01*
X157550000Y-111626000D01*
X157530315Y-111693039D01*
X157477511Y-111738794D01*
X157426000Y-111750000D01*
X155830597Y-111750000D01*
X155763558Y-111730315D01*
X155742916Y-111713681D01*
X155236319Y-111207084D01*
X155202834Y-111145761D01*
X155200000Y-111119403D01*
X155200000Y-107900597D01*
X155219685Y-107833558D01*
X155236319Y-107812916D01*
X155273903Y-107775332D01*
X155330519Y-107718716D01*
X155409577Y-107581785D01*
X155450500Y-107429057D01*
X155450500Y-107270943D01*
X155419726Y-107156091D01*
X155420321Y-107131098D01*
X155416763Y-107106353D01*
X155421138Y-107096772D01*
X155421389Y-107086243D01*
X155435401Y-107065539D01*
X155445788Y-107042797D01*
X155454649Y-107037102D01*
X155460552Y-107028381D01*
X155483532Y-107018539D01*
X155504566Y-107005023D01*
X155520421Y-107002743D01*
X155524780Y-107000877D01*
X155539501Y-107000000D01*
X155625500Y-107000000D01*
X155692539Y-107019685D01*
G37*
%TD.AperFunction*%
%TD*%
%TA.AperFunction,Conductor*%
%TO.N,Net-(IC1-VDD_1)*%
G36*
X140624527Y-98569685D02*
G01*
X140633568Y-98576082D01*
X141927570Y-99581493D01*
X143964426Y-101164086D01*
X144005286Y-101220761D01*
X144009019Y-101290531D01*
X143976340Y-101349369D01*
X140636372Y-104713366D01*
X140575169Y-104747071D01*
X140548377Y-104750000D01*
X139874000Y-104750000D01*
X139806961Y-104730315D01*
X139761206Y-104677511D01*
X139750000Y-104626000D01*
X139750000Y-98674000D01*
X139769685Y-98606961D01*
X139822489Y-98561206D01*
X139874000Y-98550000D01*
X140557488Y-98550000D01*
X140624527Y-98569685D01*
G37*
%TD.AperFunction*%
%TD*%
%TA.AperFunction,Conductor*%
%TO.N,GND*%
G36*
X168202819Y-101042359D02*
G01*
X168248574Y-101095163D01*
X168259250Y-101158113D01*
X168246907Y-101291326D01*
X168201175Y-101784846D01*
X168200515Y-101790537D01*
X168082919Y-102633549D01*
X168081997Y-102639202D01*
X167925590Y-103475908D01*
X167924407Y-103481513D01*
X167729532Y-104310073D01*
X167728092Y-104315617D01*
X167495159Y-105134290D01*
X167493465Y-105139762D01*
X167222968Y-105946818D01*
X167221022Y-105952206D01*
X166913529Y-106745932D01*
X166911338Y-106751224D01*
X166853211Y-106882870D01*
X166567529Y-107529877D01*
X166565107Y-107535037D01*
X166185698Y-108296991D01*
X166183027Y-108302058D01*
X165768845Y-109045658D01*
X165765943Y-109050597D01*
X165317851Y-109774291D01*
X165314724Y-109779090D01*
X164833689Y-110481315D01*
X164830343Y-110485965D01*
X164317391Y-111165223D01*
X164313834Y-111169713D01*
X163770066Y-111824547D01*
X163766306Y-111828868D01*
X163192869Y-112457899D01*
X163188913Y-112462042D01*
X162587042Y-113063913D01*
X162582899Y-113067869D01*
X161953868Y-113641306D01*
X161949547Y-113645066D01*
X161294713Y-114188834D01*
X161290223Y-114192391D01*
X160610965Y-114705343D01*
X160606315Y-114708689D01*
X159904090Y-115189724D01*
X159899291Y-115192851D01*
X159175597Y-115640943D01*
X159170658Y-115643845D01*
X158427058Y-116058027D01*
X158421991Y-116060698D01*
X157660037Y-116440107D01*
X157654877Y-116442529D01*
X157048257Y-116710377D01*
X156876224Y-116786338D01*
X156870932Y-116788529D01*
X156077206Y-117096022D01*
X156071818Y-117097968D01*
X155264763Y-117368465D01*
X155259295Y-117370158D01*
X155253465Y-117371817D01*
X155183598Y-117371233D01*
X155125138Y-117332968D01*
X155096646Y-117269172D01*
X155104966Y-117205099D01*
X155111848Y-117188485D01*
X155125130Y-117156420D01*
X155165500Y-116953465D01*
X155165500Y-116146535D01*
X155125130Y-115943580D01*
X155045941Y-115752402D01*
X154930977Y-115580345D01*
X154930975Y-115580342D01*
X154784657Y-115434024D01*
X154636271Y-115334877D01*
X154612598Y-115319059D01*
X154430649Y-115243693D01*
X154421420Y-115239870D01*
X154421412Y-115239868D01*
X154218469Y-115199500D01*
X154218465Y-115199500D01*
X154011535Y-115199500D01*
X154011530Y-115199500D01*
X153808587Y-115239868D01*
X153808579Y-115239870D01*
X153617403Y-115319058D01*
X153445342Y-115434024D01*
X153299024Y-115580342D01*
X153184058Y-115752403D01*
X153104870Y-115943579D01*
X153104868Y-115943587D01*
X153064500Y-116146530D01*
X153064500Y-116953469D01*
X153104868Y-117156412D01*
X153104870Y-117156420D01*
X153164761Y-117301010D01*
X153184059Y-117347598D01*
X153200242Y-117371817D01*
X153299024Y-117519657D01*
X153416913Y-117637546D01*
X153450398Y-117698869D01*
X153445414Y-117768561D01*
X153403542Y-117824494D01*
X153352017Y-117847116D01*
X152764202Y-117956997D01*
X152758549Y-117957919D01*
X151915537Y-118075515D01*
X151909846Y-118076175D01*
X151062309Y-118154710D01*
X151056595Y-118155107D01*
X150206309Y-118194419D01*
X150200582Y-118194551D01*
X149349418Y-118194551D01*
X149343691Y-118194419D01*
X148493404Y-118155107D01*
X148487690Y-118154710D01*
X147640153Y-118076175D01*
X147634462Y-118075515D01*
X146791450Y-117957919D01*
X146785797Y-117956997D01*
X146231682Y-117853416D01*
X146169401Y-117821748D01*
X146134128Y-117761436D01*
X146137062Y-117691628D01*
X146166784Y-117643847D01*
X146290977Y-117519655D01*
X146405941Y-117347598D01*
X146485130Y-117156420D01*
X146525500Y-116953465D01*
X146525500Y-116146535D01*
X146485130Y-115943580D01*
X146405941Y-115752402D01*
X146290977Y-115580345D01*
X146290975Y-115580342D01*
X146144657Y-115434024D01*
X145996271Y-115334877D01*
X145972598Y-115319059D01*
X145790649Y-115243693D01*
X145781420Y-115239870D01*
X145781412Y-115239868D01*
X145578469Y-115199500D01*
X145578465Y-115199500D01*
X145371535Y-115199500D01*
X145330842Y-115207594D01*
X145222697Y-115229105D01*
X145153106Y-115222877D01*
X145110826Y-115195168D01*
X143996545Y-114080887D01*
X143881807Y-114004222D01*
X143784847Y-113964061D01*
X143730443Y-113920220D01*
X143708378Y-113853926D01*
X143725657Y-113786227D01*
X143776794Y-113738616D01*
X143832299Y-113725500D01*
X144613506Y-113725500D01*
X144680545Y-113745185D01*
X144701182Y-113761814D01*
X144805345Y-113865977D01*
X144977402Y-113980941D01*
X145168580Y-114060130D01*
X145347288Y-114095677D01*
X145371530Y-114100499D01*
X145371534Y-114100500D01*
X145371535Y-114100500D01*
X145578466Y-114100500D01*
X145578467Y-114100499D01*
X145781420Y-114060130D01*
X145972598Y-113980941D01*
X146144655Y-113865977D01*
X146290977Y-113719655D01*
X146405941Y-113547598D01*
X146485130Y-113356420D01*
X146525500Y-113153465D01*
X146525500Y-112346535D01*
X146485130Y-112143580D01*
X146405941Y-111952402D01*
X146290977Y-111780345D01*
X146290975Y-111780342D01*
X146144657Y-111634024D01*
X146047616Y-111569184D01*
X145972598Y-111519059D01*
X145972593Y-111519057D01*
X145781420Y-111439870D01*
X145781412Y-111439868D01*
X145578469Y-111399500D01*
X145578465Y-111399500D01*
X145371535Y-111399500D01*
X145371530Y-111399500D01*
X145168587Y-111439868D01*
X145168579Y-111439870D01*
X144977403Y-111519058D01*
X144805342Y-111634024D01*
X144659024Y-111780342D01*
X144544058Y-111952403D01*
X144464870Y-112143578D01*
X144459847Y-112168832D01*
X144448735Y-112224693D01*
X144416352Y-112286602D01*
X144355636Y-112321176D01*
X144327119Y-112324500D01*
X143751874Y-112324500D01*
X143684835Y-112304815D01*
X143664193Y-112288181D01*
X143578044Y-112202032D01*
X143578040Y-112202029D01*
X143433705Y-112113001D01*
X143433699Y-112112998D01*
X143433697Y-112112997D01*
X143417247Y-112107546D01*
X143272709Y-112059651D01*
X143173346Y-112049500D01*
X142626662Y-112049500D01*
X142626644Y-112049501D01*
X142527292Y-112059650D01*
X142527289Y-112059651D01*
X142366305Y-112112996D01*
X142366294Y-112113001D01*
X142221959Y-112202029D01*
X142221953Y-112202033D01*
X142212324Y-112211663D01*
X142151000Y-112245146D01*
X142081308Y-112240159D01*
X142036965Y-112211660D01*
X142027732Y-112202427D01*
X142027728Y-112202424D01*
X141883492Y-112113457D01*
X141883481Y-112113452D01*
X141722606Y-112060144D01*
X141623322Y-112050000D01*
X141600000Y-112050000D01*
X141600000Y-114028638D01*
X141580315Y-114095677D01*
X141563681Y-114116319D01*
X141550000Y-114130000D01*
X141550000Y-115599999D01*
X141556581Y-115599999D01*
X141627102Y-115593591D01*
X141627107Y-115593590D01*
X141789396Y-115543018D01*
X141934877Y-115455072D01*
X141934878Y-115455071D01*
X142036963Y-115352985D01*
X142098286Y-115319499D01*
X142167977Y-115324483D01*
X142212326Y-115352984D01*
X142314811Y-115455469D01*
X142314813Y-115455470D01*
X142314815Y-115455472D01*
X142460394Y-115543478D01*
X142622804Y-115594086D01*
X142693384Y-115600500D01*
X142693387Y-115600500D01*
X143206613Y-115600500D01*
X143206616Y-115600500D01*
X143277196Y-115594086D01*
X143397177Y-115556698D01*
X143467035Y-115555547D01*
X143521746Y-115587403D01*
X144388181Y-116453838D01*
X144421666Y-116515161D01*
X144424500Y-116541519D01*
X144424500Y-116953469D01*
X144464868Y-117156412D01*
X144464871Y-117156424D01*
X144490377Y-117218001D01*
X144491995Y-117233055D01*
X144498401Y-117246775D01*
X144495654Y-117267087D01*
X144497846Y-117287470D01*
X144491067Y-117301010D01*
X144489039Y-117316015D01*
X144475745Y-117331619D01*
X144466570Y-117349949D01*
X144453549Y-117357674D01*
X144443730Y-117369201D01*
X144424108Y-117375142D01*
X144406481Y-117385601D01*
X144390295Y-117385380D01*
X144376858Y-117389449D01*
X144341884Y-117384720D01*
X144290684Y-117370152D01*
X144285236Y-117368465D01*
X143478181Y-117097968D01*
X143472793Y-117096022D01*
X142679067Y-116788529D01*
X142673783Y-116786341D01*
X141895105Y-116442522D01*
X141889962Y-116440107D01*
X141745017Y-116367933D01*
X141703459Y-116347239D01*
X141128008Y-116060698D01*
X141122941Y-116058027D01*
X140379341Y-115643845D01*
X140374402Y-115640943D01*
X140236483Y-115555547D01*
X139650698Y-115192844D01*
X139645920Y-115189731D01*
X139305564Y-114956582D01*
X140400001Y-114956582D01*
X140406408Y-115027102D01*
X140406409Y-115027107D01*
X140456981Y-115189396D01*
X140544927Y-115334877D01*
X140665122Y-115455072D01*
X140810604Y-115543019D01*
X140810603Y-115543019D01*
X140972894Y-115593590D01*
X140972893Y-115593590D01*
X141043408Y-115599998D01*
X141043426Y-115599999D01*
X141049999Y-115599998D01*
X141050000Y-115599998D01*
X141050000Y-114875000D01*
X140400001Y-114875000D01*
X140400001Y-114956582D01*
X139305564Y-114956582D01*
X138943682Y-114708687D01*
X138939034Y-114705343D01*
X138924164Y-114694114D01*
X138554555Y-114414998D01*
X138520882Y-114389569D01*
X138393569Y-114293427D01*
X140400000Y-114293427D01*
X140400000Y-114375000D01*
X141050000Y-114375000D01*
X141050000Y-113621362D01*
X141069685Y-113554323D01*
X141086319Y-113533681D01*
X141100000Y-113520000D01*
X141100000Y-113275000D01*
X140400001Y-113275000D01*
X140400001Y-113323322D01*
X140410144Y-113422607D01*
X140463452Y-113583481D01*
X140463457Y-113583492D01*
X140552424Y-113727728D01*
X140552427Y-113727732D01*
X140554691Y-113729996D01*
X140555748Y-113731931D01*
X140556905Y-113733395D01*
X140556654Y-113733592D01*
X140588176Y-113791319D01*
X140583192Y-113861011D01*
X140554694Y-113905355D01*
X140544929Y-113915119D01*
X140544927Y-113915122D01*
X140456980Y-114060604D01*
X140406409Y-114222893D01*
X140400000Y-114293427D01*
X138393569Y-114293427D01*
X138259776Y-114192391D01*
X138255286Y-114188834D01*
X137600452Y-113645066D01*
X137596131Y-113641306D01*
X136967100Y-113067869D01*
X136962957Y-113063913D01*
X136625721Y-112726677D01*
X140400000Y-112726677D01*
X140400000Y-112775000D01*
X141100000Y-112775000D01*
X141100000Y-112049999D01*
X141076693Y-112050000D01*
X141076674Y-112050001D01*
X140977392Y-112060144D01*
X140816518Y-112113452D01*
X140816507Y-112113457D01*
X140672271Y-112202424D01*
X140672267Y-112202427D01*
X140552427Y-112322267D01*
X140552424Y-112322271D01*
X140463457Y-112466507D01*
X140463452Y-112466518D01*
X140410144Y-112627393D01*
X140400000Y-112726677D01*
X136625721Y-112726677D01*
X136361086Y-112462042D01*
X136357130Y-112457899D01*
X136238701Y-112327989D01*
X135783693Y-111828868D01*
X135779933Y-111824547D01*
X135363616Y-111323196D01*
X135335932Y-111259045D01*
X135347325Y-111190110D01*
X135394179Y-111138279D01*
X135461617Y-111120006D01*
X135462390Y-111120025D01*
X135476991Y-111120422D01*
X135495943Y-111125501D01*
X135654057Y-111125501D01*
X135654061Y-111125500D01*
X137413331Y-111125500D01*
X137413347Y-111125501D01*
X137420943Y-111125501D01*
X137579054Y-111125501D01*
X137579057Y-111125501D01*
X137731785Y-111084577D01*
X137799170Y-111045672D01*
X137868716Y-111005520D01*
X137980520Y-110893716D01*
X137980520Y-110893714D01*
X137990724Y-110883511D01*
X137990728Y-110883506D01*
X139231006Y-109643228D01*
X139231011Y-109643224D01*
X139241214Y-109633020D01*
X139241216Y-109633020D01*
X139353020Y-109521216D01*
X139416138Y-109411891D01*
X139432077Y-109384285D01*
X139440385Y-109353274D01*
X139443916Y-109345059D01*
X139460717Y-109324759D01*
X139474434Y-109302256D01*
X139483523Y-109294751D01*
X139509446Y-109275346D01*
X139595696Y-109160131D01*
X139645991Y-109025283D01*
X139652400Y-108965673D01*
X139652400Y-108965644D01*
X139998100Y-108965644D01*
X140004501Y-109025172D01*
X140004503Y-109025179D01*
X140054745Y-109159886D01*
X140054749Y-109159893D01*
X140140909Y-109274987D01*
X140140912Y-109274990D01*
X140256006Y-109361150D01*
X140256013Y-109361154D01*
X140390720Y-109411396D01*
X140390727Y-109411398D01*
X140450255Y-109417799D01*
X140450272Y-109417800D01*
X140527500Y-109417800D01*
X141027500Y-109417800D01*
X141104728Y-109417800D01*
X141104744Y-109417799D01*
X141164272Y-109411398D01*
X141164279Y-109411396D01*
X141298986Y-109361154D01*
X141298993Y-109361150D01*
X141414087Y-109274990D01*
X141414090Y-109274987D01*
X141500250Y-109159893D01*
X141500254Y-109159886D01*
X141550496Y-109025179D01*
X141550498Y-109025172D01*
X141556899Y-108965644D01*
X141556900Y-108965627D01*
X141556900Y-108532800D01*
X141027500Y-108532800D01*
X141027500Y-109417800D01*
X140527500Y-109417800D01*
X140527500Y-108532800D01*
X139998100Y-108532800D01*
X139998100Y-108965644D01*
X139652400Y-108965644D01*
X139652399Y-108269528D01*
X139652399Y-107599929D01*
X139652398Y-107599923D01*
X139652397Y-107599916D01*
X139645991Y-107540317D01*
X139632009Y-107502831D01*
X139629820Y-107472222D01*
X139625454Y-107441852D01*
X139627351Y-107437696D01*
X139627026Y-107433141D01*
X139641729Y-107406214D01*
X139654479Y-107378296D01*
X139658322Y-107375825D01*
X139660511Y-107371818D01*
X139687438Y-107357114D01*
X139713257Y-107340522D01*
X139719457Y-107339630D01*
X139721834Y-107338333D01*
X139748192Y-107335499D01*
X139902341Y-107335499D01*
X139969380Y-107355184D01*
X140015135Y-107407988D01*
X140025079Y-107477146D01*
X140018523Y-107502833D01*
X140004502Y-107540423D01*
X140004501Y-107540427D01*
X139998100Y-107599955D01*
X139998100Y-108032800D01*
X140527500Y-108032800D01*
X141027500Y-108032800D01*
X141556900Y-108032800D01*
X141556900Y-107599972D01*
X141556899Y-107599955D01*
X141550498Y-107540427D01*
X141550496Y-107540420D01*
X141500254Y-107405713D01*
X141500250Y-107405706D01*
X141414090Y-107290612D01*
X141414087Y-107290609D01*
X141312940Y-107214890D01*
X141312927Y-107214881D01*
X141298989Y-107204447D01*
X141298986Y-107204445D01*
X141164279Y-107154203D01*
X141164272Y-107154201D01*
X141104744Y-107147800D01*
X141027500Y-107147800D01*
X141027500Y-108032800D01*
X140527500Y-108032800D01*
X140527500Y-107146249D01*
X140533350Y-107118427D01*
X142650000Y-107118427D01*
X142650000Y-107125000D01*
X143375000Y-107125000D01*
X143375000Y-106475000D01*
X143875000Y-106475000D01*
X143875000Y-107125000D01*
X145075000Y-107125000D01*
X145575000Y-107125000D01*
X146299999Y-107125000D01*
X146299999Y-107118417D01*
X146293591Y-107047897D01*
X146293590Y-107047892D01*
X146243018Y-106885603D01*
X146155072Y-106740122D01*
X146034877Y-106619927D01*
X145889395Y-106531980D01*
X145889396Y-106531980D01*
X145727105Y-106481409D01*
X145727106Y-106481409D01*
X145656572Y-106475000D01*
X145575000Y-106475000D01*
X145575000Y-107125000D01*
X145075000Y-107125000D01*
X145075000Y-106475000D01*
X145074999Y-106474999D01*
X144993417Y-106475000D01*
X144922897Y-106481408D01*
X144922892Y-106481409D01*
X144760603Y-106531981D01*
X144615122Y-106619927D01*
X144615121Y-106619928D01*
X144562681Y-106672369D01*
X144501358Y-106705854D01*
X144431666Y-106700870D01*
X144387319Y-106672369D01*
X144334877Y-106619927D01*
X144189395Y-106531980D01*
X144189396Y-106531980D01*
X144027105Y-106481409D01*
X144027106Y-106481409D01*
X143956572Y-106475000D01*
X143875000Y-106475000D01*
X143375000Y-106475000D01*
X143374999Y-106474999D01*
X143293417Y-106475000D01*
X143222897Y-106481408D01*
X143222892Y-106481409D01*
X143060603Y-106531981D01*
X142915122Y-106619927D01*
X142794927Y-106740122D01*
X142706980Y-106885604D01*
X142656409Y-107047893D01*
X142650000Y-107118427D01*
X140533350Y-107118427D01*
X140537999Y-107096315D01*
X140543720Y-107083309D01*
X140548196Y-107077331D01*
X140598491Y-106942483D01*
X140604900Y-106882873D01*
X140604899Y-106394617D01*
X140607282Y-106370425D01*
X140625500Y-106278843D01*
X140625500Y-106121155D01*
X140607282Y-106029571D01*
X140604899Y-106005379D01*
X140604899Y-105517129D01*
X140604898Y-105517123D01*
X140604897Y-105517116D01*
X140598491Y-105457517D01*
X140592518Y-105441503D01*
X140579913Y-105407706D01*
X140574929Y-105338014D01*
X140608414Y-105276691D01*
X140669738Y-105243207D01*
X140675904Y-105242028D01*
X140684392Y-105240630D01*
X140819020Y-105189866D01*
X140880223Y-105156161D01*
X140995093Y-105069525D01*
X141006229Y-105058309D01*
X144096471Y-101945835D01*
X144157674Y-101912130D01*
X144184466Y-101909201D01*
X144331007Y-101909201D01*
X144781007Y-101909201D01*
X145106006Y-101909201D01*
X145106007Y-101909201D01*
X146031007Y-101909201D01*
X146481007Y-101909201D01*
X147583481Y-101909201D01*
X147612921Y-101917845D01*
X147642908Y-101924369D01*
X147647923Y-101928123D01*
X147650520Y-101928886D01*
X147671162Y-101945520D01*
X147685007Y-101959365D01*
X147718492Y-102020688D01*
X147715033Y-102086046D01*
X147709651Y-102102288D01*
X147699500Y-102201647D01*
X147699500Y-102798337D01*
X147699501Y-102798355D01*
X147709650Y-102897707D01*
X147709651Y-102897710D01*
X147762996Y-103058694D01*
X147763001Y-103058705D01*
X147852029Y-103203040D01*
X147852032Y-103203044D01*
X147971955Y-103322967D01*
X147971959Y-103322970D01*
X148116294Y-103411998D01*
X148116297Y-103411999D01*
X148116303Y-103412003D01*
X148277292Y-103465349D01*
X148376655Y-103475500D01*
X148923344Y-103475499D01*
X148923352Y-103475498D01*
X148923355Y-103475498D01*
X148977760Y-103469940D01*
X149022708Y-103465349D01*
X149183697Y-103412003D01*
X149328044Y-103322968D01*
X149414193Y-103236819D01*
X149475516Y-103203334D01*
X149501874Y-103200500D01*
X149918996Y-103200500D01*
X150010040Y-103182389D01*
X150054328Y-103173580D01*
X150170404Y-103125500D01*
X150181807Y-103120777D01*
X150181808Y-103120776D01*
X150181811Y-103120775D01*
X150296543Y-103044114D01*
X151598838Y-101741819D01*
X151660161Y-101708334D01*
X151686519Y-101705500D01*
X151847628Y-101705500D01*
X151857774Y-101704955D01*
X151901666Y-101702603D01*
X151901674Y-101702602D01*
X151901676Y-101702602D01*
X151901677Y-101702602D01*
X151908670Y-101701849D01*
X151928024Y-101699769D01*
X151928034Y-101699767D01*
X151928037Y-101699767D01*
X151937636Y-101698211D01*
X151981436Y-101691114D01*
X152116245Y-101640832D01*
X152177568Y-101607347D01*
X152177571Y-101607346D01*
X152292752Y-101521121D01*
X152308242Y-101505629D01*
X152314836Y-101500599D01*
X152317409Y-101499612D01*
X152324968Y-101493636D01*
X152326807Y-101492502D01*
X152358702Y-101483778D01*
X152380074Y-101475584D01*
X152384954Y-101476598D01*
X152394201Y-101474070D01*
X152439342Y-101483486D01*
X152466503Y-101494737D01*
X152599169Y-101521126D01*
X152621153Y-101525499D01*
X152621156Y-101525500D01*
X152621158Y-101525500D01*
X152778844Y-101525500D01*
X152778845Y-101525499D01*
X152933497Y-101494737D01*
X152960654Y-101483488D01*
X152966265Y-101482884D01*
X152970956Y-101479745D01*
X153000621Y-101479190D01*
X153030124Y-101476018D01*
X153036653Y-101478516D01*
X153040814Y-101478439D01*
X153073187Y-101492498D01*
X153075023Y-101493630D01*
X153097626Y-101511499D01*
X153107253Y-101521126D01*
X153112123Y-101525500D01*
X153147514Y-101557290D01*
X153168159Y-101573926D01*
X153177237Y-101580472D01*
X153212038Y-101605567D01*
X153342915Y-101665338D01*
X153409954Y-101685023D01*
X153409958Y-101685024D01*
X153552374Y-101705500D01*
X153552377Y-101705500D01*
X154671100Y-101705500D01*
X154679785Y-101708050D01*
X154688747Y-101706762D01*
X154712787Y-101717740D01*
X154738139Y-101725185D01*
X154744066Y-101732025D01*
X154752303Y-101735787D01*
X154766592Y-101758021D01*
X154783894Y-101777989D01*
X154786181Y-101788503D01*
X154790077Y-101794565D01*
X154795100Y-101829500D01*
X154795100Y-101831681D01*
X154775415Y-101898720D01*
X154758781Y-101919362D01*
X153964962Y-102713181D01*
X153903639Y-102746666D01*
X153877281Y-102749500D01*
X153601874Y-102749500D01*
X153534835Y-102729815D01*
X153514193Y-102713181D01*
X153428044Y-102627032D01*
X153428040Y-102627029D01*
X153283705Y-102538001D01*
X153283699Y-102537998D01*
X153283697Y-102537997D01*
X153283694Y-102537996D01*
X153122709Y-102484651D01*
X153023346Y-102474500D01*
X152476662Y-102474500D01*
X152476644Y-102474501D01*
X152377292Y-102484650D01*
X152377289Y-102484651D01*
X152216305Y-102537996D01*
X152216294Y-102538001D01*
X152071959Y-102627029D01*
X152071955Y-102627032D01*
X151952032Y-102746955D01*
X151952029Y-102746959D01*
X151863001Y-102891294D01*
X151862996Y-102891305D01*
X151809651Y-103052290D01*
X151799500Y-103151647D01*
X151799500Y-103358480D01*
X151779815Y-103425519D01*
X151763181Y-103446161D01*
X150646162Y-104563181D01*
X150584839Y-104596666D01*
X150558481Y-104599500D01*
X148394946Y-104599500D01*
X148327907Y-104579815D01*
X148320635Y-104574766D01*
X148202335Y-104486206D01*
X148202328Y-104486202D01*
X148067482Y-104435908D01*
X148067483Y-104435908D01*
X148007883Y-104429501D01*
X148007881Y-104429500D01*
X148007873Y-104429500D01*
X148007864Y-104429500D01*
X146842129Y-104429500D01*
X146842123Y-104429501D01*
X146782516Y-104435908D01*
X146647671Y-104486202D01*
X146647664Y-104486206D01*
X146532455Y-104572452D01*
X146532452Y-104572455D01*
X146446206Y-104687664D01*
X146446202Y-104687671D01*
X146395908Y-104822517D01*
X146389501Y-104882116D01*
X146389500Y-104882135D01*
X146389500Y-105717870D01*
X146389501Y-105717876D01*
X146395908Y-105777483D01*
X146446202Y-105912328D01*
X146446206Y-105912335D01*
X146532452Y-106027544D01*
X146532455Y-106027547D01*
X146647664Y-106113793D01*
X146647671Y-106113797D01*
X146782517Y-106164091D01*
X146782516Y-106164091D01*
X146789444Y-106164835D01*
X146842127Y-106170500D01*
X148007872Y-106170499D01*
X148067483Y-106164091D01*
X148202331Y-106113796D01*
X148226188Y-106095936D01*
X148291651Y-106071518D01*
X148359924Y-106086368D01*
X148409331Y-106135773D01*
X148424500Y-106195202D01*
X148424500Y-106698337D01*
X148424501Y-106698355D01*
X148434650Y-106797707D01*
X148434651Y-106797710D01*
X148487996Y-106958694D01*
X148488001Y-106958705D01*
X148577029Y-107103040D01*
X148577032Y-107103044D01*
X148696955Y-107222967D01*
X148696959Y-107222970D01*
X148841294Y-107311998D01*
X148841297Y-107311999D01*
X148841303Y-107312003D01*
X149002292Y-107365349D01*
X149101655Y-107375500D01*
X149675500Y-107375499D01*
X149742539Y-107395183D01*
X149788294Y-107447987D01*
X149799500Y-107499499D01*
X149799500Y-109134480D01*
X149779815Y-109201519D01*
X149727011Y-109247274D01*
X149657853Y-109257218D01*
X149594297Y-109228193D01*
X149587819Y-109222161D01*
X148671545Y-108305887D01*
X148556807Y-108229222D01*
X148429332Y-108176421D01*
X148429323Y-108176418D01*
X148392054Y-108169005D01*
X148330143Y-108136619D01*
X148318399Y-108123307D01*
X148317548Y-108122457D01*
X148317546Y-108122454D01*
X148202331Y-108036204D01*
X148202329Y-108036203D01*
X148202328Y-108036202D01*
X148067482Y-107985908D01*
X148067483Y-107985908D01*
X148007883Y-107979501D01*
X148007881Y-107979500D01*
X148007873Y-107979500D01*
X148007864Y-107979500D01*
X146842129Y-107979500D01*
X146842123Y-107979501D01*
X146782516Y-107985908D01*
X146647671Y-108036202D01*
X146647664Y-108036206D01*
X146532455Y-108122452D01*
X146532452Y-108122455D01*
X146446206Y-108237664D01*
X146446202Y-108237671D01*
X146395907Y-108372520D01*
X146395189Y-108375561D01*
X146393984Y-108377676D01*
X146393198Y-108379785D01*
X146392856Y-108379657D01*
X146360615Y-108436277D01*
X146298704Y-108468661D01*
X146229112Y-108462434D01*
X146182714Y-108430404D01*
X146174621Y-108421492D01*
X146155472Y-108389815D01*
X146050880Y-108285223D01*
X146048866Y-108283005D01*
X146034869Y-108254151D01*
X146019499Y-108226003D01*
X146019719Y-108222920D01*
X146018371Y-108220141D01*
X146022195Y-108188300D01*
X146024483Y-108156311D01*
X146026394Y-108153336D01*
X146026703Y-108150770D01*
X146032730Y-108143477D01*
X146052985Y-108111963D01*
X146155071Y-108009878D01*
X146155072Y-108009877D01*
X146243019Y-107864395D01*
X146293590Y-107702106D01*
X146300000Y-107631572D01*
X146300000Y-107625000D01*
X142650001Y-107625000D01*
X142650001Y-107631582D01*
X142656408Y-107702102D01*
X142656409Y-107702107D01*
X142706981Y-107864396D01*
X142794927Y-108009877D01*
X142897015Y-108111965D01*
X142930500Y-108173288D01*
X142925516Y-108242980D01*
X142897015Y-108287327D01*
X142794531Y-108389810D01*
X142794530Y-108389811D01*
X142706522Y-108535393D01*
X142655913Y-108697807D01*
X142649500Y-108768386D01*
X142649500Y-109281613D01*
X142655913Y-109352192D01*
X142655913Y-109352194D01*
X142655914Y-109352196D01*
X142699016Y-109490519D01*
X142706522Y-109514606D01*
X142794530Y-109660188D01*
X142914811Y-109780469D01*
X142914813Y-109780470D01*
X142914815Y-109780472D01*
X143060394Y-109868478D01*
X143222804Y-109919086D01*
X143293384Y-109925500D01*
X143624903Y-109925500D01*
X143691942Y-109945185D01*
X143712584Y-109961819D01*
X144391139Y-110640374D01*
X144391149Y-110640385D01*
X144395479Y-110644715D01*
X144395480Y-110644716D01*
X144507284Y-110756520D01*
X144588582Y-110803457D01*
X144588583Y-110803458D01*
X144644209Y-110835574D01*
X144644210Y-110835574D01*
X144644215Y-110835577D01*
X144796943Y-110876500D01*
X144955057Y-110876500D01*
X147833803Y-110876500D01*
X147900842Y-110896185D01*
X147921484Y-110912819D01*
X148366484Y-111357819D01*
X148399969Y-111419142D01*
X148394985Y-111488834D01*
X148353113Y-111544767D01*
X148287649Y-111569184D01*
X148278803Y-111569500D01*
X147847129Y-111569500D01*
X147847123Y-111569501D01*
X147787516Y-111575908D01*
X147652671Y-111626202D01*
X147652664Y-111626206D01*
X147537455Y-111712452D01*
X147537452Y-111712455D01*
X147451206Y-111827664D01*
X147451202Y-111827671D01*
X147400908Y-111962517D01*
X147394501Y-112022116D01*
X147394501Y-112022123D01*
X147394500Y-112022135D01*
X147394500Y-113317870D01*
X147394501Y-113317876D01*
X147400908Y-113377483D01*
X147451202Y-113512328D01*
X147451203Y-113512329D01*
X147451204Y-113512331D01*
X147504467Y-113583481D01*
X147537456Y-113627549D01*
X147538181Y-113628274D01*
X147538671Y-113629172D01*
X147542769Y-113634646D01*
X147541982Y-113635235D01*
X147571666Y-113689597D01*
X147574500Y-113715955D01*
X147574500Y-113806006D01*
X147574500Y-113943994D01*
X147574500Y-113943996D01*
X147574499Y-113943996D01*
X147601418Y-114079322D01*
X147601421Y-114079332D01*
X147654222Y-114206807D01*
X147730887Y-114321545D01*
X148103454Y-114694112D01*
X148218192Y-114770777D01*
X148345667Y-114823578D01*
X148345672Y-114823580D01*
X148345676Y-114823580D01*
X148345677Y-114823581D01*
X148481003Y-114850500D01*
X148481006Y-114850500D01*
X151068996Y-114850500D01*
X151160040Y-114832389D01*
X151204328Y-114823580D01*
X151268069Y-114797177D01*
X151331807Y-114770777D01*
X151331808Y-114770776D01*
X151331811Y-114770775D01*
X151446543Y-114694114D01*
X151859114Y-114281543D01*
X151935775Y-114166811D01*
X151988580Y-114039329D01*
X151996487Y-113999577D01*
X152007543Y-113943994D01*
X152015500Y-113903995D01*
X152015500Y-113715955D01*
X152035185Y-113648916D01*
X152051819Y-113628274D01*
X152052543Y-113627549D01*
X152052544Y-113627547D01*
X152052546Y-113627546D01*
X152138796Y-113512331D01*
X152189091Y-113377483D01*
X152195500Y-113317873D01*
X152195499Y-112022128D01*
X152189091Y-111962517D01*
X152185318Y-111952402D01*
X152138797Y-111827671D01*
X152138793Y-111827664D01*
X152052547Y-111712455D01*
X151974323Y-111653896D01*
X151940613Y-111610501D01*
X151938643Y-111611555D01*
X151935773Y-111606185D01*
X151859115Y-111491459D01*
X151812233Y-111444577D01*
X151761542Y-111393886D01*
X151761537Y-111393883D01*
X151756832Y-111390021D01*
X151757140Y-111389645D01*
X151746881Y-111381224D01*
X151236819Y-110871162D01*
X151203334Y-110809839D01*
X151200500Y-110783481D01*
X151200500Y-109673296D01*
X151220185Y-109606257D01*
X151272989Y-109560502D01*
X151335720Y-109549805D01*
X151398384Y-109555500D01*
X151398388Y-109555500D01*
X152061613Y-109555500D01*
X152061616Y-109555500D01*
X152132196Y-109549086D01*
X152294606Y-109498478D01*
X152440185Y-109410472D01*
X152440195Y-109410461D01*
X152441714Y-109409273D01*
X152443042Y-109408743D01*
X152446604Y-109406591D01*
X152446961Y-109407183D01*
X152506625Y-109383422D01*
X152575208Y-109396767D01*
X152583204Y-109401907D01*
X152583396Y-109401591D01*
X152589813Y-109405470D01*
X152589815Y-109405472D01*
X152735394Y-109493478D01*
X152897804Y-109544086D01*
X152968384Y-109550500D01*
X152968387Y-109550500D01*
X153631613Y-109550500D01*
X153631616Y-109550500D01*
X153702196Y-109544086D01*
X153708608Y-109542087D01*
X153778467Y-109540935D01*
X153837860Y-109577734D01*
X153867930Y-109640802D01*
X153869500Y-109660472D01*
X153869500Y-111210939D01*
X153869499Y-111210943D01*
X153869499Y-111292787D01*
X153869499Y-111331783D01*
X153849814Y-111398822D01*
X153797010Y-111444577D01*
X153797006Y-111444577D01*
X153792952Y-111446343D01*
X153617403Y-111519057D01*
X153445342Y-111634024D01*
X153299024Y-111780342D01*
X153184058Y-111952403D01*
X153104870Y-112143579D01*
X153104868Y-112143587D01*
X153064500Y-112346530D01*
X153064500Y-113153469D01*
X153104868Y-113356412D01*
X153104870Y-113356420D01*
X153169449Y-113512328D01*
X153184059Y-113547598D01*
X153216713Y-113596468D01*
X153299024Y-113719657D01*
X153445342Y-113865975D01*
X153445345Y-113865977D01*
X153617402Y-113980941D01*
X153808580Y-114060130D01*
X153987288Y-114095677D01*
X154011530Y-114100499D01*
X154011534Y-114100500D01*
X154011535Y-114100500D01*
X154218466Y-114100500D01*
X154218467Y-114100499D01*
X154421420Y-114060130D01*
X154612598Y-113980941D01*
X154784655Y-113865977D01*
X154930977Y-113719655D01*
X155037398Y-113560382D01*
X155091009Y-113515578D01*
X155160334Y-113506871D01*
X155223362Y-113537025D01*
X155260082Y-113596468D01*
X155264500Y-113629274D01*
X155264500Y-113771613D01*
X155270913Y-113842192D01*
X155270913Y-113842194D01*
X155270914Y-113842196D01*
X155321522Y-114004606D01*
X155403058Y-114139483D01*
X155409530Y-114150188D01*
X155529811Y-114270469D01*
X155529813Y-114270470D01*
X155529815Y-114270472D01*
X155675394Y-114358478D01*
X155837804Y-114409086D01*
X155908384Y-114415500D01*
X155908387Y-114415500D01*
X156421613Y-114415500D01*
X156421616Y-114415500D01*
X156492196Y-114409086D01*
X156654606Y-114358478D01*
X156800185Y-114270472D01*
X156902673Y-114167983D01*
X156963994Y-114134499D01*
X157033685Y-114139483D01*
X157078034Y-114167984D01*
X157180122Y-114270072D01*
X157325604Y-114358019D01*
X157325603Y-114358019D01*
X157487894Y-114408590D01*
X157487893Y-114408590D01*
X157558408Y-114414998D01*
X157558426Y-114414999D01*
X158065000Y-114414999D01*
X158071581Y-114414999D01*
X158142102Y-114408591D01*
X158142107Y-114408590D01*
X158304396Y-114358018D01*
X158449877Y-114270072D01*
X158570072Y-114149877D01*
X158658019Y-114004395D01*
X158708590Y-113842106D01*
X158715000Y-113771572D01*
X158715000Y-113690000D01*
X158065000Y-113690000D01*
X158065000Y-114414999D01*
X157558426Y-114414999D01*
X157564999Y-114414998D01*
X157565000Y-114414998D01*
X157565000Y-113190000D01*
X158065000Y-113190000D01*
X158714999Y-113190000D01*
X158714999Y-113108417D01*
X158708591Y-113037897D01*
X158708590Y-113037892D01*
X158658018Y-112875603D01*
X158570072Y-112730122D01*
X158449877Y-112609927D01*
X158304395Y-112521980D01*
X158304396Y-112521980D01*
X158142105Y-112471409D01*
X158142106Y-112471409D01*
X158071572Y-112465000D01*
X158065000Y-112465000D01*
X158065000Y-113190000D01*
X157565000Y-113190000D01*
X157565000Y-112465000D01*
X157557779Y-112457780D01*
X157541606Y-112428164D01*
X157524295Y-112396466D01*
X157524295Y-112396461D01*
X157524293Y-112396457D01*
X157526890Y-112360137D01*
X157529274Y-112326774D01*
X157529276Y-112326770D01*
X157529277Y-112326766D01*
X157553125Y-112294906D01*
X157571141Y-112270837D01*
X157571144Y-112270835D01*
X157571147Y-112270832D01*
X157571275Y-112270783D01*
X157632206Y-112246808D01*
X157657483Y-112244091D01*
X157792331Y-112193796D01*
X157907546Y-112107546D01*
X157987914Y-112000188D01*
X158043847Y-111958318D01*
X158087180Y-111950500D01*
X158718996Y-111950500D01*
X158810040Y-111932389D01*
X158854328Y-111923580D01*
X158935325Y-111890030D01*
X158981807Y-111870777D01*
X158981808Y-111870776D01*
X158981811Y-111870775D01*
X159090961Y-111797844D01*
X160950000Y-111797844D01*
X160956401Y-111857372D01*
X160956403Y-111857379D01*
X161006645Y-111992086D01*
X161006649Y-111992093D01*
X161092809Y-112107187D01*
X161092812Y-112107190D01*
X161207906Y-112193350D01*
X161207913Y-112193354D01*
X161342620Y-112243596D01*
X161342627Y-112243598D01*
X161402155Y-112249999D01*
X161402172Y-112250000D01*
X161700000Y-112250000D01*
X162200000Y-112250000D01*
X162497828Y-112250000D01*
X162497844Y-112249999D01*
X162557372Y-112243598D01*
X162557379Y-112243596D01*
X162692086Y-112193354D01*
X162692093Y-112193350D01*
X162807187Y-112107190D01*
X162807190Y-112107187D01*
X162893350Y-111992093D01*
X162893354Y-111992086D01*
X162943596Y-111857379D01*
X162943598Y-111857372D01*
X162949999Y-111797844D01*
X162950000Y-111797827D01*
X162950000Y-111500000D01*
X162200000Y-111500000D01*
X162200000Y-112250000D01*
X161700000Y-112250000D01*
X161700000Y-111500000D01*
X160950000Y-111500000D01*
X160950000Y-111797844D01*
X159090961Y-111797844D01*
X159096543Y-111794114D01*
X159284472Y-111606185D01*
X159529701Y-111360957D01*
X159683445Y-111207213D01*
X161625000Y-111207213D01*
X161625000Y-111292787D01*
X161647149Y-111375445D01*
X161689936Y-111449554D01*
X161750446Y-111510064D01*
X161824555Y-111552851D01*
X161907213Y-111575000D01*
X161992787Y-111575000D01*
X162075445Y-111552851D01*
X162149554Y-111510064D01*
X162210064Y-111449554D01*
X162252851Y-111375445D01*
X162275000Y-111292787D01*
X162275000Y-111207213D01*
X162252851Y-111124555D01*
X162210064Y-111050446D01*
X162159618Y-111000000D01*
X162200000Y-111000000D01*
X162950000Y-111000000D01*
X162950000Y-110702172D01*
X162949999Y-110702155D01*
X162943598Y-110642627D01*
X162943596Y-110642620D01*
X162893354Y-110507913D01*
X162893350Y-110507906D01*
X162807190Y-110392812D01*
X162807187Y-110392809D01*
X162692093Y-110306649D01*
X162692086Y-110306645D01*
X162557379Y-110256403D01*
X162557372Y-110256401D01*
X162497844Y-110250000D01*
X162200000Y-110250000D01*
X162200000Y-111000000D01*
X162159618Y-111000000D01*
X162149554Y-110989936D01*
X162075445Y-110947149D01*
X161992787Y-110925000D01*
X161907213Y-110925000D01*
X161824555Y-110947149D01*
X161750446Y-110989936D01*
X161689936Y-111050446D01*
X161647149Y-111124555D01*
X161625000Y-111207213D01*
X159683445Y-111207213D01*
X160188503Y-110702155D01*
X160950000Y-110702155D01*
X160950000Y-111000000D01*
X161700000Y-111000000D01*
X161700000Y-110250000D01*
X161402155Y-110250000D01*
X161342627Y-110256401D01*
X161342620Y-110256403D01*
X161207913Y-110306645D01*
X161207906Y-110306649D01*
X161092812Y-110392809D01*
X161092809Y-110392812D01*
X161006649Y-110507906D01*
X161006645Y-110507913D01*
X160956403Y-110642620D01*
X160956401Y-110642627D01*
X160950000Y-110702155D01*
X160188503Y-110702155D01*
X160279488Y-110611170D01*
X161668838Y-109221819D01*
X161730161Y-109188334D01*
X161756519Y-109185500D01*
X162046613Y-109185500D01*
X162046616Y-109185500D01*
X162117196Y-109179086D01*
X162279606Y-109128478D01*
X162425185Y-109040472D01*
X162452883Y-109012774D01*
X162527319Y-108938339D01*
X162588642Y-108904854D01*
X162658334Y-108909838D01*
X162702681Y-108938339D01*
X162804811Y-109040469D01*
X162804813Y-109040470D01*
X162804815Y-109040472D01*
X162950394Y-109128478D01*
X163112804Y-109179086D01*
X163183384Y-109185500D01*
X163183387Y-109185500D01*
X163696613Y-109185500D01*
X163696616Y-109185500D01*
X163767196Y-109179086D01*
X163929606Y-109128478D01*
X164075185Y-109040472D01*
X164195472Y-108920185D01*
X164283478Y-108774606D01*
X164334086Y-108612196D01*
X164340500Y-108541616D01*
X164340500Y-107878384D01*
X164334086Y-107807804D01*
X164283478Y-107645394D01*
X164195472Y-107499815D01*
X164195470Y-107499813D01*
X164195469Y-107499811D01*
X164138338Y-107442680D01*
X164133999Y-107434734D01*
X164126752Y-107429309D01*
X164117517Y-107404549D01*
X164104853Y-107381357D01*
X164105498Y-107372327D01*
X164102335Y-107363845D01*
X164107951Y-107338024D01*
X164109837Y-107311665D01*
X164115655Y-107302611D01*
X164117187Y-107295572D01*
X164138335Y-107267321D01*
X164187674Y-107217982D01*
X164248995Y-107184499D01*
X164318687Y-107189483D01*
X164363034Y-107217984D01*
X164465122Y-107320072D01*
X164610604Y-107408019D01*
X164610603Y-107408019D01*
X164772894Y-107458590D01*
X164772893Y-107458590D01*
X164843408Y-107464998D01*
X164843426Y-107464999D01*
X165350000Y-107464999D01*
X165356581Y-107464999D01*
X165427102Y-107458591D01*
X165427107Y-107458590D01*
X165589396Y-107408018D01*
X165734877Y-107320072D01*
X165855072Y-107199877D01*
X165943019Y-107054395D01*
X165993590Y-106892106D01*
X166000000Y-106821572D01*
X166000000Y-106740000D01*
X165350000Y-106740000D01*
X165350000Y-107464999D01*
X164843426Y-107464999D01*
X164849999Y-107464998D01*
X164850000Y-107464998D01*
X164850000Y-105865000D01*
X164821319Y-105836319D01*
X164787834Y-105774996D01*
X164785000Y-105748638D01*
X164785000Y-105385000D01*
X165285000Y-105385000D01*
X165313681Y-105413681D01*
X165347166Y-105475004D01*
X165350000Y-105501362D01*
X165350000Y-106240000D01*
X165999999Y-106240000D01*
X165999999Y-106158417D01*
X165993591Y-106087897D01*
X165993590Y-106087892D01*
X165943018Y-105925603D01*
X165855072Y-105780122D01*
X165772808Y-105697858D01*
X165739323Y-105636535D01*
X165744307Y-105566843D01*
X165772808Y-105522495D01*
X165832576Y-105462727D01*
X165921542Y-105318492D01*
X165921547Y-105318481D01*
X165974855Y-105157606D01*
X165984999Y-105058322D01*
X165985000Y-105058309D01*
X165985000Y-105010000D01*
X165285000Y-105010000D01*
X165285000Y-105385000D01*
X164785000Y-105385000D01*
X164785000Y-103784999D01*
X164761693Y-103785000D01*
X164761674Y-103785001D01*
X164662392Y-103795144D01*
X164501518Y-103848452D01*
X164501507Y-103848457D01*
X164357271Y-103937424D01*
X164357265Y-103937428D01*
X164348031Y-103946663D01*
X164286707Y-103980146D01*
X164217015Y-103975159D01*
X164172672Y-103946660D01*
X164163044Y-103937032D01*
X164163040Y-103937029D01*
X164018705Y-103848001D01*
X164018699Y-103847998D01*
X164018697Y-103847997D01*
X164018694Y-103847996D01*
X163857709Y-103794651D01*
X163758346Y-103784500D01*
X163211662Y-103784500D01*
X163211644Y-103784501D01*
X163112292Y-103794650D01*
X163112289Y-103794651D01*
X162951305Y-103847996D01*
X162951294Y-103848001D01*
X162806959Y-103937029D01*
X162806955Y-103937032D01*
X162687031Y-104056956D01*
X162660113Y-104100598D01*
X162608165Y-104147322D01*
X162554575Y-104159500D01*
X161276669Y-104159500D01*
X161276653Y-104159499D01*
X161269057Y-104159499D01*
X161110943Y-104159499D01*
X160958215Y-104200423D01*
X160908578Y-104229081D01*
X160908577Y-104229081D01*
X160821290Y-104279475D01*
X160821282Y-104279481D01*
X159656471Y-105444293D01*
X159595148Y-105477778D01*
X159525456Y-105472794D01*
X159469523Y-105430922D01*
X159454233Y-105404072D01*
X159409394Y-105295821D01*
X159409392Y-105295818D01*
X159409390Y-105295814D01*
X159321789Y-105164711D01*
X159321786Y-105164707D01*
X159210292Y-105053213D01*
X159210288Y-105053210D01*
X159079185Y-104965609D01*
X159079172Y-104965602D01*
X158933501Y-104905264D01*
X158933489Y-104905261D01*
X158778845Y-104874500D01*
X158778842Y-104874500D01*
X158621158Y-104874500D01*
X158621155Y-104874500D01*
X158466510Y-104905261D01*
X158466498Y-104905264D01*
X158320827Y-104965602D01*
X158320814Y-104965609D01*
X158189711Y-105053210D01*
X158189707Y-105053213D01*
X158179740Y-105063181D01*
X158118417Y-105096666D01*
X158092059Y-105099500D01*
X156940919Y-105099500D01*
X156873880Y-105079815D01*
X156828125Y-105027011D01*
X156818181Y-104957853D01*
X156833531Y-104913501D01*
X156856048Y-104874500D01*
X156909577Y-104781784D01*
X156950500Y-104629057D01*
X156950500Y-104550097D01*
X156959139Y-104520673D01*
X156965657Y-104490689D01*
X156969421Y-104485658D01*
X156970185Y-104483058D01*
X156986798Y-104462436D01*
X156989648Y-104459586D01*
X157050962Y-104426093D01*
X157053150Y-104425638D01*
X157118729Y-104412593D01*
X157208497Y-104394737D01*
X157354179Y-104334394D01*
X157485289Y-104246789D01*
X157596789Y-104135289D01*
X157684394Y-104004179D01*
X157744737Y-103858497D01*
X157775500Y-103703842D01*
X157775500Y-103546158D01*
X157775500Y-103546155D01*
X157775499Y-103546153D01*
X157755047Y-103443334D01*
X157744737Y-103391503D01*
X157690811Y-103261315D01*
X157683343Y-103191847D01*
X157714618Y-103129368D01*
X157774707Y-103093716D01*
X157844376Y-103096157D01*
X157902292Y-103115349D01*
X158001655Y-103125500D01*
X158598344Y-103125499D01*
X158598352Y-103125498D01*
X158598355Y-103125498D01*
X158652760Y-103119940D01*
X158697708Y-103115349D01*
X158858697Y-103062003D01*
X159003044Y-102972968D01*
X159064193Y-102911819D01*
X159125516Y-102878334D01*
X159151874Y-102875500D01*
X159650501Y-102875500D01*
X159717540Y-102895185D01*
X159763295Y-102947989D01*
X159774501Y-102999500D01*
X159774501Y-103222876D01*
X159780908Y-103282483D01*
X159831202Y-103417328D01*
X159831206Y-103417335D01*
X159917452Y-103532544D01*
X159917455Y-103532547D01*
X160032664Y-103618793D01*
X160032671Y-103618797D01*
X160167517Y-103669091D01*
X160167516Y-103669091D01*
X160174444Y-103669835D01*
X160227127Y-103675500D01*
X161322872Y-103675499D01*
X161382483Y-103669091D01*
X161517331Y-103618796D01*
X161632546Y-103532546D01*
X161718796Y-103417331D01*
X161769091Y-103282483D01*
X161775500Y-103222873D01*
X161775499Y-102174499D01*
X161795183Y-102107461D01*
X161847987Y-102061706D01*
X161899499Y-102050500D01*
X164281007Y-102050500D01*
X164633481Y-102050500D01*
X164700520Y-102070185D01*
X164721162Y-102086819D01*
X165263181Y-102628838D01*
X165296666Y-102690161D01*
X165299500Y-102716519D01*
X165299500Y-103222870D01*
X165299501Y-103222876D01*
X165305908Y-103282483D01*
X165356202Y-103417328D01*
X165356206Y-103417335D01*
X165442452Y-103532544D01*
X165442453Y-103532544D01*
X165442454Y-103532546D01*
X165461316Y-103546666D01*
X165496062Y-103572677D01*
X165537932Y-103628611D01*
X165542916Y-103698302D01*
X165509430Y-103759625D01*
X165448107Y-103793110D01*
X165409148Y-103795301D01*
X165308324Y-103785000D01*
X165285000Y-103785000D01*
X165285000Y-104510000D01*
X165984999Y-104510000D01*
X165984999Y-104461692D01*
X165984998Y-104461677D01*
X165974855Y-104362392D01*
X165921547Y-104201518D01*
X165921542Y-104201507D01*
X165832575Y-104057271D01*
X165832572Y-104057267D01*
X165712732Y-103937427D01*
X165712728Y-103937424D01*
X165655965Y-103902412D01*
X165609240Y-103850464D01*
X165598019Y-103781502D01*
X165625862Y-103717420D01*
X165683931Y-103678564D01*
X165734317Y-103673585D01*
X165752127Y-103675500D01*
X166847872Y-103675499D01*
X166907483Y-103669091D01*
X167042331Y-103618796D01*
X167157546Y-103532546D01*
X167243796Y-103417331D01*
X167294091Y-103282483D01*
X167300500Y-103222873D01*
X167300499Y-102127128D01*
X167294091Y-102067517D01*
X167243796Y-101932669D01*
X167243795Y-101932668D01*
X167243793Y-101932664D01*
X167157547Y-101817455D01*
X167157544Y-101817452D01*
X167042335Y-101731206D01*
X167042328Y-101731202D01*
X166907482Y-101680908D01*
X166907483Y-101680908D01*
X166847883Y-101674501D01*
X166847881Y-101674500D01*
X166847873Y-101674500D01*
X166847865Y-101674500D01*
X166341519Y-101674500D01*
X166274480Y-101654815D01*
X166253838Y-101638181D01*
X165850012Y-101234355D01*
X165816527Y-101173032D01*
X165821511Y-101103340D01*
X165863383Y-101047407D01*
X165928847Y-101022990D01*
X165937693Y-101022674D01*
X168135780Y-101022674D01*
X168202819Y-101042359D01*
G37*
%TD.AperFunction*%
%TA.AperFunction,Conductor*%
G36*
X156499091Y-105199672D02*
G01*
X156528126Y-105263223D01*
X156518194Y-105332383D01*
X156512779Y-105342889D01*
X156440423Y-105468215D01*
X156440423Y-105468216D01*
X156399500Y-105620943D01*
X156399500Y-105779057D01*
X156422529Y-105865000D01*
X156440423Y-105931783D01*
X156440426Y-105931790D01*
X156519475Y-106068709D01*
X156519479Y-106068714D01*
X156519480Y-106068716D01*
X156631284Y-106180520D01*
X156631286Y-106180521D01*
X156631290Y-106180524D01*
X156698767Y-106219481D01*
X156768216Y-106259577D01*
X156920943Y-106300500D01*
X158157650Y-106300500D01*
X158224689Y-106320185D01*
X158226541Y-106321398D01*
X158320821Y-106384394D01*
X158320823Y-106384395D01*
X158320827Y-106384397D01*
X158460250Y-106442147D01*
X158466503Y-106444737D01*
X158524693Y-106456311D01*
X158586601Y-106488695D01*
X158621176Y-106549410D01*
X158624500Y-106577928D01*
X158624500Y-106603846D01*
X158655261Y-106758489D01*
X158655264Y-106758501D01*
X158715602Y-106904172D01*
X158715609Y-106904185D01*
X158803210Y-107035288D01*
X158803213Y-107035292D01*
X158914707Y-107146786D01*
X158914711Y-107146789D01*
X159045814Y-107234390D01*
X159045827Y-107234397D01*
X159180675Y-107290252D01*
X159191503Y-107294737D01*
X159311671Y-107318640D01*
X159346153Y-107325499D01*
X159346156Y-107325500D01*
X159346158Y-107325500D01*
X159503844Y-107325500D01*
X159503845Y-107325499D01*
X159658497Y-107294737D01*
X159804179Y-107234394D01*
X159935289Y-107146789D01*
X160046789Y-107035289D01*
X160134394Y-106904179D01*
X160136099Y-106900064D01*
X160168611Y-106821572D01*
X160194737Y-106758497D01*
X160222098Y-106620945D01*
X160225638Y-106603150D01*
X160258023Y-106541239D01*
X160259518Y-106539716D01*
X161402416Y-105396819D01*
X161463739Y-105363334D01*
X161490097Y-105360500D01*
X162554575Y-105360500D01*
X162621614Y-105380185D01*
X162649171Y-105404327D01*
X162655209Y-105411451D01*
X162687032Y-105463044D01*
X162765102Y-105541114D01*
X162768399Y-105545004D01*
X162780579Y-105572465D01*
X162794969Y-105598819D01*
X162794593Y-105604064D01*
X162796727Y-105608874D01*
X162792127Y-105638555D01*
X162789985Y-105668511D01*
X162786690Y-105673637D01*
X162786027Y-105677919D01*
X162778418Y-105686507D01*
X162761484Y-105712858D01*
X162694531Y-105779810D01*
X162694530Y-105779811D01*
X162606522Y-105925393D01*
X162555913Y-106087807D01*
X162549500Y-106158386D01*
X162549500Y-106821613D01*
X162555913Y-106892192D01*
X162555913Y-106892194D01*
X162555914Y-106892196D01*
X162606522Y-107054606D01*
X162694528Y-107200185D01*
X162751662Y-107257319D01*
X162756000Y-107265264D01*
X162763246Y-107270688D01*
X162772479Y-107295443D01*
X162785146Y-107318640D01*
X162784500Y-107327669D01*
X162787664Y-107336152D01*
X162782046Y-107361974D01*
X162780162Y-107388332D01*
X162774344Y-107397384D01*
X162772813Y-107404425D01*
X162751662Y-107432679D01*
X162702682Y-107481660D01*
X162641359Y-107515146D01*
X162571668Y-107510162D01*
X162527319Y-107481661D01*
X162425188Y-107379530D01*
X162419059Y-107375825D01*
X162279606Y-107291522D01*
X162117196Y-107240914D01*
X162117194Y-107240913D01*
X162117192Y-107240913D01*
X162067778Y-107236423D01*
X162046616Y-107234500D01*
X161533384Y-107234500D01*
X161514145Y-107236248D01*
X161462807Y-107240913D01*
X161300393Y-107291522D01*
X161154811Y-107379530D01*
X161034530Y-107499811D01*
X160946522Y-107645393D01*
X160895913Y-107807807D01*
X160893604Y-107833220D01*
X160890217Y-107870500D01*
X160889500Y-107878386D01*
X160889500Y-107968481D01*
X160869815Y-108035520D01*
X160853181Y-108056162D01*
X158396162Y-110513181D01*
X158369234Y-110527884D01*
X158343416Y-110544477D01*
X158337215Y-110545368D01*
X158334839Y-110546666D01*
X158308481Y-110549500D01*
X158087180Y-110549500D01*
X158020141Y-110529815D01*
X157987913Y-110499811D01*
X157977548Y-110485965D01*
X157907546Y-110392454D01*
X157884709Y-110375358D01*
X157792335Y-110306206D01*
X157792328Y-110306202D01*
X157657482Y-110255908D01*
X157657483Y-110255908D01*
X157628466Y-110252789D01*
X157563915Y-110226051D01*
X157524066Y-110168659D01*
X157521573Y-110098834D01*
X157557225Y-110038745D01*
X157619705Y-110007470D01*
X157641721Y-110005500D01*
X157675990Y-110005500D01*
X157676000Y-110005500D01*
X157783456Y-109993947D01*
X157834967Y-109982741D01*
X157869197Y-109971347D01*
X157937497Y-109948616D01*
X157937501Y-109948613D01*
X157937504Y-109948613D01*
X158058543Y-109870825D01*
X158111347Y-109825070D01*
X158205567Y-109716336D01*
X158265338Y-109585459D01*
X158285023Y-109518420D01*
X158285024Y-109518416D01*
X158305500Y-109376000D01*
X158305500Y-108624000D01*
X158293947Y-108516544D01*
X158282741Y-108465033D01*
X158271789Y-108432127D01*
X158248616Y-108362502D01*
X158248613Y-108362496D01*
X158212232Y-108305887D01*
X158170825Y-108241457D01*
X158170820Y-108241451D01*
X158125076Y-108188659D01*
X158125072Y-108188656D01*
X158125070Y-108188653D01*
X158016336Y-108094433D01*
X158016333Y-108094431D01*
X158016331Y-108094430D01*
X157885465Y-108034664D01*
X157885460Y-108034662D01*
X157885459Y-108034662D01*
X157818420Y-108014977D01*
X157818422Y-108014977D01*
X157818417Y-108014976D01*
X157770944Y-108008150D01*
X157676000Y-107994500D01*
X157675998Y-107994500D01*
X156624500Y-107994500D01*
X156557461Y-107974815D01*
X156511706Y-107922011D01*
X156500500Y-107870500D01*
X156500500Y-107285928D01*
X156475502Y-107160261D01*
X156475501Y-107160260D01*
X156475501Y-107160256D01*
X156429738Y-107049774D01*
X156426466Y-107041875D01*
X156426461Y-107041866D01*
X156355276Y-106935331D01*
X156355273Y-106935327D01*
X156264671Y-106844725D01*
X156226704Y-106819357D01*
X156158127Y-106773535D01*
X156158124Y-106773534D01*
X156153063Y-106770152D01*
X156153654Y-106769267D01*
X156124194Y-106743963D01*
X156123225Y-106744803D01*
X156074576Y-106688659D01*
X156074572Y-106688656D01*
X156074570Y-106688653D01*
X155965836Y-106594433D01*
X155965833Y-106594431D01*
X155965831Y-106594430D01*
X155834965Y-106534664D01*
X155834960Y-106534662D01*
X155834959Y-106534662D01*
X155790266Y-106521538D01*
X155767917Y-106514976D01*
X155720444Y-106508150D01*
X155625500Y-106494500D01*
X155539501Y-106494500D01*
X155539500Y-106494500D01*
X155509454Y-106495394D01*
X155505156Y-106495650D01*
X155494718Y-106496272D01*
X155494709Y-106496272D01*
X155494672Y-106496275D01*
X155493446Y-106496384D01*
X155493447Y-106496385D01*
X155481621Y-106497442D01*
X155481618Y-106497443D01*
X155464832Y-106498944D01*
X155464821Y-106498946D01*
X155463138Y-106499397D01*
X155448720Y-106502353D01*
X155432640Y-106504665D01*
X155432623Y-106504668D01*
X155362169Y-106519993D01*
X155334940Y-106532426D01*
X155329216Y-106534718D01*
X155305327Y-106544950D01*
X155305310Y-106544958D01*
X155274402Y-106558189D01*
X155274306Y-106558235D01*
X155261544Y-106563701D01*
X155261534Y-106563706D01*
X155253193Y-106568790D01*
X155240188Y-106575691D01*
X155231301Y-106579750D01*
X155231290Y-106579756D01*
X155224527Y-106584102D01*
X155224526Y-106584101D01*
X155217791Y-106588429D01*
X155217792Y-106588430D01*
X155168958Y-106619810D01*
X155164315Y-106622965D01*
X155138722Y-106638565D01*
X155138714Y-106638572D01*
X155108391Y-106671925D01*
X155100008Y-106680304D01*
X155098941Y-106681273D01*
X155063770Y-106711750D01*
X155061508Y-106715267D01*
X155052321Y-106723612D01*
X155027286Y-106735757D01*
X155003880Y-106750797D01*
X154996097Y-106750889D01*
X154989459Y-106754110D01*
X154965640Y-106751250D01*
X154936864Y-106751591D01*
X154933733Y-106750753D01*
X154929058Y-106749500D01*
X154929057Y-106749500D01*
X154924500Y-106749500D01*
X154857461Y-106729815D01*
X154811706Y-106677011D01*
X154800500Y-106625500D01*
X154800500Y-106620945D01*
X154800500Y-106620943D01*
X154759577Y-106468215D01*
X154680519Y-106331284D01*
X154636916Y-106287681D01*
X154603431Y-106226358D01*
X154608415Y-106156666D01*
X154636915Y-106112320D01*
X154680520Y-106068716D01*
X154759577Y-105931784D01*
X154800500Y-105779057D01*
X154800500Y-105620943D01*
X154800499Y-105620941D01*
X154800126Y-105618105D01*
X154800500Y-105615095D01*
X154800500Y-105612815D01*
X154800783Y-105612815D01*
X154807828Y-105556129D01*
X154812672Y-105543937D01*
X154820775Y-105531811D01*
X154873580Y-105404328D01*
X154879029Y-105376933D01*
X154883203Y-105366429D01*
X154898042Y-105347457D01*
X154909207Y-105326115D01*
X154919181Y-105320435D01*
X154926252Y-105311396D01*
X154948993Y-105303459D01*
X154969923Y-105291541D01*
X154981382Y-105292155D01*
X154992219Y-105288373D01*
X155015641Y-105293991D01*
X155039692Y-105295280D01*
X155049943Y-105299419D01*
X155139541Y-105340338D01*
X155206580Y-105360023D01*
X155206584Y-105360024D01*
X155349000Y-105380500D01*
X155349003Y-105380500D01*
X155875990Y-105380500D01*
X155876000Y-105380500D01*
X155983456Y-105368947D01*
X156034967Y-105357741D01*
X156079590Y-105342889D01*
X156137497Y-105323616D01*
X156137501Y-105323613D01*
X156137504Y-105323613D01*
X156258543Y-105245825D01*
X156311347Y-105200070D01*
X156311665Y-105199702D01*
X156311805Y-105199612D01*
X156314479Y-105196939D01*
X156315060Y-105197520D01*
X156370437Y-105161919D01*
X156440306Y-105161907D01*
X156499091Y-105199672D01*
G37*
%TD.AperFunction*%
%TA.AperFunction,Conductor*%
G36*
X137775519Y-104970185D02*
G01*
X137796161Y-104986819D01*
X137889811Y-105080469D01*
X137889813Y-105080470D01*
X137889815Y-105080472D01*
X138035394Y-105168478D01*
X138197804Y-105219086D01*
X138268384Y-105225500D01*
X138268387Y-105225500D01*
X138781613Y-105225500D01*
X138781616Y-105225500D01*
X138852196Y-105219086D01*
X138936892Y-105192693D01*
X139006752Y-105191543D01*
X139066145Y-105228344D01*
X139096212Y-105291412D01*
X139089964Y-105354412D01*
X139051508Y-105457517D01*
X139046795Y-105501362D01*
X139045101Y-105517123D01*
X139045100Y-105517135D01*
X139045100Y-106005382D01*
X139042717Y-106029573D01*
X139024500Y-106121154D01*
X139024500Y-106278845D01*
X139042717Y-106370427D01*
X139045100Y-106394618D01*
X139045100Y-106882870D01*
X139045101Y-106882876D01*
X139051509Y-106942484D01*
X139065489Y-106979968D01*
X139070473Y-107049660D01*
X139036987Y-107110982D01*
X138975664Y-107144467D01*
X138949307Y-107147300D01*
X138545229Y-107147300D01*
X138545223Y-107147301D01*
X138485616Y-107153708D01*
X138350771Y-107204002D01*
X138350764Y-107204006D01*
X138235555Y-107290252D01*
X138235552Y-107290255D01*
X138149306Y-107405464D01*
X138149302Y-107405471D01*
X138099008Y-107540317D01*
X138092601Y-107599916D01*
X138092601Y-107599923D01*
X138092600Y-107599935D01*
X138092600Y-108965670D01*
X138092601Y-108965676D01*
X138097664Y-109012774D01*
X138085257Y-109081533D01*
X138062055Y-109113708D01*
X137838742Y-109337022D01*
X137777419Y-109370507D01*
X137707728Y-109365523D01*
X137651794Y-109323652D01*
X137627377Y-109258187D01*
X137642229Y-109189914D01*
X137649019Y-109179347D01*
X137650254Y-109177086D01*
X137700496Y-109042379D01*
X137700498Y-109042372D01*
X137706899Y-108982844D01*
X137706900Y-108982827D01*
X137706900Y-108550000D01*
X137177500Y-108550000D01*
X137177500Y-109435000D01*
X137254728Y-109435000D01*
X137254744Y-109434999D01*
X137314272Y-109428598D01*
X137314279Y-109428596D01*
X137448986Y-109378354D01*
X137456772Y-109374103D01*
X137457734Y-109375865D01*
X137512386Y-109355477D01*
X137580660Y-109370323D01*
X137630070Y-109419725D01*
X137644927Y-109487997D01*
X137620515Y-109553463D01*
X137608923Y-109566841D01*
X137287584Y-109888181D01*
X137226261Y-109921666D01*
X137199903Y-109924500D01*
X135875097Y-109924500D01*
X135808058Y-109904815D01*
X135787416Y-109888181D01*
X135486781Y-109587546D01*
X135453296Y-109526223D01*
X135458280Y-109456531D01*
X135500152Y-109400598D01*
X135531130Y-109383683D01*
X135544226Y-109378798D01*
X135544226Y-109378797D01*
X135544231Y-109378796D01*
X135659446Y-109292546D01*
X135745696Y-109177331D01*
X135795991Y-109042483D01*
X135802400Y-108982873D01*
X135802400Y-108982844D01*
X136148100Y-108982844D01*
X136154501Y-109042372D01*
X136154503Y-109042379D01*
X136204745Y-109177086D01*
X136204749Y-109177093D01*
X136290909Y-109292187D01*
X136290912Y-109292190D01*
X136406006Y-109378350D01*
X136406013Y-109378354D01*
X136540720Y-109428596D01*
X136540727Y-109428598D01*
X136600255Y-109434999D01*
X136600272Y-109435000D01*
X136677500Y-109435000D01*
X136677500Y-108550000D01*
X136148100Y-108550000D01*
X136148100Y-108982844D01*
X135802400Y-108982844D01*
X135802399Y-108299554D01*
X135802399Y-107617129D01*
X135802398Y-107617123D01*
X135802151Y-107614827D01*
X135795991Y-107557517D01*
X135782009Y-107520031D01*
X135779820Y-107489422D01*
X135775454Y-107459052D01*
X135777351Y-107454896D01*
X135777026Y-107450341D01*
X135791729Y-107423414D01*
X135804479Y-107395496D01*
X135808322Y-107393025D01*
X135810511Y-107389018D01*
X135837438Y-107374314D01*
X135863257Y-107357722D01*
X135869457Y-107356830D01*
X135871834Y-107355533D01*
X135898192Y-107352699D01*
X136052341Y-107352699D01*
X136119380Y-107372384D01*
X136165135Y-107425188D01*
X136175079Y-107494346D01*
X136168523Y-107520033D01*
X136154502Y-107557623D01*
X136154501Y-107557627D01*
X136148100Y-107617155D01*
X136148100Y-108050000D01*
X136677500Y-108050000D01*
X137177500Y-108050000D01*
X137706900Y-108050000D01*
X137706900Y-107617172D01*
X137706899Y-107617155D01*
X137700498Y-107557627D01*
X137700496Y-107557620D01*
X137650254Y-107422913D01*
X137650250Y-107422906D01*
X137564090Y-107307812D01*
X137564087Y-107307809D01*
X137448993Y-107221649D01*
X137448986Y-107221645D01*
X137314279Y-107171403D01*
X137314272Y-107171401D01*
X137254744Y-107165000D01*
X137177500Y-107165000D01*
X137177500Y-108050000D01*
X136677500Y-108050000D01*
X136677500Y-107163449D01*
X136687999Y-107113515D01*
X136693720Y-107100509D01*
X136698196Y-107094531D01*
X136748491Y-106959683D01*
X136754900Y-106900073D01*
X136754899Y-105534328D01*
X136748491Y-105474717D01*
X136746066Y-105468216D01*
X136698197Y-105339871D01*
X136698193Y-105339864D01*
X136627797Y-105245828D01*
X136611946Y-105224654D01*
X136543967Y-105173765D01*
X136502098Y-105117833D01*
X136497114Y-105048141D01*
X136530599Y-104986818D01*
X136591923Y-104953334D01*
X136618280Y-104950500D01*
X137708480Y-104950500D01*
X137775519Y-104970185D01*
G37*
%TD.AperFunction*%
%TA.AperFunction,Conductor*%
G36*
X153517942Y-106320185D02*
G01*
X153563697Y-106372989D01*
X153573641Y-106442147D01*
X153544616Y-106505703D01*
X153538587Y-106512177D01*
X153229192Y-106821572D01*
X152931286Y-107119478D01*
X152819481Y-107231282D01*
X152819479Y-107231284D01*
X152813907Y-107240936D01*
X152787930Y-107285931D01*
X152756927Y-107339630D01*
X152747947Y-107355184D01*
X152740423Y-107368215D01*
X152699499Y-107520943D01*
X152699499Y-107520945D01*
X152699499Y-107689046D01*
X152699500Y-107689059D01*
X152699500Y-107758284D01*
X152679815Y-107825323D01*
X152639652Y-107864399D01*
X152589815Y-107894528D01*
X152589814Y-107894528D01*
X152589809Y-107894532D01*
X152588271Y-107895737D01*
X152586939Y-107896267D01*
X152583398Y-107898408D01*
X152583041Y-107897818D01*
X152523356Y-107921579D01*
X152454774Y-107908223D01*
X152446792Y-107903092D01*
X152446602Y-107903408D01*
X152440186Y-107899529D01*
X152440185Y-107899528D01*
X152390347Y-107869399D01*
X152343162Y-107817871D01*
X152330500Y-107763284D01*
X152330500Y-107328617D01*
X152350185Y-107261578D01*
X152366819Y-107240936D01*
X153270936Y-106336819D01*
X153297863Y-106322115D01*
X153323682Y-106305523D01*
X153329882Y-106304631D01*
X153332259Y-106303334D01*
X153358617Y-106300500D01*
X153450903Y-106300500D01*
X153517942Y-106320185D01*
G37*
%TD.AperFunction*%
%TA.AperFunction,Conductor*%
G36*
X150076389Y-99298894D02*
G01*
X150215242Y-99336100D01*
X150215244Y-99336100D01*
X150367803Y-99336100D01*
X150434842Y-99355785D01*
X150480597Y-99408589D01*
X150490541Y-99477747D01*
X150471460Y-99523042D01*
X150473543Y-99524245D01*
X150390426Y-99668209D01*
X150390423Y-99668216D01*
X150349500Y-99820943D01*
X150349500Y-99979057D01*
X150377587Y-100083881D01*
X150386705Y-100117907D01*
X150386705Y-100182093D01*
X150349500Y-100320944D01*
X150349500Y-100602550D01*
X150329815Y-100669589D01*
X150326078Y-100675076D01*
X150294433Y-100718959D01*
X150234663Y-100849834D01*
X150214976Y-100916879D01*
X150212450Y-100934449D01*
X150196210Y-101047407D01*
X150194500Y-101059298D01*
X150194500Y-101076001D01*
X150196390Y-101102427D01*
X150181538Y-101170700D01*
X150160387Y-101198954D01*
X149596162Y-101763181D01*
X149569234Y-101777884D01*
X149543416Y-101794477D01*
X149537215Y-101795368D01*
X149534839Y-101796666D01*
X149508481Y-101799500D01*
X149501874Y-101799500D01*
X149434835Y-101779815D01*
X149414197Y-101763185D01*
X149328044Y-101677032D01*
X149327045Y-101676415D01*
X149326503Y-101675814D01*
X149322383Y-101672556D01*
X149322939Y-101671851D01*
X149315069Y-101663100D01*
X149299839Y-101653678D01*
X149284074Y-101628639D01*
X149280324Y-101624469D01*
X149280252Y-101624318D01*
X149278840Y-101621363D01*
X149270775Y-101601890D01*
X149266448Y-101595414D01*
X149262606Y-101587369D01*
X149258403Y-101561320D01*
X149250520Y-101536139D01*
X149250500Y-101533931D01*
X149250500Y-101508798D01*
X149270185Y-101441759D01*
X149286819Y-101421117D01*
X149514863Y-101193073D01*
X149774820Y-100933116D01*
X149853878Y-100796185D01*
X149894801Y-100643458D01*
X149894801Y-100485343D01*
X149853878Y-100332615D01*
X149774820Y-100195684D01*
X149663017Y-100083881D01*
X149569373Y-100029815D01*
X149526087Y-100004823D01*
X149433161Y-99979924D01*
X149373358Y-99963900D01*
X149215243Y-99963900D01*
X149215241Y-99963900D01*
X149155438Y-99979924D01*
X149143436Y-99979638D01*
X149132189Y-99983833D01*
X149109156Y-99978822D01*
X149085588Y-99978261D01*
X149073939Y-99971160D01*
X149063916Y-99968980D01*
X149035665Y-99947830D01*
X149016715Y-99928880D01*
X148983232Y-99867556D01*
X148980399Y-99841201D01*
X148980399Y-99763105D01*
X148980398Y-99763097D01*
X148974569Y-99733788D01*
X148974569Y-99733787D01*
X148964613Y-99718886D01*
X148943738Y-99652208D01*
X148962225Y-99584829D01*
X148964584Y-99581156D01*
X148974569Y-99566213D01*
X148980400Y-99536899D01*
X148980399Y-99434771D01*
X149000083Y-99367735D01*
X149052886Y-99321979D01*
X149122045Y-99312035D01*
X149136480Y-99314995D01*
X149215244Y-99336100D01*
X149215247Y-99336100D01*
X149373355Y-99336100D01*
X149373358Y-99336100D01*
X149512209Y-99298895D01*
X149576392Y-99298895D01*
X149715243Y-99336100D01*
X149715245Y-99336100D01*
X149873354Y-99336100D01*
X149873357Y-99336100D01*
X150012208Y-99298895D01*
X150028241Y-99298895D01*
X150041348Y-99294705D01*
X150076389Y-99298894D01*
G37*
%TD.AperFunction*%
%TA.AperFunction,Conductor*%
G36*
X155455701Y-96430382D02*
G01*
X155462180Y-96436415D01*
X155607677Y-96581912D01*
X155641162Y-96643235D01*
X155643284Y-96656327D01*
X155643407Y-96657475D01*
X155643410Y-96657486D01*
X155693702Y-96792328D01*
X155693706Y-96792335D01*
X155779952Y-96907544D01*
X155779955Y-96907547D01*
X155895164Y-96993793D01*
X155895171Y-96993797D01*
X155940118Y-97010561D01*
X156030017Y-97044091D01*
X156089627Y-97050500D01*
X156485372Y-97050499D01*
X156544983Y-97044091D01*
X156544985Y-97044090D01*
X156544987Y-97044090D01*
X156552531Y-97042308D01*
X156552877Y-97043775D01*
X156613842Y-97039408D01*
X156628878Y-97043822D01*
X156630011Y-97044089D01*
X156630017Y-97044091D01*
X156689627Y-97050500D01*
X157085372Y-97050499D01*
X157144983Y-97044091D01*
X157145830Y-97043775D01*
X157240896Y-97008318D01*
X157284229Y-97000500D01*
X157615771Y-97000500D01*
X157659104Y-97008318D01*
X157755017Y-97044091D01*
X157814627Y-97050500D01*
X157875500Y-97050499D01*
X157942538Y-97070183D01*
X157988294Y-97122986D01*
X157999500Y-97174499D01*
X157999500Y-97526000D01*
X157979815Y-97593039D01*
X157927011Y-97638794D01*
X157875501Y-97650000D01*
X157790676Y-97650000D01*
X157673371Y-97665442D01*
X157673366Y-97665444D01*
X157527414Y-97725899D01*
X157402075Y-97822075D01*
X157305899Y-97947413D01*
X157245445Y-98093365D01*
X157245444Y-98093369D01*
X157230000Y-98210669D01*
X157230000Y-98489324D01*
X157245442Y-98606628D01*
X157245444Y-98606633D01*
X157305899Y-98752585D01*
X157402075Y-98877924D01*
X157527413Y-98974100D01*
X157673365Y-99034554D01*
X157673369Y-99034555D01*
X157790676Y-99049999D01*
X158129324Y-99049999D01*
X158246628Y-99034557D01*
X158246633Y-99034555D01*
X158392586Y-98974100D01*
X158400088Y-98968344D01*
X158465257Y-98943148D01*
X158507671Y-98946943D01*
X158520943Y-98950500D01*
X158520944Y-98950500D01*
X158679054Y-98950500D01*
X158679057Y-98950500D01*
X158750704Y-98931302D01*
X158820552Y-98932965D01*
X158878415Y-98972127D01*
X158905919Y-99036356D01*
X158906154Y-99038475D01*
X158909651Y-99072708D01*
X158909651Y-99072710D01*
X158962996Y-99233694D01*
X158963001Y-99233705D01*
X159052029Y-99378040D01*
X159052032Y-99378044D01*
X159171955Y-99497967D01*
X159171959Y-99497970D01*
X159316294Y-99586998D01*
X159316297Y-99586999D01*
X159316303Y-99587003D01*
X159477292Y-99640349D01*
X159576655Y-99650500D01*
X160173344Y-99650499D01*
X160173352Y-99650498D01*
X160173355Y-99650498D01*
X160227760Y-99644940D01*
X160272708Y-99640349D01*
X160433697Y-99587003D01*
X160485902Y-99554801D01*
X160553295Y-99536361D01*
X160619958Y-99557283D01*
X160664728Y-99610925D01*
X160675000Y-99660340D01*
X160675000Y-100493889D01*
X160655315Y-100560928D01*
X160602511Y-100606683D01*
X160598452Y-100608450D01*
X160520827Y-100640602D01*
X160520814Y-100640609D01*
X160389711Y-100728210D01*
X160389707Y-100728213D01*
X160278213Y-100839707D01*
X160278210Y-100839711D01*
X160190609Y-100970814D01*
X160190602Y-100970827D01*
X160130264Y-101116498D01*
X160130261Y-101116510D01*
X160099500Y-101271153D01*
X160099500Y-101350500D01*
X160079815Y-101417539D01*
X160027011Y-101463294D01*
X159975500Y-101474500D01*
X159151874Y-101474500D01*
X159084835Y-101454815D01*
X159064193Y-101438181D01*
X159003044Y-101377032D01*
X159003040Y-101377029D01*
X158858705Y-101288001D01*
X158858699Y-101287998D01*
X158858697Y-101287997D01*
X158807865Y-101271153D01*
X158697709Y-101234651D01*
X158598346Y-101224500D01*
X158001662Y-101224500D01*
X158001644Y-101224501D01*
X157902292Y-101234650D01*
X157902286Y-101234652D01*
X157738503Y-101288924D01*
X157668675Y-101291326D01*
X157608633Y-101255594D01*
X157577441Y-101193073D01*
X157575500Y-101171218D01*
X157575500Y-101046155D01*
X157575499Y-101046153D01*
X157570829Y-101022674D01*
X157544737Y-100891503D01*
X157544735Y-100891498D01*
X157484397Y-100745827D01*
X157484390Y-100745814D01*
X157396789Y-100614711D01*
X157396786Y-100614707D01*
X157285292Y-100503213D01*
X157285288Y-100503210D01*
X157154185Y-100415609D01*
X157154172Y-100415602D01*
X157008501Y-100355264D01*
X157008489Y-100355261D01*
X156853845Y-100324500D01*
X156853842Y-100324500D01*
X156696158Y-100324500D01*
X156696155Y-100324500D01*
X156541510Y-100355261D01*
X156541498Y-100355264D01*
X156395828Y-100415602D01*
X156395812Y-100415611D01*
X156356861Y-100441637D01*
X156335425Y-100453095D01*
X156211991Y-100504223D01*
X156097254Y-100580887D01*
X156097253Y-100580888D01*
X155781561Y-100896581D01*
X155754633Y-100911284D01*
X155728815Y-100927877D01*
X155722614Y-100928768D01*
X155720238Y-100930066D01*
X155693880Y-100932900D01*
X155604500Y-100932900D01*
X155537461Y-100913215D01*
X155491706Y-100860411D01*
X155480500Y-100808900D01*
X155480500Y-99124010D01*
X155480500Y-99124000D01*
X155468947Y-99016544D01*
X155457741Y-98965033D01*
X155452904Y-98950499D01*
X155423616Y-98862502D01*
X155423613Y-98862496D01*
X155385675Y-98803464D01*
X155345825Y-98741457D01*
X155326120Y-98718716D01*
X155300076Y-98688659D01*
X155300072Y-98688656D01*
X155300070Y-98688653D01*
X155191336Y-98594433D01*
X155191333Y-98594431D01*
X155191331Y-98594430D01*
X155060465Y-98534664D01*
X155060460Y-98534662D01*
X155060459Y-98534662D01*
X154993420Y-98514977D01*
X154993422Y-98514977D01*
X154993417Y-98514976D01*
X154945944Y-98508150D01*
X154851000Y-98494500D01*
X154737974Y-98494500D01*
X154737964Y-98494500D01*
X154679475Y-98497897D01*
X154679427Y-98497902D01*
X154650958Y-98501220D01*
X154650920Y-98501225D01*
X154593210Y-98511371D01*
X154593203Y-98511373D01*
X154528858Y-98536690D01*
X154483460Y-98545300D01*
X154297729Y-98545300D01*
X154297722Y-98545301D01*
X154238115Y-98551708D01*
X154103270Y-98602002D01*
X154103263Y-98602006D01*
X153988054Y-98688252D01*
X153988051Y-98688255D01*
X153901805Y-98803464D01*
X153901801Y-98803471D01*
X153851507Y-98938317D01*
X153845100Y-98997916D01*
X153845099Y-98997935D01*
X153845099Y-99270500D01*
X153825414Y-99337539D01*
X153772610Y-99383294D01*
X153721099Y-99394500D01*
X152424500Y-99394500D01*
X152357461Y-99374815D01*
X152311706Y-99322011D01*
X152300500Y-99270500D01*
X152300500Y-97399499D01*
X152320185Y-97332460D01*
X152372989Y-97286705D01*
X152424495Y-97275499D01*
X152998344Y-97275499D01*
X152998352Y-97275498D01*
X152998355Y-97275498D01*
X153052760Y-97269940D01*
X153097708Y-97265349D01*
X153258697Y-97212003D01*
X153403044Y-97122968D01*
X153403049Y-97122962D01*
X153408707Y-97118490D01*
X153410280Y-97120480D01*
X153461142Y-97092708D01*
X153530834Y-97097692D01*
X153565249Y-97119810D01*
X153566293Y-97118490D01*
X153571959Y-97122970D01*
X153716294Y-97211998D01*
X153716297Y-97211999D01*
X153716303Y-97212003D01*
X153877292Y-97265349D01*
X153976655Y-97275500D01*
X154573344Y-97275499D01*
X154573352Y-97275498D01*
X154573355Y-97275498D01*
X154627760Y-97269940D01*
X154672708Y-97265349D01*
X154833697Y-97212003D01*
X154978044Y-97122968D01*
X155097968Y-97003044D01*
X155187003Y-96858697D01*
X155240349Y-96697708D01*
X155250500Y-96598345D01*
X155250499Y-96524095D01*
X155270183Y-96457058D01*
X155322986Y-96411302D01*
X155392144Y-96401358D01*
X155455701Y-96430382D01*
G37*
%TD.AperFunction*%
%TA.AperFunction,Conductor*%
G36*
X146764918Y-95061828D02*
G01*
X146786678Y-95072469D01*
X146826431Y-95096989D01*
X146887285Y-95134525D01*
X146891303Y-95137003D01*
X147052292Y-95190349D01*
X147151655Y-95200500D01*
X147748344Y-95200499D01*
X147748352Y-95200498D01*
X147748355Y-95200498D01*
X147802760Y-95194940D01*
X147847708Y-95190349D01*
X148008697Y-95137003D01*
X148020052Y-95129998D01*
X148103704Y-95078402D01*
X148171096Y-95059961D01*
X148237760Y-95080883D01*
X148282529Y-95134525D01*
X148292801Y-95183940D01*
X148292801Y-96331601D01*
X148284156Y-96361038D01*
X148277633Y-96391029D01*
X148273877Y-96396045D01*
X148273116Y-96398640D01*
X148256486Y-96419277D01*
X148218706Y-96457058D01*
X148185337Y-96490427D01*
X148124013Y-96523911D01*
X148121848Y-96524362D01*
X147966508Y-96555261D01*
X147966498Y-96555264D01*
X147820827Y-96615602D01*
X147820814Y-96615609D01*
X147774032Y-96646869D01*
X147707355Y-96667747D01*
X147639975Y-96649263D01*
X147617460Y-96631448D01*
X147493044Y-96507032D01*
X147493040Y-96507029D01*
X147348705Y-96418001D01*
X147348699Y-96417998D01*
X147348697Y-96417997D01*
X147328493Y-96411302D01*
X147187709Y-96364651D01*
X147088346Y-96354500D01*
X146541662Y-96354500D01*
X146541644Y-96354501D01*
X146442292Y-96364650D01*
X146442289Y-96364651D01*
X146281305Y-96417996D01*
X146281294Y-96418001D01*
X146136959Y-96507029D01*
X146136955Y-96507032D01*
X146017032Y-96626955D01*
X146017029Y-96626959D01*
X145928001Y-96771294D01*
X145927996Y-96771305D01*
X145874651Y-96932290D01*
X145864500Y-97031647D01*
X145864500Y-97628337D01*
X145864501Y-97628355D01*
X145874650Y-97727707D01*
X145874651Y-97727710D01*
X145927996Y-97888694D01*
X145928001Y-97888705D01*
X146017029Y-98033040D01*
X146017032Y-98033044D01*
X146136955Y-98152967D01*
X146136959Y-98152970D01*
X146281294Y-98241998D01*
X146281297Y-98241999D01*
X146281303Y-98242003D01*
X146442292Y-98295349D01*
X146541655Y-98305500D01*
X147088344Y-98305499D01*
X147088352Y-98305498D01*
X147088355Y-98305498D01*
X147142760Y-98299940D01*
X147187708Y-98295349D01*
X147348697Y-98242003D01*
X147493044Y-98152968D01*
X147612968Y-98033044D01*
X147612973Y-98033034D01*
X147613123Y-98032847D01*
X147613266Y-98032745D01*
X147618075Y-98027937D01*
X147618896Y-98028758D01*
X147670140Y-97992463D01*
X147739938Y-97989316D01*
X147779289Y-98006644D01*
X147820814Y-98034390D01*
X147820827Y-98034397D01*
X147963200Y-98093369D01*
X147966503Y-98094737D01*
X148121153Y-98125499D01*
X148121156Y-98125500D01*
X148121158Y-98125500D01*
X148278844Y-98125500D01*
X148278845Y-98125499D01*
X148433497Y-98094737D01*
X148505345Y-98064977D01*
X148522349Y-98057934D01*
X148591818Y-98050465D01*
X148654297Y-98081740D01*
X148689949Y-98141830D01*
X148693801Y-98172495D01*
X148693801Y-98814657D01*
X148734249Y-98965609D01*
X148734724Y-98967383D01*
X148734726Y-98967388D01*
X148745761Y-98986502D01*
X148762232Y-99054402D01*
X148739379Y-99120429D01*
X148684457Y-99163618D01*
X148638373Y-99172500D01*
X148387405Y-99172500D01*
X148387397Y-99172501D01*
X148358087Y-99178330D01*
X148324842Y-99200542D01*
X148302632Y-99233785D01*
X148302629Y-99233791D01*
X148296800Y-99263098D01*
X148296800Y-99536894D01*
X148296801Y-99536902D01*
X148302630Y-99566212D01*
X148302631Y-99566214D01*
X148312586Y-99581114D01*
X148318501Y-99600008D01*
X148328959Y-99616820D01*
X148328725Y-99632667D01*
X148333461Y-99647792D01*
X148328222Y-99666885D01*
X148327931Y-99686682D01*
X148315812Y-99712116D01*
X148314974Y-99715171D01*
X148312798Y-99718568D01*
X148312587Y-99718886D01*
X148302631Y-99733787D01*
X148302602Y-99733930D01*
X148295874Y-99744069D01*
X148277923Y-99759165D01*
X148263193Y-99777415D01*
X148251683Y-99781235D01*
X148242403Y-99789041D01*
X148219142Y-99792036D01*
X148196881Y-99799426D01*
X148192557Y-99799501D01*
X148125098Y-99799501D01*
X148058059Y-99779816D01*
X148037417Y-99763182D01*
X147934574Y-99660339D01*
X147901089Y-99599016D01*
X147900638Y-99596849D01*
X147869738Y-99441510D01*
X147869737Y-99441503D01*
X147826078Y-99336099D01*
X147809397Y-99295827D01*
X147809390Y-99295814D01*
X147721789Y-99164711D01*
X147721786Y-99164707D01*
X147610292Y-99053213D01*
X147610288Y-99053210D01*
X147479185Y-98965609D01*
X147479172Y-98965602D01*
X147333501Y-98905264D01*
X147333489Y-98905261D01*
X147178845Y-98874500D01*
X147178842Y-98874500D01*
X147021158Y-98874500D01*
X147021155Y-98874500D01*
X146866510Y-98905261D01*
X146866498Y-98905264D01*
X146720827Y-98965602D01*
X146720814Y-98965609D01*
X146589711Y-99053210D01*
X146589707Y-99053213D01*
X146478213Y-99164707D01*
X146478210Y-99164711D01*
X146390609Y-99295814D01*
X146390602Y-99295827D01*
X146330264Y-99441498D01*
X146330261Y-99441510D01*
X146299500Y-99596153D01*
X146299500Y-99753846D01*
X146330261Y-99908489D01*
X146330264Y-99908501D01*
X146390602Y-100054172D01*
X146390609Y-100054185D01*
X146478210Y-100185288D01*
X146478213Y-100185292D01*
X146589441Y-100296520D01*
X146622926Y-100357843D01*
X146617942Y-100427535D01*
X146576070Y-100483468D01*
X146510606Y-100507885D01*
X146501760Y-100508201D01*
X145516518Y-100508201D01*
X145449479Y-100488516D01*
X145428837Y-100471882D01*
X144736819Y-99779862D01*
X144703334Y-99718539D01*
X144700500Y-99692181D01*
X144700500Y-96041519D01*
X144709127Y-96012138D01*
X144715608Y-95982201D01*
X144719413Y-95977106D01*
X144720185Y-95974480D01*
X144736731Y-95953926D01*
X144736821Y-95953836D01*
X144737232Y-95953424D01*
X144798520Y-95919879D01*
X144868216Y-95924794D01*
X144912680Y-95953338D01*
X145014811Y-96055469D01*
X145014813Y-96055470D01*
X145014815Y-96055472D01*
X145160394Y-96143478D01*
X145322804Y-96194086D01*
X145393384Y-96200500D01*
X145393387Y-96200500D01*
X145906613Y-96200500D01*
X145906616Y-96200500D01*
X145977196Y-96194086D01*
X146139606Y-96143478D01*
X146285185Y-96055472D01*
X146405472Y-95935185D01*
X146493478Y-95789606D01*
X146544086Y-95627196D01*
X146550500Y-95556616D01*
X146550500Y-95225097D01*
X146559143Y-95195660D01*
X146565667Y-95165671D01*
X146569422Y-95160654D01*
X146570185Y-95158058D01*
X146586818Y-95137417D01*
X146601815Y-95122419D01*
X146633905Y-95090329D01*
X146695227Y-95056844D01*
X146764918Y-95061828D01*
G37*
%TD.AperFunction*%
%TA.AperFunction,Conductor*%
G36*
X143002783Y-90111548D02*
G01*
X143019036Y-90112711D01*
X143034532Y-90124311D01*
X143052493Y-90131532D01*
X143061925Y-90144818D01*
X143074969Y-90154583D01*
X143081733Y-90172718D01*
X143092940Y-90188504D01*
X143098538Y-90217773D01*
X143098938Y-90218845D01*
X143099246Y-90218818D01*
X143099348Y-90219946D01*
X143099386Y-90220047D01*
X143099438Y-90220933D01*
X143105913Y-90292192D01*
X143105913Y-90292194D01*
X143105914Y-90292196D01*
X143156522Y-90454606D01*
X143217052Y-90554735D01*
X143244530Y-90600188D01*
X143259161Y-90614819D01*
X143292646Y-90676142D01*
X143287662Y-90745834D01*
X143259161Y-90790181D01*
X143244531Y-90804810D01*
X143244530Y-90804811D01*
X143156522Y-90950393D01*
X143105913Y-91112807D01*
X143102765Y-91147457D01*
X143099778Y-91180331D01*
X143099500Y-91183386D01*
X143099500Y-91846613D01*
X143105913Y-91917192D01*
X143105913Y-91917194D01*
X143105914Y-91917196D01*
X143133166Y-92004651D01*
X143156522Y-92079606D01*
X143244530Y-92225188D01*
X143263179Y-92243836D01*
X143296666Y-92305158D01*
X143299500Y-92331519D01*
X143299500Y-92808480D01*
X143279815Y-92875519D01*
X143263181Y-92896161D01*
X143244531Y-92914810D01*
X143244530Y-92914811D01*
X143156522Y-93060393D01*
X143105913Y-93222807D01*
X143101612Y-93270147D01*
X143099500Y-93293384D01*
X143099500Y-93956616D01*
X143101172Y-93975012D01*
X143105913Y-94027192D01*
X143105913Y-94027194D01*
X143105914Y-94027196D01*
X143156522Y-94189606D01*
X143226754Y-94305784D01*
X143244530Y-94335188D01*
X143246661Y-94337319D01*
X143247722Y-94339262D01*
X143249157Y-94341094D01*
X143248852Y-94341332D01*
X143280146Y-94398642D01*
X143275162Y-94468334D01*
X143249110Y-94508869D01*
X143249157Y-94508906D01*
X143248767Y-94509402D01*
X143246661Y-94512681D01*
X143244531Y-94514810D01*
X143244530Y-94514811D01*
X143156522Y-94660393D01*
X143105913Y-94822807D01*
X143099500Y-94893386D01*
X143099500Y-95556613D01*
X143105913Y-95627192D01*
X143105913Y-95627194D01*
X143105914Y-95627196D01*
X143156522Y-95789606D01*
X143238246Y-95924794D01*
X143244530Y-95935188D01*
X143263179Y-95953836D01*
X143296666Y-96015158D01*
X143299500Y-96041519D01*
X143299500Y-99753926D01*
X143279815Y-99820965D01*
X143227011Y-99866720D01*
X143157853Y-99876664D01*
X143099420Y-99851844D01*
X142517511Y-99399714D01*
X140943716Y-98176910D01*
X140937764Y-98172495D01*
X140925542Y-98163429D01*
X140916519Y-98157045D01*
X140910474Y-98152967D01*
X140897824Y-98144433D01*
X140897526Y-98144297D01*
X140766950Y-98084663D01*
X140699905Y-98064976D01*
X140678267Y-98061865D01*
X140659499Y-98059166D01*
X140595944Y-98030142D01*
X140558170Y-97971364D01*
X140558170Y-97901494D01*
X140560965Y-97893096D01*
X140567442Y-97875729D01*
X140598491Y-97792483D01*
X140604900Y-97732873D01*
X140604899Y-97244617D01*
X140607282Y-97220425D01*
X140608958Y-97212003D01*
X140617708Y-97168010D01*
X140625500Y-97128843D01*
X140625500Y-96971155D01*
X140607282Y-96879571D01*
X140604899Y-96855379D01*
X140604899Y-96367129D01*
X140604898Y-96367123D01*
X140604897Y-96367116D01*
X140598491Y-96307517D01*
X140584509Y-96270031D01*
X140579526Y-96200341D01*
X140613011Y-96139018D01*
X140674334Y-96105533D01*
X140700692Y-96102699D01*
X141104771Y-96102699D01*
X141104772Y-96102699D01*
X141164383Y-96096291D01*
X141299231Y-96045996D01*
X141414446Y-95959746D01*
X141500696Y-95844531D01*
X141550991Y-95709683D01*
X141557400Y-95650073D01*
X141557399Y-94284328D01*
X141550991Y-94224717D01*
X141537895Y-94189606D01*
X141500697Y-94089871D01*
X141500693Y-94089864D01*
X141414447Y-93974655D01*
X141414319Y-93974527D01*
X141414231Y-93974367D01*
X141409132Y-93967555D01*
X141410111Y-93966821D01*
X141380834Y-93913204D01*
X141378000Y-93886846D01*
X141378000Y-90706328D01*
X141397685Y-90639289D01*
X141450489Y-90593534D01*
X141477809Y-90584711D01*
X141497846Y-90580725D01*
X141628497Y-90554737D01*
X141774179Y-90494394D01*
X141797676Y-90478694D01*
X141905875Y-90406398D01*
X141972553Y-90385520D01*
X141974766Y-90385500D01*
X142308331Y-90385500D01*
X142308347Y-90385501D01*
X142315943Y-90385501D01*
X142474054Y-90385501D01*
X142474057Y-90385501D01*
X142626785Y-90344577D01*
X142695907Y-90304669D01*
X142763716Y-90265520D01*
X142875520Y-90153716D01*
X142875520Y-90153714D01*
X142885724Y-90143511D01*
X142885727Y-90143506D01*
X142888023Y-90141210D01*
X142905010Y-90131935D01*
X142919039Y-90118597D01*
X142935043Y-90115535D01*
X142949344Y-90107727D01*
X142968651Y-90109107D01*
X142987665Y-90105471D01*
X143002783Y-90111548D01*
G37*
%TD.AperFunction*%
%TA.AperFunction,Conductor*%
G36*
X140096334Y-90030415D02*
G01*
X140152267Y-90072287D01*
X140176684Y-90137751D01*
X140177000Y-90146597D01*
X140177000Y-93886846D01*
X140157315Y-93953885D01*
X140140681Y-93974527D01*
X140140552Y-93974655D01*
X140054306Y-94089864D01*
X140054302Y-94089871D01*
X140004008Y-94224717D01*
X139997601Y-94284316D01*
X139997601Y-94284323D01*
X139997600Y-94284335D01*
X139997600Y-95650070D01*
X139997601Y-95650076D01*
X140004009Y-95709684D01*
X140017989Y-95747168D01*
X140020177Y-95777774D01*
X140024545Y-95808147D01*
X140022647Y-95812302D01*
X140022973Y-95816860D01*
X140008267Y-95843789D01*
X139995520Y-95871703D01*
X139991675Y-95874173D01*
X139989487Y-95878182D01*
X139962556Y-95892887D01*
X139936742Y-95909477D01*
X139930542Y-95910368D01*
X139928164Y-95911667D01*
X139901807Y-95914500D01*
X139747659Y-95914500D01*
X139680620Y-95894815D01*
X139634865Y-95842011D01*
X139624921Y-95772853D01*
X139631478Y-95747165D01*
X139645496Y-95709580D01*
X139645498Y-95709572D01*
X139651899Y-95650044D01*
X139651900Y-95650027D01*
X139651900Y-95217200D01*
X139122500Y-95217200D01*
X139122500Y-96103750D01*
X139104756Y-96164177D01*
X139106054Y-96164886D01*
X139101802Y-96172671D01*
X139051508Y-96307517D01*
X139045366Y-96364650D01*
X139045101Y-96367123D01*
X139045100Y-96367135D01*
X139045100Y-96855382D01*
X139042717Y-96879573D01*
X139024500Y-96971154D01*
X139024500Y-97128845D01*
X139042717Y-97220427D01*
X139045100Y-97244618D01*
X139045100Y-97732870D01*
X139045101Y-97732876D01*
X139051508Y-97792483D01*
X139101802Y-97927328D01*
X139106054Y-97935114D01*
X139103405Y-97936560D01*
X139122549Y-97987905D01*
X139107689Y-98056176D01*
X139058278Y-98105575D01*
X138990003Y-98120419D01*
X138961976Y-98115122D01*
X138852196Y-98080914D01*
X138781616Y-98074500D01*
X138268384Y-98074500D01*
X138249145Y-98076248D01*
X138197807Y-98080913D01*
X138035393Y-98131522D01*
X137889811Y-98219530D01*
X137889810Y-98219531D01*
X137796161Y-98313181D01*
X137734838Y-98346666D01*
X137708480Y-98349500D01*
X136574466Y-98349500D01*
X136507427Y-98329815D01*
X136461672Y-98277011D01*
X136451728Y-98207853D01*
X136480753Y-98144297D01*
X136500154Y-98126234D01*
X136535549Y-98099737D01*
X136611946Y-98042546D01*
X136698196Y-97927331D01*
X136748491Y-97792483D01*
X136754900Y-97732873D01*
X136754899Y-96367128D01*
X136748491Y-96307517D01*
X136734509Y-96270031D01*
X136729526Y-96200341D01*
X136763011Y-96139018D01*
X136824334Y-96105533D01*
X136850692Y-96102699D01*
X137254771Y-96102699D01*
X137254772Y-96102699D01*
X137314383Y-96096291D01*
X137449231Y-96045996D01*
X137564446Y-95959746D01*
X137650696Y-95844531D01*
X137700991Y-95709683D01*
X137707400Y-95650073D01*
X137707400Y-95650044D01*
X138093100Y-95650044D01*
X138099501Y-95709572D01*
X138099503Y-95709579D01*
X138149745Y-95844286D01*
X138149749Y-95844293D01*
X138235909Y-95959387D01*
X138235912Y-95959390D01*
X138351006Y-96045550D01*
X138351013Y-96045554D01*
X138485720Y-96095796D01*
X138485727Y-96095798D01*
X138545255Y-96102199D01*
X138545272Y-96102200D01*
X138622500Y-96102200D01*
X138622500Y-95217200D01*
X138093100Y-95217200D01*
X138093100Y-95650044D01*
X137707400Y-95650044D01*
X137707399Y-94928044D01*
X137707399Y-94284355D01*
X138093100Y-94284355D01*
X138093100Y-94717200D01*
X138622500Y-94717200D01*
X139122500Y-94717200D01*
X139651900Y-94717200D01*
X139651900Y-94284372D01*
X139651899Y-94284355D01*
X139645498Y-94224827D01*
X139645496Y-94224820D01*
X139595254Y-94090113D01*
X139595250Y-94090106D01*
X139509090Y-93975012D01*
X139509087Y-93975009D01*
X139393993Y-93888849D01*
X139393986Y-93888845D01*
X139259279Y-93838603D01*
X139259272Y-93838601D01*
X139199744Y-93832200D01*
X139122500Y-93832200D01*
X139122500Y-94717200D01*
X138622500Y-94717200D01*
X138622500Y-93832200D01*
X138545255Y-93832200D01*
X138485727Y-93838601D01*
X138485720Y-93838603D01*
X138351013Y-93888845D01*
X138351006Y-93888849D01*
X138235912Y-93975009D01*
X138235909Y-93975012D01*
X138149749Y-94090106D01*
X138149745Y-94090113D01*
X138099503Y-94224820D01*
X138099501Y-94224827D01*
X138093100Y-94284355D01*
X137707399Y-94284355D01*
X137707399Y-94284329D01*
X137707398Y-94284323D01*
X137707397Y-94284316D01*
X137700991Y-94224717D01*
X137687895Y-94189606D01*
X137650697Y-94089871D01*
X137650693Y-94089864D01*
X137564447Y-93974655D01*
X137564319Y-93974527D01*
X137564231Y-93974367D01*
X137559132Y-93967555D01*
X137560111Y-93966821D01*
X137530834Y-93913204D01*
X137528000Y-93886846D01*
X137528000Y-92547597D01*
X137547685Y-92480558D01*
X137564319Y-92459916D01*
X139965319Y-90058916D01*
X140026642Y-90025431D01*
X140096334Y-90030415D01*
G37*
%TD.AperFunction*%
%TA.AperFunction,Conductor*%
G36*
X136242580Y-92007099D02*
G01*
X136253844Y-92007905D01*
X136273270Y-92022447D01*
X136294972Y-92033301D01*
X136300737Y-92043009D01*
X136309777Y-92049777D01*
X136318256Y-92072512D01*
X136330647Y-92093377D01*
X136332522Y-92110759D01*
X136334194Y-92115241D01*
X136333636Y-92121082D01*
X136334433Y-92128467D01*
X136333934Y-92142558D01*
X136326999Y-92168443D01*
X136326999Y-92326557D01*
X136327000Y-92326560D01*
X136327000Y-92338760D01*
X136327000Y-93886846D01*
X136307315Y-93953885D01*
X136290681Y-93974527D01*
X136290552Y-93974655D01*
X136204306Y-94089864D01*
X136204302Y-94089871D01*
X136154008Y-94224717D01*
X136147601Y-94284316D01*
X136147601Y-94284323D01*
X136147600Y-94284335D01*
X136147600Y-95650070D01*
X136147601Y-95650076D01*
X136154009Y-95709684D01*
X136167989Y-95747168D01*
X136170177Y-95777774D01*
X136174545Y-95808147D01*
X136172647Y-95812302D01*
X136172973Y-95816860D01*
X136158267Y-95843789D01*
X136145520Y-95871703D01*
X136141675Y-95874173D01*
X136139487Y-95878182D01*
X136112556Y-95892887D01*
X136086742Y-95909477D01*
X136080542Y-95910368D01*
X136078164Y-95911667D01*
X136051807Y-95914500D01*
X135897659Y-95914500D01*
X135830620Y-95894815D01*
X135784865Y-95842011D01*
X135774921Y-95772853D01*
X135781478Y-95747165D01*
X135795496Y-95709580D01*
X135795498Y-95709572D01*
X135801899Y-95650044D01*
X135801900Y-95650027D01*
X135801900Y-95217200D01*
X135272500Y-95217200D01*
X135272500Y-96103750D01*
X135263694Y-96149644D01*
X135257611Y-96164911D01*
X135251804Y-96172669D01*
X135211955Y-96279507D01*
X135211419Y-96280855D01*
X135190683Y-96307314D01*
X135170535Y-96334228D01*
X135169083Y-96334875D01*
X135168321Y-96335848D01*
X135161863Y-96338095D01*
X135120418Y-96356578D01*
X135020676Y-96376419D01*
X135020667Y-96376421D01*
X134893192Y-96429222D01*
X134778454Y-96505887D01*
X134778453Y-96505888D01*
X133662181Y-97622161D01*
X133600858Y-97655646D01*
X133531166Y-97650662D01*
X133475233Y-97608790D01*
X133450816Y-97543326D01*
X133450500Y-97534480D01*
X133450500Y-95650044D01*
X134243100Y-95650044D01*
X134249501Y-95709572D01*
X134249503Y-95709579D01*
X134299745Y-95844286D01*
X134299749Y-95844293D01*
X134385909Y-95959387D01*
X134385912Y-95959390D01*
X134501006Y-96045550D01*
X134501013Y-96045554D01*
X134635720Y-96095796D01*
X134635727Y-96095798D01*
X134695255Y-96102199D01*
X134695272Y-96102200D01*
X134772500Y-96102200D01*
X134772500Y-95217200D01*
X134243100Y-95217200D01*
X134243100Y-95650044D01*
X133450500Y-95650044D01*
X133450500Y-94760097D01*
X133470185Y-94693058D01*
X133486819Y-94672416D01*
X133760593Y-94398642D01*
X134038917Y-94120317D01*
X134100238Y-94086834D01*
X134169929Y-94091818D01*
X134225863Y-94133689D01*
X134250280Y-94199154D01*
X134249885Y-94221255D01*
X134243101Y-94284353D01*
X134243100Y-94284372D01*
X134243100Y-94717200D01*
X134772500Y-94717200D01*
X135272500Y-94717200D01*
X135801900Y-94717200D01*
X135801900Y-94284372D01*
X135801899Y-94284355D01*
X135795498Y-94224827D01*
X135795496Y-94224820D01*
X135745254Y-94090113D01*
X135745250Y-94090106D01*
X135659090Y-93975012D01*
X135659087Y-93975009D01*
X135543993Y-93888849D01*
X135543986Y-93888845D01*
X135409279Y-93838603D01*
X135409272Y-93838601D01*
X135349744Y-93832200D01*
X135272500Y-93832200D01*
X135272500Y-94717200D01*
X134772500Y-94717200D01*
X134772500Y-93832200D01*
X134695272Y-93832200D01*
X134695253Y-93832201D01*
X134632155Y-93838985D01*
X134563396Y-93826580D01*
X134512258Y-93778970D01*
X134494979Y-93711271D01*
X134517044Y-93644976D01*
X134531212Y-93628022D01*
X136122830Y-92036405D01*
X136144124Y-92024777D01*
X136163015Y-92009543D01*
X136174243Y-92008331D01*
X136184152Y-92002921D01*
X136208354Y-92004651D01*
X136232482Y-92002049D01*
X136242580Y-92007099D01*
G37*
%TD.AperFunction*%
%TA.AperFunction,Conductor*%
G36*
X160204576Y-84316112D02*
G01*
X160606325Y-84591317D01*
X160610955Y-84594649D01*
X161260415Y-85085098D01*
X161290223Y-85107608D01*
X161294708Y-85111161D01*
X161666943Y-85420261D01*
X161949547Y-85654933D01*
X161953868Y-85658693D01*
X162541300Y-86194208D01*
X162582899Y-86232130D01*
X162587042Y-86236086D01*
X163188913Y-86837957D01*
X163192869Y-86842100D01*
X163766306Y-87471131D01*
X163770066Y-87475452D01*
X164313834Y-88130286D01*
X164317391Y-88134776D01*
X164722924Y-88671789D01*
X164830343Y-88814034D01*
X164833687Y-88818682D01*
X165304037Y-89505309D01*
X165314724Y-89520909D01*
X165317844Y-89525698D01*
X165670925Y-90095943D01*
X165765943Y-90249402D01*
X165768845Y-90254341D01*
X166183027Y-90997941D01*
X166185698Y-91003008D01*
X166425300Y-91484192D01*
X166530739Y-91695943D01*
X166565107Y-91764962D01*
X166567522Y-91770105D01*
X166653939Y-91965822D01*
X166663010Y-92035098D01*
X166633186Y-92098283D01*
X166573937Y-92135314D01*
X166504073Y-92134433D01*
X166452823Y-92103587D01*
X166043717Y-91694481D01*
X166043712Y-91694477D01*
X165916938Y-91621285D01*
X165916937Y-91621284D01*
X165906787Y-91615423D01*
X165845693Y-91599053D01*
X165754057Y-91574499D01*
X165595943Y-91574499D01*
X165588347Y-91574499D01*
X165588331Y-91574500D01*
X165070943Y-91574500D01*
X164918216Y-91615423D01*
X164918209Y-91615425D01*
X164887966Y-91632887D01*
X164825967Y-91649500D01*
X164710178Y-91649500D01*
X164666282Y-91658231D01*
X164666275Y-91658234D01*
X164616496Y-91691495D01*
X164616495Y-91691496D01*
X164583234Y-91741275D01*
X164583231Y-91741282D01*
X164574500Y-91785177D01*
X164574500Y-91986316D01*
X164570274Y-92018409D01*
X164549500Y-92095943D01*
X164549500Y-92254057D01*
X164565619Y-92314213D01*
X164570275Y-92331590D01*
X164574500Y-92363683D01*
X164574500Y-92564820D01*
X164574500Y-92564822D01*
X164574499Y-92564822D01*
X164583231Y-92608717D01*
X164583234Y-92608724D01*
X164615063Y-92656360D01*
X164616496Y-92658504D01*
X164666278Y-92691767D01*
X164666281Y-92691767D01*
X164666282Y-92691768D01*
X164710177Y-92700500D01*
X164710180Y-92700500D01*
X164825967Y-92700500D01*
X164887966Y-92717113D01*
X164918209Y-92734574D01*
X164918212Y-92734575D01*
X164918216Y-92734577D01*
X165070943Y-92775500D01*
X165300500Y-92775500D01*
X165367539Y-92795185D01*
X165413294Y-92847989D01*
X165424500Y-92899500D01*
X165424500Y-93699500D01*
X165404815Y-93766539D01*
X165352011Y-93812294D01*
X165300500Y-93823500D01*
X164484093Y-93823500D01*
X164417054Y-93803815D01*
X164371299Y-93751011D01*
X164360658Y-93687674D01*
X164362873Y-93664549D01*
X164366767Y-93658722D01*
X164375500Y-93614820D01*
X164375500Y-93532757D01*
X164376065Y-93526860D01*
X164377542Y-93523173D01*
X164379725Y-93506592D01*
X164383240Y-93493473D01*
X164400501Y-93429057D01*
X164400501Y-93270942D01*
X164400501Y-93270147D01*
X164400500Y-93270137D01*
X164400500Y-93145943D01*
X164377279Y-93059281D01*
X164376245Y-93049890D01*
X164376843Y-93046522D01*
X164375500Y-93036316D01*
X164375500Y-92835177D01*
X164366768Y-92791282D01*
X164366767Y-92791281D01*
X164366767Y-92791278D01*
X164333504Y-92741496D01*
X164323149Y-92734577D01*
X164283724Y-92708234D01*
X164283717Y-92708231D01*
X164239822Y-92699500D01*
X164239820Y-92699500D01*
X164124033Y-92699500D01*
X164062034Y-92682887D01*
X164031790Y-92665425D01*
X164031784Y-92665423D01*
X163879057Y-92624500D01*
X163720943Y-92624500D01*
X163568216Y-92665423D01*
X163568209Y-92665425D01*
X163537966Y-92682887D01*
X163475967Y-92699500D01*
X163360178Y-92699500D01*
X163316282Y-92708231D01*
X163316275Y-92708234D01*
X163266496Y-92741495D01*
X163266495Y-92741496D01*
X163233234Y-92791275D01*
X163233231Y-92791282D01*
X163224500Y-92835177D01*
X163224500Y-93024900D01*
X163204815Y-93091939D01*
X163188182Y-93112581D01*
X162914584Y-93386181D01*
X162853261Y-93419666D01*
X162826902Y-93422500D01*
X160699403Y-93422500D01*
X160632364Y-93402815D01*
X160586609Y-93350011D01*
X160576045Y-93285898D01*
X160585499Y-93193354D01*
X160585500Y-93193345D01*
X160585499Y-93035096D01*
X160605183Y-92968057D01*
X160621813Y-92947420D01*
X162637417Y-90931818D01*
X162698740Y-90898333D01*
X162725098Y-90895499D01*
X163073338Y-90895499D01*
X163073344Y-90895499D01*
X163073352Y-90895498D01*
X163073355Y-90895498D01*
X163127760Y-90889940D01*
X163172708Y-90885349D01*
X163333697Y-90832003D01*
X163478044Y-90742968D01*
X163597968Y-90623044D01*
X163687003Y-90478697D01*
X163740349Y-90317708D01*
X163750500Y-90218345D01*
X163750499Y-89621656D01*
X163740349Y-89522292D01*
X163687003Y-89361303D01*
X163686999Y-89361297D01*
X163686998Y-89361294D01*
X163597970Y-89216959D01*
X163597967Y-89216955D01*
X163478045Y-89097033D01*
X163478044Y-89097032D01*
X163429026Y-89066797D01*
X163382303Y-89014851D01*
X163374353Y-88993361D01*
X163359577Y-88938216D01*
X163308934Y-88850499D01*
X163280524Y-88801290D01*
X163280518Y-88801282D01*
X162926818Y-88447582D01*
X162893333Y-88386259D01*
X162890499Y-88359901D01*
X162890499Y-88011662D01*
X162890498Y-88011644D01*
X162880349Y-87912292D01*
X162880348Y-87912289D01*
X162872701Y-87889213D01*
X162827003Y-87751303D01*
X162826999Y-87751297D01*
X162826998Y-87751294D01*
X162737970Y-87606959D01*
X162737967Y-87606955D01*
X162618044Y-87487032D01*
X162618040Y-87487029D01*
X162473705Y-87398001D01*
X162473699Y-87397998D01*
X162473697Y-87397997D01*
X162460458Y-87393610D01*
X162312709Y-87344651D01*
X162213346Y-87334500D01*
X161666662Y-87334500D01*
X161666644Y-87334501D01*
X161567292Y-87344650D01*
X161567289Y-87344651D01*
X161450428Y-87383375D01*
X161419542Y-87393610D01*
X161349715Y-87396012D01*
X161311648Y-87379006D01*
X161254176Y-87340604D01*
X161254174Y-87340603D01*
X161108501Y-87280264D01*
X161108491Y-87280261D01*
X161010308Y-87260731D01*
X160948397Y-87228346D01*
X160913823Y-87167630D01*
X160910500Y-87139114D01*
X160910500Y-86769765D01*
X160930185Y-86702726D01*
X160931398Y-86700874D01*
X160959714Y-86658497D01*
X161019394Y-86569179D01*
X161079737Y-86423497D01*
X161110500Y-86268842D01*
X161110500Y-86111158D01*
X161110500Y-86111155D01*
X161110499Y-86111153D01*
X161104534Y-86081164D01*
X161079737Y-85956503D01*
X161022506Y-85818334D01*
X161019397Y-85810827D01*
X161019390Y-85810814D01*
X160931789Y-85679711D01*
X160931786Y-85679707D01*
X160820292Y-85568213D01*
X160820288Y-85568210D01*
X160689185Y-85480609D01*
X160689172Y-85480602D01*
X160543501Y-85420264D01*
X160543489Y-85420261D01*
X160388845Y-85389500D01*
X160388842Y-85389500D01*
X160231158Y-85389500D01*
X160231155Y-85389500D01*
X160158691Y-85403914D01*
X160089100Y-85397687D01*
X160033922Y-85354824D01*
X160010678Y-85288934D01*
X160010500Y-85282297D01*
X160010500Y-84418413D01*
X160030185Y-84351374D01*
X160082989Y-84305619D01*
X160152147Y-84295675D01*
X160204576Y-84316112D01*
G37*
%TD.AperFunction*%
%TA.AperFunction,Conductor*%
G36*
X149549416Y-81125134D02*
G01*
X149595171Y-81177938D01*
X149605115Y-81247096D01*
X149587960Y-81288524D01*
X149590454Y-81289886D01*
X149586202Y-81297671D01*
X149535908Y-81432517D01*
X149529501Y-81492116D01*
X149529500Y-81492135D01*
X149529500Y-82557870D01*
X149529501Y-82557876D01*
X149535908Y-82617483D01*
X149586202Y-82752328D01*
X149586206Y-82752335D01*
X149672452Y-82867544D01*
X149672455Y-82867547D01*
X149787664Y-82953793D01*
X149787673Y-82953798D01*
X149873363Y-82985758D01*
X149875192Y-82987127D01*
X149877467Y-82987372D01*
X149903036Y-83007971D01*
X149929297Y-83027629D01*
X149930651Y-83030217D01*
X149931877Y-83031205D01*
X149937428Y-83043170D01*
X149947680Y-83062763D01*
X149948851Y-83066281D01*
X149970423Y-83146785D01*
X149976503Y-83157315D01*
X149982792Y-83168209D01*
X149982794Y-83168213D01*
X150049477Y-83283712D01*
X150049481Y-83283717D01*
X150163181Y-83397417D01*
X150196666Y-83458740D01*
X150199500Y-83485098D01*
X150199500Y-83833337D01*
X150199501Y-83833355D01*
X150209650Y-83932707D01*
X150209651Y-83932710D01*
X150262996Y-84093694D01*
X150263001Y-84093705D01*
X150352029Y-84238040D01*
X150352032Y-84238044D01*
X150471955Y-84357967D01*
X150471959Y-84357970D01*
X150616294Y-84446998D01*
X150616297Y-84446999D01*
X150616303Y-84447003D01*
X150777292Y-84500349D01*
X150876655Y-84510500D01*
X151473344Y-84510499D01*
X151473352Y-84510498D01*
X151473355Y-84510498D01*
X151527760Y-84504940D01*
X151572708Y-84500349D01*
X151733697Y-84447003D01*
X151878044Y-84357968D01*
X151938554Y-84297457D01*
X151999873Y-84263975D01*
X152069565Y-84268959D01*
X152073670Y-84270574D01*
X152216503Y-84329737D01*
X152325279Y-84351374D01*
X152371153Y-84360499D01*
X152371156Y-84360500D01*
X152371158Y-84360500D01*
X152528844Y-84360500D01*
X152528845Y-84360499D01*
X152683497Y-84329737D01*
X152829179Y-84269394D01*
X152960289Y-84181789D01*
X153071789Y-84070289D01*
X153159394Y-83939179D01*
X153162108Y-83932628D01*
X153190013Y-83865257D01*
X153219737Y-83793497D01*
X153250500Y-83638842D01*
X153250500Y-83481158D01*
X153244267Y-83449823D01*
X153250494Y-83380232D01*
X153293356Y-83325054D01*
X153359245Y-83301809D01*
X153404886Y-83307924D01*
X153427292Y-83315349D01*
X153526655Y-83325500D01*
X153874902Y-83325499D01*
X153941941Y-83345183D01*
X153962583Y-83361818D01*
X154458316Y-83857551D01*
X154491801Y-83918874D01*
X154493993Y-83932628D01*
X154497063Y-83962679D01*
X154497064Y-83962686D01*
X154549950Y-84122284D01*
X154549955Y-84122295D01*
X154607832Y-84216127D01*
X154626273Y-84283519D01*
X154605351Y-84350183D01*
X154577786Y-84379595D01*
X154573155Y-84383148D01*
X154476096Y-84509638D01*
X154415085Y-84656932D01*
X154415085Y-84656933D01*
X154407062Y-84717869D01*
X154378794Y-84781765D01*
X154320469Y-84820236D01*
X154250605Y-84821066D01*
X154196442Y-84789363D01*
X154160292Y-84753213D01*
X154160288Y-84753210D01*
X154029185Y-84665609D01*
X154029172Y-84665602D01*
X153883501Y-84605264D01*
X153883489Y-84605261D01*
X153728845Y-84574500D01*
X153728842Y-84574500D01*
X153571158Y-84574500D01*
X153571155Y-84574500D01*
X153416510Y-84605261D01*
X153416498Y-84605264D01*
X153270827Y-84665602D01*
X153270814Y-84665609D01*
X153139711Y-84753210D01*
X153139707Y-84753213D01*
X153028213Y-84864707D01*
X153028210Y-84864711D01*
X152940609Y-84995814D01*
X152940602Y-84995827D01*
X152880264Y-85141498D01*
X152880261Y-85141510D01*
X152849500Y-85296153D01*
X152849500Y-85324903D01*
X152840855Y-85354343D01*
X152834332Y-85384330D01*
X152830577Y-85389345D01*
X152829815Y-85391942D01*
X152813181Y-85412584D01*
X152812584Y-85413181D01*
X152751261Y-85446666D01*
X152724903Y-85449500D01*
X150405425Y-85449500D01*
X150338386Y-85429815D01*
X150299887Y-85390598D01*
X150272968Y-85346956D01*
X150153044Y-85227032D01*
X150153040Y-85227029D01*
X150008705Y-85138001D01*
X150008699Y-85137998D01*
X150008697Y-85137997D01*
X149922185Y-85109330D01*
X149847709Y-85084651D01*
X149748346Y-85074500D01*
X149201662Y-85074500D01*
X149201644Y-85074501D01*
X149102292Y-85084650D01*
X149102289Y-85084651D01*
X148941305Y-85137996D01*
X148941294Y-85138001D01*
X148796959Y-85227029D01*
X148796955Y-85227032D01*
X148677032Y-85346955D01*
X148677029Y-85346959D01*
X148588001Y-85491294D01*
X148587996Y-85491305D01*
X148534651Y-85652290D01*
X148524500Y-85751647D01*
X148524500Y-86348337D01*
X148524501Y-86348355D01*
X148534650Y-86447707D01*
X148534651Y-86447710D01*
X148587996Y-86608694D01*
X148588001Y-86608705D01*
X148677029Y-86753040D01*
X148677032Y-86753044D01*
X148686807Y-86762819D01*
X148720292Y-86824142D01*
X148715308Y-86893834D01*
X148673436Y-86949767D01*
X148607972Y-86974184D01*
X148599126Y-86974500D01*
X147374500Y-86974500D01*
X147307461Y-86954815D01*
X147261706Y-86902011D01*
X147250500Y-86850500D01*
X147250500Y-86343386D01*
X147248420Y-86320501D01*
X147244086Y-86272804D01*
X147206137Y-86151022D01*
X147204988Y-86081164D01*
X147236839Y-86026458D01*
X147680520Y-85582780D01*
X147759577Y-85445848D01*
X147800501Y-85293121D01*
X147800501Y-85135006D01*
X147800501Y-85127411D01*
X147800500Y-85127393D01*
X147800500Y-84774499D01*
X147820185Y-84707460D01*
X147872989Y-84661705D01*
X147924500Y-84650499D01*
X148148338Y-84650499D01*
X148148344Y-84650499D01*
X148148352Y-84650498D01*
X148148355Y-84650498D01*
X148228941Y-84642266D01*
X148247708Y-84640349D01*
X148408697Y-84587003D01*
X148553044Y-84497968D01*
X148672968Y-84378044D01*
X148762003Y-84233697D01*
X148815349Y-84072708D01*
X148825500Y-83973345D01*
X148825499Y-83426656D01*
X148822318Y-83395520D01*
X148815349Y-83327292D01*
X148815348Y-83327289D01*
X148814607Y-83325054D01*
X148762003Y-83166303D01*
X148761999Y-83166297D01*
X148761998Y-83166294D01*
X148672970Y-83021959D01*
X148672967Y-83021955D01*
X148553044Y-82902032D01*
X148553040Y-82902029D01*
X148408705Y-82813001D01*
X148408699Y-82812998D01*
X148408697Y-82812997D01*
X148408694Y-82812996D01*
X148247709Y-82759651D01*
X148148346Y-82749500D01*
X147551662Y-82749500D01*
X147551644Y-82749501D01*
X147452292Y-82759650D01*
X147452289Y-82759651D01*
X147291305Y-82812996D01*
X147291294Y-82813001D01*
X147146959Y-82902029D01*
X147146955Y-82902032D01*
X147027032Y-83021955D01*
X147027029Y-83021959D01*
X146938001Y-83166294D01*
X146937996Y-83166305D01*
X146884651Y-83327290D01*
X146874500Y-83426647D01*
X146874500Y-83774902D01*
X146866349Y-83802657D01*
X146861032Y-83831105D01*
X146855935Y-83838125D01*
X146854815Y-83841941D01*
X146840720Y-83859969D01*
X146839481Y-83861282D01*
X146831286Y-83869478D01*
X146831284Y-83869480D01*
X146719480Y-83981284D01*
X146708653Y-84000035D01*
X146698724Y-84010567D01*
X146680556Y-84021191D01*
X146665325Y-84035715D01*
X146648914Y-84039696D01*
X146638411Y-84045839D01*
X146625782Y-84045308D01*
X146608504Y-84049500D01*
X146606616Y-84049500D01*
X145943384Y-84049500D01*
X145924145Y-84051248D01*
X145872807Y-84055913D01*
X145710393Y-84106522D01*
X145564811Y-84194530D01*
X145444530Y-84314811D01*
X145356522Y-84460393D01*
X145305913Y-84622807D01*
X145299500Y-84693386D01*
X145299500Y-85206613D01*
X145305913Y-85277192D01*
X145305913Y-85277194D01*
X145305914Y-85277196D01*
X145356522Y-85439606D01*
X145381307Y-85480606D01*
X145444530Y-85585188D01*
X145546661Y-85687319D01*
X145580146Y-85748642D01*
X145575162Y-85818334D01*
X145546661Y-85862681D01*
X145444531Y-85964810D01*
X145444530Y-85964811D01*
X145356522Y-86110393D01*
X145305913Y-86272807D01*
X145299500Y-86343386D01*
X145299500Y-86850500D01*
X145279815Y-86917539D01*
X145227011Y-86963294D01*
X145175500Y-86974500D01*
X141686669Y-86974500D01*
X141686653Y-86974499D01*
X141679057Y-86974499D01*
X141520943Y-86974499D01*
X141441010Y-86995917D01*
X141368216Y-87015422D01*
X141335038Y-87034578D01*
X141335037Y-87034577D01*
X141231277Y-87094483D01*
X141229994Y-87095468D01*
X141228718Y-87095961D01*
X141224246Y-87098543D01*
X141223842Y-87097844D01*
X141164821Y-87120653D01*
X141096378Y-87106604D01*
X141066841Y-87084762D01*
X141010292Y-87028213D01*
X141010288Y-87028210D01*
X140879185Y-86940609D01*
X140879172Y-86940602D01*
X140733501Y-86880264D01*
X140733489Y-86880261D01*
X140578845Y-86849500D01*
X140578842Y-86849500D01*
X140421158Y-86849500D01*
X140421155Y-86849500D01*
X140266510Y-86880261D01*
X140266498Y-86880264D01*
X140120827Y-86940602D01*
X140120814Y-86940609D01*
X139989710Y-87028210D01*
X139985882Y-87031353D01*
X139921572Y-87058666D01*
X139907217Y-87059500D01*
X138600940Y-87059500D01*
X138560019Y-87070464D01*
X138560019Y-87070465D01*
X138522751Y-87080451D01*
X138448214Y-87100423D01*
X138448209Y-87100426D01*
X138311290Y-87179475D01*
X138311282Y-87179481D01*
X138199478Y-87291286D01*
X132867888Y-92622875D01*
X132806565Y-92656360D01*
X132736873Y-92651376D01*
X132680940Y-92609504D01*
X132656523Y-92544040D01*
X132666772Y-92485111D01*
X132982478Y-91770105D01*
X132984871Y-91765005D01*
X133364305Y-91002998D01*
X133366972Y-90997941D01*
X133381642Y-90971604D01*
X133781172Y-90254310D01*
X133784037Y-90249432D01*
X134232174Y-89525667D01*
X134235248Y-89520950D01*
X134716331Y-88818653D01*
X134719634Y-88814064D01*
X135232628Y-88134749D01*
X135236144Y-88130312D01*
X135779950Y-87475431D01*
X135783674Y-87471152D01*
X136357150Y-86842078D01*
X136361064Y-86837979D01*
X136962979Y-86236064D01*
X136967078Y-86232150D01*
X137596152Y-85658674D01*
X137600431Y-85654950D01*
X138255312Y-85111144D01*
X138259749Y-85107628D01*
X138939064Y-84594634D01*
X138943653Y-84591331D01*
X139379316Y-84292896D01*
X141279500Y-84292896D01*
X141279500Y-84417103D01*
X141303727Y-84538902D01*
X141303730Y-84538912D01*
X141351256Y-84653650D01*
X141351261Y-84653660D01*
X141420257Y-84756919D01*
X141420260Y-84756923D01*
X141446653Y-84783316D01*
X141480138Y-84844639D01*
X141475154Y-84914331D01*
X141433282Y-84970264D01*
X141375921Y-84992539D01*
X141376075Y-84993313D01*
X141371677Y-84994187D01*
X141371133Y-84994399D01*
X141370104Y-84994500D01*
X141340787Y-85000330D01*
X141307542Y-85022542D01*
X141285332Y-85055785D01*
X141285329Y-85055791D01*
X141279500Y-85085098D01*
X141279500Y-86164894D01*
X141279501Y-86164902D01*
X141285330Y-86194212D01*
X141307542Y-86227457D01*
X141317424Y-86234059D01*
X141340787Y-86249669D01*
X141340790Y-86249669D01*
X141340791Y-86249670D01*
X141350647Y-86251630D01*
X141370101Y-86255500D01*
X141593285Y-86255499D01*
X141655285Y-86272112D01*
X141668215Y-86279577D01*
X141820943Y-86320501D01*
X141820946Y-86320501D01*
X141979054Y-86320501D01*
X141979057Y-86320501D01*
X142131785Y-86279577D01*
X142144714Y-86272112D01*
X142206714Y-86255499D01*
X142449895Y-86255499D01*
X142449898Y-86255499D01*
X142479213Y-86249669D01*
X142512457Y-86227457D01*
X142534669Y-86194213D01*
X142540500Y-86164899D01*
X142540499Y-85085102D01*
X142534669Y-85055787D01*
X142534668Y-85055785D01*
X142512457Y-85022542D01*
X142479214Y-85000332D01*
X142479215Y-85000332D01*
X142479213Y-85000331D01*
X142479211Y-85000330D01*
X142479208Y-85000329D01*
X142449901Y-84994499D01*
X142448876Y-84994399D01*
X142448373Y-84994196D01*
X142443924Y-84993311D01*
X142444091Y-84992467D01*
X142441042Y-84991236D01*
X142432608Y-84991695D01*
X142409128Y-84978349D01*
X142384088Y-84968239D01*
X142379208Y-84961344D01*
X142371865Y-84957170D01*
X142359328Y-84933250D01*
X142343728Y-84911205D01*
X142343351Y-84902766D01*
X142339430Y-84895285D01*
X142341815Y-84868387D01*
X142340610Y-84841405D01*
X142345016Y-84832290D01*
X142345602Y-84825688D01*
X142355561Y-84810476D01*
X142363042Y-84795004D01*
X142367823Y-84788838D01*
X142399742Y-84756920D01*
X142444331Y-84690186D01*
X142447014Y-84686728D01*
X142471933Y-84668727D01*
X142495510Y-84649024D01*
X142499990Y-84648461D01*
X142503653Y-84645816D01*
X142534344Y-84644146D01*
X142564835Y-84640317D01*
X142568909Y-84642266D01*
X142573420Y-84642021D01*
X142600138Y-84657207D01*
X142627862Y-84670471D01*
X142632119Y-84675384D01*
X142634163Y-84676546D01*
X142635750Y-84679575D01*
X142648102Y-84693830D01*
X142690254Y-84756915D01*
X142690260Y-84756923D01*
X142778076Y-84844739D01*
X142778080Y-84844742D01*
X142881339Y-84913738D01*
X142881343Y-84913740D01*
X142881346Y-84913742D01*
X142996090Y-84961271D01*
X143117896Y-84985499D01*
X143117900Y-84985500D01*
X143117901Y-84985500D01*
X143242100Y-84985500D01*
X143242101Y-84985499D01*
X143363910Y-84961271D01*
X143478654Y-84913742D01*
X143581920Y-84844742D01*
X143669742Y-84756920D01*
X143695835Y-84717869D01*
X143711898Y-84693830D01*
X143765510Y-84649024D01*
X143834835Y-84640317D01*
X143897862Y-84670471D01*
X143918102Y-84693830D01*
X143960254Y-84756915D01*
X143960260Y-84756923D01*
X144048076Y-84844739D01*
X144048080Y-84844742D01*
X144151339Y-84913738D01*
X144151343Y-84913740D01*
X144151346Y-84913742D01*
X144266090Y-84961271D01*
X144387896Y-84985499D01*
X144387900Y-84985500D01*
X144387901Y-84985500D01*
X144512100Y-84985500D01*
X144512101Y-84985499D01*
X144633910Y-84961271D01*
X144748654Y-84913742D01*
X144851920Y-84844742D01*
X144939742Y-84756920D01*
X145008742Y-84653654D01*
X145056271Y-84538910D01*
X145080500Y-84417099D01*
X145080500Y-84292901D01*
X145056271Y-84171090D01*
X145008742Y-84056346D01*
X145008740Y-84056343D01*
X145008738Y-84056339D01*
X144939742Y-83953080D01*
X144939739Y-83953076D01*
X144851923Y-83865260D01*
X144851919Y-83865257D01*
X144748660Y-83796261D01*
X144748650Y-83796256D01*
X144633912Y-83748730D01*
X144633913Y-83748730D01*
X144633910Y-83748729D01*
X144633906Y-83748728D01*
X144633902Y-83748727D01*
X144512103Y-83724500D01*
X144512099Y-83724500D01*
X144387901Y-83724500D01*
X144387896Y-83724500D01*
X144266097Y-83748727D01*
X144266087Y-83748730D01*
X144151349Y-83796256D01*
X144151339Y-83796261D01*
X144048080Y-83865257D01*
X144048076Y-83865260D01*
X143960260Y-83953076D01*
X143960257Y-83953080D01*
X143918102Y-84016170D01*
X143864490Y-84060975D01*
X143795165Y-84069682D01*
X143732137Y-84039527D01*
X143711898Y-84016170D01*
X143669742Y-83953080D01*
X143669739Y-83953076D01*
X143581923Y-83865260D01*
X143581919Y-83865257D01*
X143478660Y-83796261D01*
X143478650Y-83796256D01*
X143363912Y-83748730D01*
X143363913Y-83748730D01*
X143363910Y-83748729D01*
X143363906Y-83748728D01*
X143363902Y-83748727D01*
X143242103Y-83724500D01*
X143242099Y-83724500D01*
X143117901Y-83724500D01*
X143117896Y-83724500D01*
X142996097Y-83748727D01*
X142996087Y-83748730D01*
X142881349Y-83796256D01*
X142881339Y-83796261D01*
X142778080Y-83865257D01*
X142778076Y-83865260D01*
X142690260Y-83953076D01*
X142690257Y-83953080D01*
X142648102Y-84016170D01*
X142594490Y-84060975D01*
X142525165Y-84069682D01*
X142462137Y-84039527D01*
X142441898Y-84016170D01*
X142399742Y-83953080D01*
X142399739Y-83953076D01*
X142311923Y-83865260D01*
X142311919Y-83865257D01*
X142208660Y-83796261D01*
X142208650Y-83796256D01*
X142093912Y-83748730D01*
X142093913Y-83748730D01*
X142093910Y-83748729D01*
X142093906Y-83748728D01*
X142093902Y-83748727D01*
X141972103Y-83724500D01*
X141972099Y-83724500D01*
X141847901Y-83724500D01*
X141847896Y-83724500D01*
X141726097Y-83748727D01*
X141726087Y-83748730D01*
X141611349Y-83796256D01*
X141611339Y-83796261D01*
X141508080Y-83865257D01*
X141508076Y-83865260D01*
X141420260Y-83953076D01*
X141420257Y-83953080D01*
X141351261Y-84056339D01*
X141351256Y-84056349D01*
X141303730Y-84171087D01*
X141303727Y-84171097D01*
X141279500Y-84292896D01*
X139379316Y-84292896D01*
X139645950Y-84110248D01*
X139650667Y-84107174D01*
X140374432Y-83659037D01*
X140379310Y-83656172D01*
X141122950Y-83241967D01*
X141127998Y-83239305D01*
X141890005Y-82859871D01*
X141895069Y-82857493D01*
X142673819Y-82513642D01*
X142679067Y-82511470D01*
X143472793Y-82203977D01*
X143478142Y-82202044D01*
X144285248Y-81931530D01*
X144290697Y-81929843D01*
X145109422Y-81696896D01*
X145114886Y-81695477D01*
X145943496Y-81500589D01*
X145949082Y-81499410D01*
X146785808Y-81343000D01*
X146791432Y-81342082D01*
X147634487Y-81224481D01*
X147640133Y-81223826D01*
X148487694Y-81145288D01*
X148493399Y-81144892D01*
X149343691Y-81105581D01*
X149349418Y-81105449D01*
X149482377Y-81105449D01*
X149549416Y-81125134D01*
G37*
%TD.AperFunction*%
%TA.AperFunction,Conductor*%
G36*
X160462273Y-90795185D02*
G01*
X160464125Y-90796398D01*
X160595814Y-90884390D01*
X160595818Y-90884392D01*
X160595821Y-90884394D01*
X160700530Y-90927765D01*
X160754930Y-90971604D01*
X160776996Y-91037898D01*
X160759717Y-91105597D01*
X160740756Y-91130006D01*
X159937582Y-91933181D01*
X159876259Y-91966666D01*
X159849901Y-91969500D01*
X159311662Y-91969500D01*
X159311644Y-91969501D01*
X159212292Y-91979650D01*
X159212289Y-91979651D01*
X159051305Y-92032996D01*
X159051294Y-92033001D01*
X158906959Y-92122029D01*
X158906955Y-92122032D01*
X158787032Y-92241955D01*
X158787029Y-92241959D01*
X158698001Y-92386294D01*
X158697993Y-92386311D01*
X158681081Y-92437349D01*
X158666639Y-92458207D01*
X158655712Y-92481109D01*
X158647084Y-92486451D01*
X158641308Y-92494794D01*
X158617879Y-92504534D01*
X158596308Y-92517891D01*
X158586161Y-92517720D01*
X158576792Y-92521616D01*
X158551819Y-92517143D01*
X158526448Y-92516718D01*
X158518003Y-92511088D01*
X158508016Y-92509300D01*
X158489423Y-92492035D01*
X158468312Y-92477961D01*
X158460644Y-92465310D01*
X158456817Y-92461757D01*
X158449732Y-92447954D01*
X158444876Y-92436832D01*
X158444669Y-92435787D01*
X158443952Y-92434714D01*
X158439541Y-92424609D01*
X158436480Y-92400447D01*
X158429205Y-92377208D01*
X158432168Y-92366406D01*
X158430761Y-92355293D01*
X158441248Y-92333313D01*
X158443047Y-92326756D01*
X158439996Y-92325493D01*
X158444666Y-92314217D01*
X158444669Y-92314213D01*
X158450500Y-92284899D01*
X158450499Y-92065102D01*
X158444669Y-92035787D01*
X158439996Y-92024504D01*
X158443551Y-92023031D01*
X158429205Y-91977208D01*
X158443047Y-91926756D01*
X158439996Y-91925493D01*
X158444666Y-91914217D01*
X158444669Y-91914213D01*
X158450500Y-91884899D01*
X158450499Y-91665102D01*
X158444669Y-91635787D01*
X158439996Y-91624504D01*
X158443551Y-91623031D01*
X158429205Y-91577208D01*
X158443047Y-91526756D01*
X158439996Y-91525493D01*
X158444666Y-91514217D01*
X158444669Y-91514213D01*
X158450500Y-91484899D01*
X158450499Y-91265102D01*
X158444669Y-91235787D01*
X158439996Y-91224504D01*
X158443551Y-91223031D01*
X158429205Y-91177208D01*
X158443047Y-91126756D01*
X158439996Y-91125493D01*
X158444666Y-91114217D01*
X158444669Y-91114213D01*
X158450500Y-91084899D01*
X158450499Y-90899500D01*
X158470183Y-90832461D01*
X158522987Y-90786706D01*
X158574499Y-90775500D01*
X160395234Y-90775500D01*
X160462273Y-90795185D01*
G37*
%TD.AperFunction*%
%TA.AperFunction,Conductor*%
G36*
X160383443Y-88688303D02*
G01*
X160409001Y-88701383D01*
X160495814Y-88759390D01*
X160495827Y-88759397D01*
X160638961Y-88818684D01*
X160641503Y-88819737D01*
X160796153Y-88850499D01*
X160796156Y-88850500D01*
X160796158Y-88850500D01*
X160861948Y-88850500D01*
X160898621Y-88856047D01*
X160911903Y-88860159D01*
X160928216Y-88869577D01*
X161033091Y-88897678D01*
X161035350Y-88898378D01*
X161062550Y-88916426D01*
X161090431Y-88933421D01*
X161092695Y-88936429D01*
X161093569Y-88937009D01*
X161094181Y-88938402D01*
X161104211Y-88951727D01*
X161142032Y-89013044D01*
X161261956Y-89132968D01*
X161398775Y-89217360D01*
X161407993Y-89227608D01*
X161412674Y-89228446D01*
X161415383Y-89227958D01*
X161441118Y-89233539D01*
X161567292Y-89275349D01*
X161666655Y-89285500D01*
X161766396Y-89285499D01*
X161785666Y-89291157D01*
X161805739Y-89291906D01*
X161818505Y-89300800D01*
X161833433Y-89305183D01*
X161846586Y-89320362D01*
X161863069Y-89331845D01*
X161868999Y-89346227D01*
X161879189Y-89357986D01*
X161882047Y-89377869D01*
X161889705Y-89396438D01*
X161887569Y-89416273D01*
X161889133Y-89427145D01*
X161888390Y-89431707D01*
X161886832Y-89440263D01*
X161859651Y-89522292D01*
X161849500Y-89621655D01*
X161849500Y-89645339D01*
X161847495Y-89656353D01*
X161836630Y-89677971D01*
X161829815Y-89701184D01*
X161821225Y-89708626D01*
X161816122Y-89718783D01*
X161795294Y-89731096D01*
X161777011Y-89746939D01*
X161765761Y-89748556D01*
X161755977Y-89754341D01*
X161731800Y-89753439D01*
X161707853Y-89756883D01*
X161697514Y-89752161D01*
X161686156Y-89751738D01*
X161666304Y-89737908D01*
X161644297Y-89727858D01*
X161632207Y-89714154D01*
X161628826Y-89711799D01*
X161627682Y-89709025D01*
X161622399Y-89703037D01*
X161596791Y-89664713D01*
X161596786Y-89664707D01*
X161485292Y-89553213D01*
X161485288Y-89553210D01*
X161354185Y-89465609D01*
X161348809Y-89462736D01*
X161349424Y-89461584D01*
X161330832Y-89446600D01*
X161324285Y-89442067D01*
X161300950Y-89442499D01*
X161286225Y-89437458D01*
X161235078Y-89416273D01*
X161208497Y-89405263D01*
X161208493Y-89405262D01*
X161208489Y-89405261D01*
X161053845Y-89374500D01*
X161053842Y-89374500D01*
X160896158Y-89374500D01*
X160896155Y-89374500D01*
X160741510Y-89405261D01*
X160741498Y-89405264D01*
X160595827Y-89465602D01*
X160595814Y-89465609D01*
X160464125Y-89553602D01*
X160397447Y-89574480D01*
X160395234Y-89574500D01*
X159694097Y-89574500D01*
X159627058Y-89554815D01*
X159581303Y-89502011D01*
X159571359Y-89432853D01*
X159600384Y-89369297D01*
X159606416Y-89362819D01*
X159752280Y-89216955D01*
X160252431Y-88716802D01*
X160313752Y-88683319D01*
X160383443Y-88688303D01*
G37*
%TD.AperFunction*%
%TD*%
%TA.AperFunction,Conductor*%
%TO.N,Net-(U2-OUT)*%
G36*
X155943039Y-103719685D02*
G01*
X155988794Y-103772489D01*
X156000000Y-103824000D01*
X156000000Y-104751000D01*
X155980315Y-104818039D01*
X155927511Y-104863794D01*
X155876000Y-104875000D01*
X155349000Y-104875000D01*
X155281961Y-104855315D01*
X155236206Y-104802511D01*
X155225000Y-104751000D01*
X155225000Y-103824000D01*
X155244685Y-103756961D01*
X155297489Y-103711206D01*
X155349000Y-103700000D01*
X155876000Y-103700000D01*
X155943039Y-103719685D01*
G37*
%TD.AperFunction*%
%TD*%
M02*
